<mxfile host="app.diagrams.net" modified="2024-03-16T13:26:57.820Z" agent="Mozilla/5.0 (iPhone; CPU iPhone OS 11_0 like Mac OS X) AppleWebKit/604.1.38 (KHTML, like Gecko) Version/11.0 Mobile/15A372 Safari/604.1" etag="Ib_uUCK75nGImrb4BxjS" version="21.5.2" type="device">
  <diagram name="Page-1" id="alhvyRzcV2SPi1pedGvb">
    <mxGraphModel dx="1428" dy="569" grid="1" gridSize="10" guides="1" tooltips="1" connect="1" arrows="1" fold="1" page="1" pageScale="1" pageWidth="1169" pageHeight="827" math="0" shadow="0">
      <root>
        <mxCell id="0" />
        <mxCell id="1" parent="0" />
        <mxCell id="L4tckfG0INi3qkzBc33O-46" value="" style="whiteSpace=wrap;html=1;" vertex="1" parent="1">
          <mxGeometry x="530.73" y="570.5" width="200" height="77" as="geometry" />
        </mxCell>
        <mxCell id="L4tckfG0INi3qkzBc33O-45" value="" style="ellipse;whiteSpace=wrap;html=1;" vertex="1" parent="1">
          <mxGeometry x="360" y="570.5" width="130" height="84" as="geometry" />
        </mxCell>
        <mxCell id="L4tckfG0INi3qkzBc33O-1" value="" style="whiteSpace=wrap;html=1;" vertex="1" parent="1">
          <mxGeometry x="540" y="210" width="200" height="70" as="geometry" />
        </mxCell>
        <mxCell id="L4tckfG0INi3qkzBc33O-2" value="" style="ellipse;whiteSpace=wrap;html=1;" vertex="1" parent="1">
          <mxGeometry x="360" y="200" width="140" height="80" as="geometry" />
        </mxCell>
        <mxCell id="L4tckfG0INi3qkzBc33O-4" value="" style="edgeStyle=none;orthogonalLoop=1;jettySize=auto;html=1;rounded=0;shape=link;" edge="1" parent="1">
          <mxGeometry width="80" relative="1" as="geometry">
            <mxPoint x="300" y="310" as="sourcePoint" />
            <mxPoint x="760" y="310" as="targetPoint" />
            <Array as="points" />
          </mxGeometry>
        </mxCell>
        <mxCell id="L4tckfG0INi3qkzBc33O-5" value="Presentation layer" style="text;strokeColor=none;align=center;fillColor=none;html=1;verticalAlign=middle;whiteSpace=wrap;rounded=0;" vertex="1" parent="1">
          <mxGeometry x="400" y="225" width="60" height="30" as="geometry" />
        </mxCell>
        <mxCell id="L4tckfG0INi3qkzBc33O-8" value="" style="shape=image;imageAspect=0;aspect=fixed;verticalLabelPosition=bottom;verticalAlign=top;image=data:image/jpeg,/9j/4AAQSkZJRgABAQAAAQABAAD/4QAYRXhpZgAASUkqAAgAAAAAAAAAAAAAAP/hAytodHRwOi8vbnMuYWRvYmUuY29tL3hhcC8xLjAvADw/eHBhY2tldCBiZWdpbj0i77u/IiBpZD0iVzVNME1wQ2VoaUh6cmVTek5UY3prYzlkIj8+IDx4OnhtcG1ldGEgeG1sbnM6eD0iYWRvYmU6bnM6bWV0YS8iIHg6eG1wdGs9IkFkb2JlIFhNUCBDb3JlIDUuMy1jMDExIDY2LjE0NTY2MSwgMjAxMi8wMi8wNi0xNDo1NjoyNyAgICAgICAgIj4gPHJkZjpSREYgeG1sbnM6cmRmPSJodHRwOi8vd3d3LnczLm9yZy8xOTk5LzAyLzIyLXJkZi1zeW50YXgtbnMjIj4gPHJkZjpEZXNjcmlwdGlvbiByZGY6YWJvdXQ9IiIgeG1sbnM6eG1wPSJodHRwOi8vbnMuYWRvYmUuY29tL3hhcC8xLjAvIiB4bWxuczp4bXBNTT0iaHR0cDovL25zLmFkb2JlLmNvbS94YXAvMS4wL21tLyIgeG1sbnM6c3RSZWY9Imh0dHA6Ly9ucy5hZG9iZS5jb20veGFwLzEuMC9zVHlwZS9SZXNvdXJjZVJlZiMiIHhtcDpDcmVhdG9yVG9vbD0iQWRvYmUgUGhvdG9zaG9wIENTNiAoV2luZG93cykiIHhtcE1NOkluc3RhbmNlSUQ9InhtcC5paWQ6NjM3RDEwMkREMDEyMTFFNzkwMEZGRUNFMTk3OTNCRUEiIHhtcE1NOkRvY3VtZW50SUQ9InhtcC5kaWQ6NjM3RDEwMkVEMDEyMTFFNzkwMEZGRUNFMTk3OTNCRUEiPiA8eG1wTU06RGVyaXZlZEZyb20gc3RSZWY6aW5zdGFuY2VJRD0ieG1wLmlpZDo2MzdEMTAyQkQwMTIxMUU3OTAwRkZFQ0UxOTc5M0JFQSIgc3RSZWY6ZG9jdW1lbnRJRD0ieG1wLmRpZDo2MzdEMTAyQ0QwMTIxMUU3OTAwRkZFQ0UxOTc5M0JFQSIvPiA8L3JkZjpEZXNjcmlwdGlvbj4gPC9yZGY6UkRGPiA8L3g6eG1wbWV0YT4gPD94cGFja2V0IGVuZD0iciI/Pv/bAEMAAwICAgICAwICAgMDAwMEBgQEBAQECAYGBQYJCAoKCQgJCQoMDwwKCw4LCQkNEQ0ODxAQERAKDBITEhATDxAQEP/bAEMBAwMDBAMECAQECBALCQsQEBAQEBAQEBAQEBAQEBAQEBAQEBAQEBAQEBAQEBAQEBAQEBAQEBAQEBAQEBAQEBAQEP/AABEIAQQBBAMBEQACEQEDEQH/xAAdAAEAAgMBAQEBAAAAAAAAAAAABQYHCAkDBAEC/8QATxAAAAQDAggKBgYIBQMFAAAAAAECAwQFBgcRCBITITFEgsEVQVFhZHWBkaLhFDI3cbKzIjU2QmOhCSNDUmJydJIkJTix0RYzNFODk6Pw/8QAHAEBAAMAAwEBAAAAAAAAAAAAAAUGBwIECAMB/8QAQREAAQIDAwkGBQMDAwQDAQAAAAECAwQFBhGxByExNUFRYXKREjRxocHREzIzUoEiYvAjQuEk0uIUQ4KiFhdEkv/aAAwDAQACEQMRAD8A6pgAAIifavtbgBEAAALcAAAiJ9q+1uAEQAAAtwAACIn2r7W4ARAAAC3AAAIifavtbgBEAAALcAAAiJ9q+1uAEQANJMKy0KtLP7dkTGj6jjJY6cohTWlpf6ty5TmZaDvSrtIa/Y2mSlToqsmoaOTtu06UzJoXShi9t6rOUuuJEk4itXsN0aFzrpTQpa7M/wBIRGM5KX2rUumIRmScxlRElfvUyo7j2VF7h1qpk7a699OiXftd6L7odqlZS3NuZUod/wC5vqnsv4Nq7P7YbNrUIUoiiqsgo9zFxlw2Pk4hv+ZpVyi991wzyoUaepbuzNQ1bx2ddBpNNrlPq7e1KRUcu7Qqfhc5OT7V9rcIwlSIAAAW4AAAAAAABET7V9rcAIgAABbgAAERPtX2twAiAAAFuAAARE+1fa3ACIAAAW4AABET7V9rcAIgAABbgAAERPtX2twAiABoHhve2hHU8N8Tg23J/qled2CGD5R9cJyNxU1+F4KEe0HGxkuiW42Xxb0NENKxm3WXDQtB8pKLORji9jYjVY9L0XYpyZEfCcj2LcqbUM7UDhnWtUoliBqOKbqmXs5iRHHdEJTm0PFnPR94lCnVOw1Nnr3wU+G7ho6e1xdqVb6qU+5kdfis/dp//r3vNmrO8LKyWvMlCRU0VT8xcuL0aZGSEGrkS6X0D7TI+YZ1VLGVOnXua34jd7c/VNOJplKtxSqncxzvhv3OzdF0YGZWnWn20vMuJcbWWMlaTvJRcpGWkVNWq1bl0lwa5HJemguA/D9AAACI4e6H4/IAOHuh+PyAD67/AAcjtY1/dyABwD0zweYAcA9M8HmAHD3Q/H5ABw90Px+QAfXf4OR2sa/u5AA4B6Z4PMAOAemeDzADh7ofj8gA4e6H4/IAPrv8HI7WNf3cgAcA9M8HmAHAPTPB5gBw90Px+QAcPdD8fkAH13+DkdrGv7uQAOAemeDzADgHpng8wA4e6H4/IAOHuh+PyAD67/ByO1jX93IAHAPTPB5gDnph1wvodtzbOUx/8mhTvuu+84Ntyf6pXnX0MHyj65TkbiprsLwUIAAAAAvVAW22m2aOIKlqoiW4VJ3nBPnloZX/ALasxe9Nx84hqlZ+nVZP9TDS/emZeqepN0u0dSo6/wClir2ftXO3ovpcbY2c/pBqfmJNQFpdLrlcQdyVR0Ao3Ycz5VNmRrT2YwzuqZPI8K98g/tpuXMvXQvkaVSspUvGuZUYfYX7m506aU8zZCl7UKUrWAKZ0pNIKaQx6Vw0QSjTzKK69J8xkRihTcjMyD/hzLFavFP5eaJJVCVqMP4srER6cF/lxM8PdD8fkOodwiAAAEvIdY2d4AlwAAFRAAAS8h1jZ3gCXAAAVEAABLyHWNneAJcAABUQAAEvIdY2d4AlwAAFRAAAS8h1jZ3gCXAHOTD59ujfUkL8Tg23J/qledfQwfKNrlORuKmt4vBQgAAAAAAAAkJHUM9pmPRNKenEZLYts70vQzym1d5HnLmHwmJWDNsWHHYjm7lS8+8tNx5OIkWXerXJtRbja+yHCStOnFKKcncZBR78NFKhyfdhiJakEhBljYpkRneo89wzOuWVp0CZugorUVL7kXNpXfeapQbXVKYlb4yo5UW69Uz6E3XG3wy01oACXkOsbO8AS4AACogAAJeQ6xs7wBLgAAKiAAAl5DrGzvAEuAAAxtV9a0tQUnVPqunLEtgUrS3lHbzxlqPMlJFeaj9xaCMx3JGQmalF+DKsVzuB0p+oytMg/Hm3o1u9T6ZBUtP1VL0TWm51BzOEcLM9CvJcT7ju0HzHnHzmZSPJv+FMMVrtypcfSVnJedhpFlno5u9FvLTIdY2d4652SXAAAVEAABLyHWNneAJcAc5MPn26N9SQvxODbcn+qV519DB8o2uU5G4qa3i8FCAAAAAAAAAAM2WJfZWL6wc+W2KfaDvLeVMVLnZzuruZcEOn4wo9BAARE+1fa3ACIAAAW4AABET7V9rcAIgAABbgAAERPtX2twAiABW7QLQKZs0pqJqiqY4mIZgrkILO4+5xNoTxqPzPMJCm0yYq0wktLJeq9ETevAjqpVJajyzpqadcidVXcnE5224W4VVbfVKp1O3FQ8uhzUiXS5Cr24Zs/iWf3lcfMREQ3qhUKXoUv8KFncvzO2qvtuQ882gtBM1+Z+LGzNT5W7ET33qVKlK1q2hpkmbUhUUfKYtJ/wDchXjRjcyi0KLmMjISM3Iy0+z4cyxHJxQjJOfmqfE+LKxFYvBf5ebK0Hh6VOwmGl9p0iamzLX0Tj4EiZiLs2dTfqK0cWKKDVMnkCLe+nv7K7lzp10p5miUnKTMQbodRZ20+5uZemhfI2XoC2iza0tpJ0pU8M9EqK9UE8eSiU+9tWc/eV5c4zqpUGoUlf8AUw1RN6Z06p6mmUu0NOrCf6WKiruXM7ovoXcQ5NFuAAARE+1fa3ACIAGgeG97aEdTw3xODbcn+qV53YIYPlH1wnI3FTX4XgoQAAAAAAAAABnqwX7HxnWTnymhT7Qd5bypipc7Od1dzLgh0xGFHoIACIn2r7W4ARAAAC3AAAIifavtbgBEAAALcAAAiJ9q+1uAFDtDtDpmzGmYiqKojSZh2SxWmk53Ihy7M2guNR/lpPMJCmUyYq0wktLJeq9ETepG1Wqy1GllmZp1yJoTaq7k4nOS2G2KprYqlXOZ04bMEyZogIBCjNuGb3qPjVx+64hvdDocvQ5f4UHO5fmdtVfbch55r9fma/M/GjLc1PlbsRPfepQhNEEAAAH9svvQzqH4d5bTrZ4yFoUaVJPlIy0D8c1Hp2XJeh+tc5i9pq3KZrs6wurVqGyUHM45FSS1FxZCYmZupT/C8X0v7sYuYVGqWJplQvfDb8N+9uj8po6XFzpNu6rTbmRXfFZudp/DtPW86C2M2py+2SgoOupdK4iXNxLjrKod5ZKUhbasVVyi0lfoPN7hj9apT6LOOlHuRypct6cTaaFV2VySbOQ2q1FvS5d6F4ESTBET7V9rcAIgAaB4b3toR1PDfE4Ntyf6pXndghg+UfXCcjcVNfheChAAAAAAAAAAGerBfsfGdZOfKaFPtB3lvKmKlzs53V3MuCHRrh7ofj8hhR6CHD3Q/H5AB9d/g5Haxr+7kADgHpng8wA4B6Z4PMAOHuh+PyADh7ofj8gA+u/wcjtY1/dyABwD0zweYAcA9M8HmAHD3Q/H5ABw90Px+QAqdp1p1KUBSkTVlWxxQkPCFisspMlOxbqizNtpzXmeL7iLOeYSNLpcxV5hJaWS9V0rsRN6kZVqtLUaWWZmluRNCbVXchzRtetfqe2GplzyePG1CtGaIGBQozbhm79Bcqj41aT91xDe6JRJehy/wYKXuX5nbVX23IeeK9XpmvzKx463NT5W7ET33qUUTJCAAAAAAAAB0bwJZr6JYJLmfR8e6PjDvxrv2p8wwy3euX8rcDf8n2o2czsTPPD3Q/H5Cml2H13+DkdrGv7uQAOAemeDzAHPTDrhfQ7bm2cpj/5NCnfdd95wbbk/1SvOvoYPlH1ynI3FTXYXgoQAAAAAAAAABnOwyJJmkotOTxr5i4en8JoVC0HeW8qYqXOzndXcy4IdChhJ6CAAl5DrGzvAFari3SyWzrGbqyuZbCxCdWbcyz//AMbd6i7SEvI0Go1LPLQlVN+hOq3IQ1QtDTKXmmYyIu7SvRL1LZIagklUyiGn1OzSHmEvjEE4xEQ6yWhZe8vzLSQjpiXiysRYMZqtcmlFJKWmYM3CSNAcjmroVCBHxPuABLyHWNneAJcAABUQBVrSbSaYsspl+p6niybaRelhhJllYl27M2guMz5dBFnMSVKpUxWJhJeWTPtXYib1Iur1eWossszMrm2JtVdyHOO1u1yp7X6mcn0+eNuHbM0QUChR5KFav0FyqPjVpM+a4hvdFokvQ5dIMBM66V2qv80IeeK7XZmvTKx463Inyt2InvvXaUcTBCgAAAAAAAAAHQvAx9hUu/roz5hjC7d65fytwN/yfajZzOxM5CnF2JeQ6xs7wBLgDnJh8+3RvqSF+Jwbbk/1SvOvoYPlG1ynI3FTW8XgoQAAAAAAAAABmyxL7KxfWDny2xT7Qd5bypipc7Od1dzLgh0RGFHoIADTzC5Tb5TMU/Noespm9RMa4SEpgf8ADphVHfc0/k7jUR57lGdx6NI1axC0aaYkNYSJHbvz38Uv80TQZBbxK5KPWKkZVl3fbmu4Ou08FXSajKWpajWtRqUo7zMzvMzGnol2ZDKVVVzqZMsUwga6sRmxREhizi5S+sjjJVEKM2Hi4zT+4v8AiLtvLMIGuWelK5DujJc9NDk0p7pwLDQbSTlAi9qCt7F0tXQvsvE32sotlou1+TlMaajcSLaSRxcveMifh1Hyl95N+hRZj5jzDEazQpuiRfhzCfpXQ5NC/wCeBvFEtBJ16D8SWd+pNLV0p/jiXoQxOEvIdY2d4AlwAAGJrS7TKYsqph+pqnisRCb0Q8OgyysS7dmbQXGfKegizmJOk0mZrEwkvLp4rsRN6kVWKxLUSWWZmV8E2qu5P5mOcdrFrNT2vVM5UFQv4jKL0QUEhR5KFavzJSXGfKrSZ9hDe6LRZaiS6QICZ9q7VX+aE2HniuVyZr0ysxMLm2N2In80rtKSJchgAAAERnoIAAAAAAAB0LwMfYVLv66M+YYwu3euX8rcDf8AJ9qNnM7EzkKcXYl5DrGzvAEuAOcmHz7dG+pIX4nBtuT/AFSvOvoYPlG1ynI3FTW8XgoQAAAAAAAAABmyxL7KxfWDny2xT7Qd5bypipc7Od1dzLgh0/GFHoIACu1pKZbPZYcnnEEzGQUY2tp9h1OMhxB3XkZD6wY0SXiJFhLc5M6Kh8o8CHMw3QYzUc12ZUXac58I3BwmVksxXUFPtvRlKRbn6t31lwSz0NOHyfuq49B59O32WtTDrUP4EfNGT/24p6oYLa2yUShxFmJf9UBdv28F9F9TBwuJSSVpeqqioudw1R0tN4iWzGEVjNPsLuMuUj4jI+MjzGOvNSkCehLAmGo5q7FOzKTkeQjJHlnK1yaFQ6AYO+GPTtpRQ1KV+uHktTKIm2nb8SFj1fwmfqLP9w8x8R8Qxy0djI9MvmJO98Lzb47049TbLM25gVW6WnbmRd/9rvDcvDoZ/n2r7W4UU0AiABUrTrT6Xsoph6pamiriK9ENDIMsrFO3ZkIL/c9BFnMSlIpEzWZhJeXTxXYib1/mciazWZahyyzMyvgm1V3J/Mxzotgtgqy2eq3amqeIxW03ogoJtR5GEZvzIQXLyq0mfYRb3RqNLUSXSBATPtXaq719E2Hnit1uZrsysxMLm2JsRNyeq7SjCWIcAAALLQFnVW2mT1un6RlTkW+q43XDzNMI/fcXoSX5nxXiPqVUlaTBWPNOuTZvXgibSRpdJm6xHSXlG3rt3JxVdhutE4LdGWKWBVtNYhLc5qhyQRRPTJ1v6LN7Z3oYSfqF/F6x8xZhlzbVTVcrEvDb+iF20ubvz/3b/DQa0+yMpQaJMxHfrjdh17l2ZtDd3jpNBBsJigAAAAB0rwGf9Pkt6wjfmmMMt5rl/K3A3/J9qNnM7E2AFNLsRE+1fa3ACIAGgeG97aEdTw3xODbcn+qV53YIYPlH1wnI3FTX4XgoQAAAAAAAAABnqwX7HxnWTnymhT7Qd5bypipc7Od1dzLgh0xGFHoIACIn2r7W4AV6aSuXTuXREpm0EzFwcW2bT7DqSUhxB6SMh9IMaJLxEiwlucmdFQ+UaDDmIboUVt7VzKi7TQHCPwbpjZPMF1HTbT0XSkU59BfrLgVmeZtw/wB391XHoPPp2+y1qodZYkvMZoyf+3FOO9DBrW2RiUOIsxLpfAXq3gvDcpgoXIpB+kZpMlJMyMs5GQA2dsJwxp1TKIOkLUH35pJmbm4eYneuJhE5riXxuIK7+YufQM9tHYiHO3zNPRGxNrdi+G5fI0mzFvIsj2ZWpKroehHf3N8d6eacTaKuba6CoehU17ETmHjoKKRfL0QrhLVGruzIRvM/V4+QZtT6BO1Cc/6JrFa5Pmv/ALU3r6bzT6laKQpsj/1zno5q/LcvzLuT13HPC1K1OqLWqndqOpInMV6ISEQZ5KFavzIQX+56TMbtR6PLUWXSXl08V2qu9f5mPP1arU1XJlZiZXwTYibk9V2lOEqRAAAAZlsNwaKstdiG5tGk5KKaSr9ZHOI+m/dpSyk/WP8Ai9Uuc8wqlobVy1EasJn64v27ubd4aS4WbsfN11yRX/og/dv4NTb46DfWg7PaTs2kTVPUjKm4OGRca1aXHl/vuL0qV/8AiuIYpUanNVWMseadevknBE2G6UylStIgJLyjOynmvFV2qfbhD+wyueo4r4DHbs5raX50xOnabU8zyOwOTA9FnmcAAAAA6V4DP+nyW9YRvzTGGW81y/lbgb/k+1GzmdibACml2IifavtbgBEADQPDe9tCOp4b4nBtuT/VK87sEMHyj64Tkbipr8LwUIAAAAAAAAAAz1YL9j4zrJz5TQp9oO8t5UxUudnO6u5lwQ6NcPdD8fkMKPQQ4e6H4/IAPrv8HI7WNf3cgAcA9M8HmAPmmVHy+cS+IlU1yUXBxbamn2HWsZDiDK4yMjMfSFFfAekWEtzkzoqbD5xoMOYhrCipe1cyou053YSmDdG2WTF2qKVhnoik4pz6N5mtcAozzNrPjT+6rsPPp22ytqmVhiS8yt0ZP/binHehg9rrIxKI9ZmWS+AvVvBeG5fwpgUXQowAHouIiHGW4db7immjM22zUZpQZ6bi0FfcV4/Ea1FVyJnU/Ve5URqrmQ8x+n4AB6Q0NERkQ3CQjDjz7yiQ222k1KWo8xERFnMxxe9sNquctyIcmMdEcjGJeq7DcbB1wKfTclV1rjeJiYrsPJLr7785G+ZHzeoXafEMvtHbnTK0tfF/+336bzWLMWA+WbqycUZ/u9uu43FhqYh4OHbhIR1tlhlJIbbbaJKUJLMRERHcRDLnPc9yuct6qayxjYbUYxLkTYevAPTPB5jicjH+EBOctYlWzXouLjyWKK/G0fQPmE1ZzW0vzpiQdptTzPI7A5Vj0WeZgAAAADo3gSzX0SwSXM+j490fGHfjXftT5hhlu9cv5W4G/wCT7UbOZ2Jnnh7ofj8hTS7D67/ByO1jX93IAHAPTPB5gDnph1wvodtzbOUx/wDJoU77rvvODbcn+qV519DB8o+uU5G4qa7C8FCAAAAAAAAAAM52GRJM0lFpyeNfMXD0/hNCoWg7y3lTFS52c7q7mXBDoUMJPQQAEvIdY2d4AlwAAFJmMugZtAvyyZwjUVCRTamnmXUkpDiDK4yMj0kPpCivgvSJDW5yZ0VD5xYTI7FhRUvauZUXac+8JywFmyCcszmQxba5BN3VFDMOOFloZwivNu486kXaFdh57jPcLJWkWtwlhR0/qsTOuxU38F4dDA7Y2XSgxkjQF/pPXMl+dF3cU3L1MHC4lKAAACVpam5jV9QQNNSg4coyYPEy0b7yWmyUfKpWYv8AfkvMdacmocjAdMRb+y1L1uS9eh2ZKUiT8wyWhXdpy3JetydVOglhuDRSdkTDc2jSbm9SqT+sjnEfQYv0pZSfql/F6x8xZhh9obVzVbcsJn6IX27+bf4aDfLN2PlKE1Ir/wBcb7t3Kmzx0me5DrGzvFTLgS4AADCtvPsYrPqaJ+AxNWc1tL87cSDtNqeZ5HYHL4eizzMAAAAAdC8DH2FS7+ujPmGMLt3rl/K3A3/J9qNnM7EzkKcXYl5DrGzvAEuAOcmHz7dG+pIX4nBtuT/VK86+hg+UbXKcjcVNbxeChAAAAAAAAAAGbLEvsrF9YOfLbFPtB3lvKmKlzs53V3MuCHREYUeggAJeQ6xs7wBLgAAMNWtWt0xZBTLk/qB4nH3CNEFBIUWVinbvVTyEXGrQRdhHMUWizNbmEgQEzbV2In80JtIWu12WoMsseYXP/a3aq/zSuw5x2lWlVPapU79T1PF47i70MMIM8lDNX5m0FxFz6TPOY3ulUqXo8ukvLJm2rtVd6nnir1eZrUyszMrn2JsRNyfzOVUSRFgAAB+pUaTJSTMjI7yMuIFS/MoRbs6GztgmGBM6X9GpO0956Yykrm2JnnXEQpaCJzjcQXL6xc+gZ3aOxEObvmaciNftbsXw3L5eBpdmLexJLsytTVXM0I7anjvTz8Teqi5vK59LeF5LMGI2CikIcZfYWS0LSd+cjIZHGgRJaIsKM1WuTSimywI8KahpGguRzV0KmgsY+R9QAMK28+xis+pon4DE1ZzW0vztxIO02p5nkdgcvh6LPMwAAAAB0LwMfYVLv66M+YYwu3euX8rcDf8AJ9qNnM7EzkKcXYl5DrGzvAEuAOcmHz7dG+pIX4nBtuT/AFSvOvoYPlG1ynI3FTW8XgoQAAAAAAAAABmyxL7KxfWDny2xT7Qd5bypipc7Od1dzLgh0/GFHoIACIn2r7W4ARAAo1rtr1MWP0yuez10nYl0jRAwKFETsU5doLkSXGrQRc9xCZolEmK5MJBgpciaXbET33IQldr0tQZZY8db1X5W7VX23qc6LT7UKstbquIqyrY03X3DNLDCTMmoVq/M22niIu8zznnG90qlS9Il0l5ZLk2rtVd6nnirVeZrUyszMreq6E2Im5CpCRIw9GGH4p5uGhmVvPOqJCG0JNSlKPQREWczH45yMRXOW5EP1rXPcjWpeqmR6wweLUKHoqDrmfyTJwUQf69pCsZ6DI7sU3kl6pH23aDuMxASNp6dUJt0nAfe5NC7Hb7l23eewsc/ZSp02SbPR2XNXSm1u7tJsv8ALaY0FgK2AAAGTLG7fa1scmCSlkQcdJXV40TK31nkl36VI/8ATXzlp4yMV+u2clK7D/qJ2YiaHJp/O9P4hZLP2nnKBE/pL2oa6Wro/G5ePU38sutdoy1uSlNqWjyN5si9KgnTJL8Mo+JSeTkUWYxiNXok3RY3wplubYqaF8PbSbxRa7J12D8WVdn2tXSninroLqIgmSJwh/YZXPUcV8Bias5raX50xIK02p5nkdgcmB6LPM4AAAAB0rwGf9Pkt6wjfmmMMt5rl/K3A3/J9qNnM7E2AFNLsRE+1fa3ACIAGgeG97aEdTw3xODbcn+qV53YIYPlH1wnI3FTX4XgoQAAAAAAAAABnqwX7HxnWTnymhT7Qd5bypipc7Od1dzLgh0xGFHoIACIn2r7W4AYstgtgpmx6mlzqduk9GPEaIGAQq5yJc5C5Elxq4vfcQmqHQ5iuTHwYKXNT5nbET33IQder8tQJb40Zb3L8rdqr7b1OctololTWn1NEVRVEabz7p4rTSbybh278zaC4iLvPSecb3S6XL0iXSWlkuRNK7VXep54q1WmazMrMzTr1XQmxE3IVgSBGlloCzqsLTqhZpmjJO7HxjtxrMiubZRfnW4vQhJcp9l5jo1CpS1LgrHmndlPNeCJtU79Npc1Vo6S8oztOXonFV2Ib+WNYK9J2LwsJOJkpuc1Q6kzcjVo/Vwx5vosJPRpP6Z/SPmLMMVtDa2ZrSrCh/ohbtq83toN0s1Y6VoTUjRP1xt+xOX30mV4yDhZhCvQMdDNxEPEINt1pxJKQtBlcaTI8xkZCqMe6E5HsW5U0KW+JDbFarHpei5lRTQ7CXwZoqziJerOi4ZyIph9eM8ym9S5coz0Hxm3foVxaD4jPabJ2sbVWpKTa3Rk0L93+d6bdhhtsLHOpDlnJNL4K6U+3/G5dmhTXgXoz8AAAJelasqKiZ1D1DS81fl8fDHeh1pV15caVFoUk+MjzGOrOSUCoQVgTLUc1di/zSduSnpinRkmJV6tcm1P5nTgb02DYVlO2lpYpurjYk1SmRIQRqxYeNVytmfqqP8AcPsM9Axq0djY9JvmJW98Lzb47049TbrM22l6xdLTdzI3k7w3Lw6GZ8If2GVz1HFfAYg7Oa2l+dMSftNqeZ5HYHJgeizzOAAAAAdK8Bn/AE+S3rCN+aYwy3muX8rcDf8AJ9qNnM7E2AFNLsRE+1fa3ACIAGgeG97aEdTw3xODbcn+qV53YIYPlH1wnI3FTX4XgoQAAAAAAAAABnqwX7HxnWTnymhT7Qd5bypipc7Od1dzLgh0a4e6H4/IYUeghw90Px+QAxzbdbfStldLKnc8cJUeolIl0uQq9yMcPuxUFcWMri5zMiE3Q6FMV2Y+FCzNT5nbET33IQNfr8tQJb40bO5flbtVfbepzWtBtBqa0ypYiqKpjjfiXjubbLM2w3xNoLiSX56TzjeqZTJeky6S0slyJ1Vd6nnmq1WZrEys1NOvVeiJuTgVoSBHGXbEMHCr7YItuYLQ5KqcbXc9MXEZ3LtKWUn66uf1S4+QVe0FqZWhtVifqi7Gps4ruxLZZyyU3XnJEX9ELa5dvBu9fJDoVZrRdF2T0+3TlGU4iFZK43nlLxnold3ruLuvUf5FxEQxOp1Waq8ZY8069dibE4Ihu1KpEpRoCQJRtybV2qu9VLb9d/g5Haxr+7kEcSY4B6Z4PMAeUVS8NHQzsHGONvsPoNt1pxrGStJlcZGRncZGQ5Me6G5HsW5UOL2NiNVj0vRdKHP3CewZ3rPoyIrihIF1yl31478Mm9apaoz7zav0H93QfEY2eydrW1NqSc4t0VNC/d/nEw22FjnUpyzskl8FdKfb/wAcDXIXwz4AAAP1KlIUS0KNKkneRkdxkYKl+ZQi3Z0NgqcwuKocspqGyqv0OzlqYSp6Cl0yNV8QwpSLkpdM/wDuJ5/WLn4qZNWPgJUYVQkv0K1yK5uxc+dU3Lw0F4lbaTC02LTZ696OaqNdtTNmRd6cdPia+C5lHAAAAAOjeBLNfRLBJcz6Pj3R8Yd+Nd+1PmGGW71y/lbgb/k+1GzmdiZ54e6H4/IU0uw+u/wcjtY1/dyABwD0zweYA56YdcL6Hbc2zlMf/JoU77rvvODbcn+qV519DB8o+uU5G4qa7C8FCAAAAAAAAAAM52GRJM0lFpyeNfMXD0/hNCoWg7y3lTFS52c7q7mXBDoUMJPQQAGutseB3OrWp/H1hKLRXjmC7iRBzRvGZbRnubbW3nQkuTFPTeZjQLP20hUmA2ViQE7KbW6V4qi6V/JnNo7CxqxMOm4UwvaXY7QnBFTQn4U1frvBjtss+Utc4oiMi4VJ3FFy0vSmj5/oXqTtEQ0WQtRSqjmhxURdzv0r5+hmdRsnV6ZniwVVN7f1J5Z+qGd8HbAhejvRaztmhlMw53Ow0ivuW4WkjiDL1S/gLPymWgVG0duUZfK0tb12v/2+/QudmLALE7M3VkuTSjP93t1NrYODhJdCtQMBDNQ8Mwgm2mmkElCEloIiLMRDK3xHRXK963qulVNchw2QmoyGlyJoRD2HA5kvIdY2d4AlwAAFNiYaHjId2Ei2G3mHkG2424klJWkyuMjI8xkZDkx7obkc1blQ4vY2I1WPS9F0oaKYTODHEWfvv1zQsK49TbqseJhkkalS5Rn3m1foP7ug81xjZrJ2tbUkSTnVuipoX7v84mH2xsc6luWekUvgrpT7f+OBriL6Z4AAAAAAAAAAAB0LwMfYVLv66M+YYwu3euX8rcDf8n2o2czsTOQpxdiXkOsbO8AS4A5yYfPt0b6khficG25P9Urzr6GD5RtcpyNxU1vF4KEAAAAAAAAAAZssS+ysX1g58tsU+0HeW8qYqXOzndXcy4IdERhR6CAAl5DrGzvAEuAAAqIAACXkOsbO8AS4AACogD+IiHYimHIaKZQ6y6k0ONrSSkrSZXGRkekjIcmucxUc1blQ4ua17Va5L0U0awmMFyLodUXaBQEE4/TZrx42EQRqVLjUZ5y4za5/u6DzZxslkrWpUUSSnVuipoX7v+WJiNsbGupirPSKXwl0p9v/ABwNahfzOgAAAAAAAAADoXgY+wqXf10Z8wxhdu9cv5W4G/5PtRs5nYmchTi7EvIdY2d4AlwBzkw+fbo31JC/E4Ntyf6pXnX0MHyja5TkbipreLwUIAAAAAAAAAAzZYl9lYvrBz5bYp9oO8t5UxUudnO6u5lwQ6fjCj0EABET7V9rcAIgAABbgAAERPtX2twAiAAAFuAAAQtSMsxLLUPENIdadStC0LSSkqSdxGRkekjIfrXK1Uc1blQ4uaj0VrkvRTQTCcwYXqIdiK9oCDW7T7ijcjIJBGpUvMz9ZPK18PuGx2StclQRJKeW6LsX7v8AOJidsbGrTlWfkEvhLpT7f+OHga0jQTOAAAAAAAAA6V4DP+nyW9YRvzTGGW81y/lbgb/k+1GzmdibACml2IifavtbgBEADQPDe9tCOp4b4nBtuT/VK87sEMHyj64Tkbipr8LwUIAAAAAAAAAAz1YL9j4zrJz5TQp9oO8t5UxUudnO6u5lwQ6YjCj0EABET7V9rcAIgAABbgAAERPtX2twAiAAAFuAAARE+1fa3ACGdaafaWw+2lxtxJoWhZEaVJPMZGR6SH61ytW9uk/HNRyK1yXopo9hO4MDtGuRNf2fQSnJCtRuR0C2V6oAz0rSXG18Pu0bDZK1yTyJIzy/1Njvu4Lxx8TFLZWMWnq6fkG3wv7m/bxT9uHgayjQzNgAAAyXZ3g62q2lG2/J6dcg5es//Pj72GbuVN5Yy9kjFeqlqKbSr2xYl7vtbnX2T8lkpNk6pV7nQYfZZ9zsye6/hDaKzrAkoKnclHVzHvVHGJuUbBXswiT5MUjxl9pkXMM5qlv52avZJp8Nu/S72Tp+TTKTk6kJS5865Yrt2hvTSvX8G2Emkknp2WsyeQyuFl0DDlitQ8M0lttBcyUlcKNGjxZl6xYzlc5dqrepf4EvClYaQoLUa1NCIlyH3D5H2IifavtbgBEADQPDe9tCOp4b4nBtuT/VK87sEMHyj64Tkbipr8LwUIAAAAAAAAAAz1YL9j4zrJz5TQp9oO8t5UxUudnO6u5lwQ6NcPdD8fkMKPQQ4e6H4/IAPrv8HI7WNf3cgAcA9M8HmAHAPTPB5gBw90Px+QAcPdD8fkAH13+DkdrGv7uQAOAemeDzADgHpng8wA4e6H4/IAOHuh+PyAD67/ByO1jX93IAHAPTPB5gD+XKdbebUy9EJW2tJpUlTd5KI9JGV+ch+oqtW9NJ+KiOS5dBophNYLETJJi7XFlckfelUW5fFSmHSbi4RxR+s0kivNszPQWdPu0a9ZS2LJliSlRdc9NDl0KnHjj4mMWvsS+Ves7TGKrF0tTOrVXcm7DwK5ZzgXWk1WbUdVq2qZgFXGaXiykUpPM2WZO0Ze4d2qW8p8neyVT4ruGZvXb+EOjScntRnrnzf9JvHO7ps/Km2Nl+CvZBRKW4mAkXCMyh7jOPmd0Qs1cqEXEhGjiK/nGc1S1tTql7XP7DNzc3VdK9TTKTY6lUm5zWdt/3Oz9E0J0MvFICSREUXcRZiIkeYrJaj94B6Z4PMAOHuh+PyADh7ofj8gA+u/wcjtY1/dyABwD0zweYA56YdcL6Hbc2zlMf/JoU77rvvODbcn+qV519DB8o+uU5G4qa7C8FCAAAAAAAAAAM52GRJM0lFpyeNfMXD0/hNCoWg7y3lTFS52c7q7mXBDoUMJPQQAEvIdY2d4AlwAAFRAAAS8h1jZ3gCXAAAVEAABLyHWNneAJcAABUQAAEvIdY2d4AlwAAFRAAAS8h1jZ3gCXAHOTD59ujfUkL8Tg23J/qledfQwfKNrlORuKmt4vBQgAAAAAAAAADNliX2Vi+sHPltin2g7y3lTFS52c7q7mXBDfGfyGo4zGfpusoiVPnnJDsK1FMGfOlREruWQxiWmZdmaYhI5OCq1eqZvI3OalZiJ+qXjKxeKI5Oi5+imOJ9U2E3RpKe/6IpmsoNGfHlbzsLEGXO0s1Z+ZN4n5aUs9PZvjPgu/ciOTql3ncV2anLS0/P8FkZv7VVq9Fv8rysyzDqlFMxjstr6yuopNFGZEtCVJUpN19/wBFwkHxiW/+ARI7fiSUyx6fzdeQ/wD9jQ5d/wAOelXsd/N9xfpJhv4P83NKYmfzGVrVxRkvcuLtbxiEZHsLWYPysR3g5PW4lJe39EjfM9W+LV9LzIEkt6sYqI0plFptPOqVoQ5GoaV/asyMQ0egVSW+pAd0VcCbl7RUma+lMMX8omNx9EJMICYNk7AR0PEoPQpl1Ky7yMRb4T4a3PRU8SWhxYcVL4bkVOC3nuOB9CXkOsbO8AS4AACogAAJeQ6xs7wBLgAAKiAAAl5DrGzvAEuAAAqIAACXkOsbO8AS4A5yYfPt0b6khficG25P9Urzr6GD5RtcpyNxU1vF4KEAAAAAAAAAAZssS+ysX1g58tsU+0HeW8qYqXOzndXcy4IdPxhR6CAAqdfUrTVVwbEBU0hgJpDqJRYkUwlwi0aLyzdg7MtOTEm/ty71avBbjqzUlLTzPhzMNHpxRFNdq3wJbL6hykTS0VHU5EqvMktKy8Pf/Is8YuxRC5U+39RlrmzKJETjmXqnsUmo5OqZNXulVWEvDOnRc/ma/Vvgb2v0rlIiUQcLUcIjOS4By527naXcfYnGF3p9uqXOXNiqsN37tHVPW4oNRsBVpK90FEit/bp6L6XmIohurqLmCoOJTNpHHNH9JtWUhnUn7sxi1NWWnmdpvZe1fBUKk5JqQf2Hdpjk8UUtUkwg7baeJKZXadUCUJ0Iei1Pp7nMYhHx7O0qZ+pLt/CXYXElL2lq8t9OYf8Alb8by7y/DYt3hSaRMZvLJqlrR6VAIIz95t4p8Qho9hKPF+Vrm+Dl9bybgZQa3B+ZzXeLU9Li5yfD5qRo0pn1AS6JL7yoSLWyfcolf7iHj5N5dfoR1TxRFwuJuXynzDfry7V8FVMby8yfDws6izSmdUtPZeZ6VN5N9JeJJ/kIaPk6n2fRiNd1T0Um5fKZTn/WhPb4XL6oZakeGRg9zvFT/wBbnL1q+7HQbzV3vPFNP5iHj2LrUD/tdrwVF9Sal7c0OY/73Z8UVPS4v8ktasvqQknI7QafjDVoS3MWsb+0zv8AyENHpE/LfVguT/xUm5es06a+jHYv/khJzl5l9EM4w6hxB41ykKIyPRxkI9Wq1blJJHI5L0Uix+H6ABbgAAERPtX2twAiAAAFuAAARE+1fa3ACIAGgeG97aEdTw3xODbcn+qV53YIYPlH1wnI3FTX4XgoQAAAAAAAAABnqwX7HxnWTnymhT7Qd5bypipc7Od1dzLgh0xGFHoIACIn2r7W4ARAAACUqei6RrSCVLqspuXTaHUV2JFw6XLvcZleR85DtSs7MyTu3LPVq8FuOpNyErPs7EzDR6cUvNfK9wB7K6iykVR0wmFMxSrzS2lXpMNf/Is8Yi9yhcqflAqEtc2ZakROi9UzeRSKjk5ps1e6VcsNeqdFz+ZrXaHgXWy0MZvy+Bhakg85pdlrl7txcrSrlX/y4wvFPtxSp25sRyw3fu0dUzdbihVGwNXkb3QmpEb+3T0XP0vMHzKVTOTRS4Gby6Jgols7lMxDSm1l7yURGLbCjQ47e3Ccjk3ot5To0CLLvVkVqtXcqXKfKPofIAAAJSWVVU8lUlcnqOZwJpzkcPFuN3f2mQ68aTl5jNFhtd4oinZgzszLrfBiOb4KqF2k+EhbfJMUoS0SaOpToTFGmIL/AOwjEPHsrR5j5oDU8L0wuJqXtdWpb5Jhy+Ny43l5k+G9bHLzSUyZkczSWnLQhtqPtbURfkIePk/pUT6aub4Lfiik3L5RqvC+ojXeKXYKhk+R/pGnyMk1JZi2ouNcDMTLwrQf+4ho+TZP+xMdW+y+hNy+VBf/ANEv0d7p6l/kmH/Y1MCIpvK6hlSj0muFQ8ku1CzP8hDx8ntUh/Tc135VMUJuXykUmL9Vr2/hFwUticKawWpEw/oNocCyrPeiLbchzK+7Sa0kX5iGj2SrMv8ANAVfC5cFJuXtjRJj5ZhE8b0xQs8qrWj56klSWqpRHErR6PGtuH3EYh40hNS+aNCc3xRUJqBUZSZ+jFa7wVFJkjIyvI7yMdQ7hbgAAERPtX2twAiABoHhve2hHU8N8Tg23J/qled2CGD5R9cJyNxU1+F4KEAAAAAAAAAAZ6sF+x8Z1k58poU+0HeW8qYqXOzndXcy4IdGuHuh+PyGFHoIcPdD8fkAH13+DkdrGv7uQAOAemeDzADgHpng8wA4e6H4/IAOHuh+PyAD67/ByO1jX93IAIWpbLqSrGEOCqqUS+asmVxJioVKzT7jM7y7DHblJ+ZkXduWiK1eC3HTnKfK1BnYmoaPTil5gmt8ACzieE5E0fPo6nolV5pbNPpEPf8AyqVjF2K7Bc6flBn5e5s01IidF8s3kUeo5OKdM3ulHLDXd8ydFz+ZrTW+CDbHSOUfgJUzUMGi8ydlq8Zy7naVcruIxeKfbelTtzXuWG7c7R10YFCqNg6vIXuhtSI3e3T0XP0vMNTCWzGUxS4GaQERBxDZ3LZfaU2tJ86VERkLZCiw4ze3DcipvRbynxYMSA7sRWq1dypcp8w5nzAAAAAAAAD9StSFEpCjSotBkdxkCoi5lCKqZ0LBKLRK9kBkclrSdwWLoJmPdSnuI7h0Y9Lkpn60FrvFqHfgVaflfoxnN8HL7mQpJheYQcjNJN1+9GoT92Ohmn7/AHmpON+Yh49jqNH0wbvBVT1JuXttXJfRHVfFEX0vMgSP9INazA4qZ3TlOzNJaTJpxhZ9qVGX5CGj5O6dE+k9zei+hNy+Uqpw/rQ2O6p6+hc4L9ITJpiTSaks4jIY0esuCjUu333X/RWlPJyiHj5N4qfQjovil2CqTcvlQhL9eXVPByLiiF1kmGhYRNMVMfNZ3KVK0+lS01pLtaUoQ0ewVXhfIjXeC+9xNy+UOjRvnVzPFvteau4WtZ0lXdqTU9ouetzaXHKodrLobWi5wlLvSZKIjvK8u8aJY2nzNNpywJpvZd2lW7hm3GaW3qMrVKmkeUf2m9lEv4595hYWwp4AAAAAAAAABnOwyJJmkotOTxr5i4en8JoVC0HeW8qYqXOzndXcy4IdChhJ6CAAl5DrGzvAEuAAAqIAACXkOsbO8AS4AACogCEqeh6PrSFODqum5fNGjK4vSWErUn+VWlPYZDuSlQmpB3bloitXgp0pymylQb2JqGj04p66TCdUYBtndTpiYmjZ3H07EpzoaX/iYa8781yjJZFm/eP3C6U/KFPS9zZtqRE36F8s3kUao5N6fMXuk3rDXd8yeefzNf69wMLb6JykRByNqo4JF55aVOZRd3KbSrl9xGLvT7bUmeua5/w3bnZvPQUKo2ErEhe5jPiN3tz+WnEwjHy6YSqKXAzSBiIOJaO5bL7Sm1pPnSoiMha4cRkZvbhqipvTOVCJCfBcrIjVRU2LmU+cczgAAAAAAAAAAAAAAAAAAAAAAAAAABm2xIjOlIu4j+sHPltin2h703lTFS6WcT/Su5lwQ6IDCj0CABLyHWNneAJcAABUQAAEvIdY2d4AlwAAFRAAAS8h1jZ3gCXAFdq6zuhq9hTg6xpSWTZsyuI4mHSpaf5V+snsMh3ZOozdPd2paIrV4L6aDoztMk6i3sTUJHpxT10mrlb4DNBTjKRNFTuOkL6rzSy7/iYe/kzmSyLaMXSn5Qp2Bc2bYkRN6Zl9vIotRybSExe6TesNdy/qT38zX+t8Eu2Sjco+xI0T2DReeXla8qq7lNs7l9xGLxT7aUmeua5/Ydudm89HmUKo2GrFPvc1nxG725/LT5GH4yCjJfELhI+Eehn2zuW082aFpPnI85C1MiMit7bFvTehUokN8JysiIqKmxcx4jkcAAAAAAAAAAAAAAAAAAAyRZ7g9Wq2km29I6adhoBevx17DF3KRmV69kjEBU7TU2lXpGiXu+1udf8AH5LFSrK1Sr3OgQ7m/c7Mn+fxebPWd4D9ESLJR1ezR+oIpNyjhmr2IUj5DuPHX3l7hnVUygzkxeySakNu9c7vZPM0ulZOJKWufPOWI7cmZvuvkbCSal6bp6XtyqRSGAgIRr1GWIdKElz3EWnnFGjzkxNPWLGernLtVS/y8lLSkNIUBiNamxEQyCOudkACIn2r7W4ARAAAC3AAAIifavtbgBEAAALcAAAiJ9q+1uAEQAAAtwAACjWk2eUPXEOxD1bS0umaTJREt9gjcTo9VZfST2GO9J1Ocp7u1KxFb4Lm6aCPnqVJVJvZm4TX+KZ+uk1vrfAXoea5SJoifxsjfO80sRBeksX8me5Zd5i60/KHOQbmzjEem9My+3khRajk1ko97pKIsNdy/qT381Nf63wULZaLyj6KfKdwaLz9Ila8sd3KbdxLL+0xeKfbOkz9zVf2HbnZvPR5lCqVh6xT73JD+I3e3P5afIxHFwcXARC4SOhXoZ9s7ltOoNC0nyGR5yFoY9sRvaYt6cCpvY6G7svS5eJ4jkcQAAAAAAAA+qWSmaTuNbl0nl0THRTp3IZh2lOLUfMlJGY+caNDl2LEiuRqJtVbkPrBgRZh6Q4LVc5diJepn6zvAqtIqjJRtYPsUzAquM0O/rYpRczaTuTtGR8wpNUt7ISl7JVFiO4Zm9dv4QvdKyeVGdufNqkJvHO7ps/Kmz1neDHZLZ3komFkKZtMW7j9NmVzyyVypSZYiewr+cZ1VLW1OqXtc/st3NzdV0r1NLpVjqVSbnNh9t/3Oz9E0J0NhEpJJElJEREVxEXEKzpLVoP0AAAAAARE+1fa3ACIAAAW4AABET7V9rcAIgAABbgAAERPtX2twAiAAAFuAAARE+1fa3ACIAAAe1ZWYWe2hQ5w9Z0hLJqRlcTjzBZVP8rhXLT2GO/JVSdpzu1KxVb4Lm6aCOnqTI1NvZm4TXeKZ+uk11r39HzQ81ykVZ/U0dI3zvNMNFl6VD38hHmWku1Qu1PyiTcG5s5DR6b0zL7YFEqOTWTjXukYisXcudPfE1rtCwSba7PjU89ThTmCK8yiZUvLkZFxm3cThf2i8U+2NJn7k+J2HbnZvPR5lDqNiaxTr3fD7bd7c/lp8jD0RDREI8uGi2HGXWzuW24k0qSfIZHnIWZr2vTtNW9CqPY6GvZelynmORxLpZ/Y3aXahEpYoqk42ObxsVcUaMnDt/zOquSXuvv5hF1GtSNKbfNRERd2leiZyWptDqFXddKQlcm/QnVcxtXZn+j3gGMlMLVanVErzKOXSszQj3KeUWMeyRe8Z7VMoj3Xsp0O79ztP4T3U0mlZNGNufUol/7W6PyvsieJsfJ7NaEs5gIaX0VS8BKmjIyWploso5ozrcO9Su0zGfT1TnKk/tzURXLx0fhNCGjSFKkqWzsSkNGpwTP+V0qfeOiSAAFuAAAAB+XFyABcXIAIme/sua/t0f8AAAiO0+8AO0+8AW24uQALi5ABEz39lzX9uj/gARHafeAHafeALbcXIAFxcgAiZ7+y5r+3R/wAIjtPvADtPvAFtuLkAC4uQARM9/Zc1/bo/wCABEdp94Adp94AttxcgAXFyACJnv7Lmv7dH/AAoVX2ZUDXjJtVbSkumJmVxOuMkTqfc4Vyi7DEjJVadpy3ysVW8L83TQRs/R5CppdNwmu4qmfrpMf01gjWJ01N3JwmQxMyUasZqHmMRlmGf5UXFjbeMJubtrV5uEkJXo3erUuVfz7XEDJ2FosnGWMkNXbkct6J4J73mx0JBQcvhm4OAhGYaHaLFbaZbJCEFyERZiIVV73RHK563qu1S3MY2G1GMS5E2Ietxcg4nIiZ7+y5r+3R/wAACI7T7wA7T7wBbbi5AAuLkAC4uQAf/9k=;" vertex="1" parent="1">
          <mxGeometry x="552" y="212.5" width="65" height="65" as="geometry" />
        </mxCell>
        <mxCell id="L4tckfG0INi3qkzBc33O-10" value="" style="shape=image;imageAspect=0;aspect=fixed;verticalLabelPosition=bottom;verticalAlign=top;image=data:image/png,iVBORw0KGgoAAAANSUhEUgAAA5gAAAOYBAMAAABC5kGOAAAAIVBMVEUrPFD///+8NjfU2d7YQULm5+flgYGCzb6+w8hsYG3mras0kYBhAAAgAElEQVR42uydv4/jxhXHD0Yal4vVKImq4CAscNctvLriqoh6IhJ2hLQCsp1sSoXawEgdIH9AcEiTUj5qi/0rrR8rraQlJQ45P94jv1/YxRg+nG8//sybecMhP9zsoh53kT+Mt4PHp6+L+TxJEjpKGIbzxcv31fZXxDX58x4NP9TqT7P5++VlHm7Idbd/nWf/j5L5y/e3XwqY3IY3o5fnORVMt7vBOl+sYsBkN1RPz1tEpJXtv78FCpgshvHjzdNzQpoYjxIEFC6+P8YKMD0P13PremoNqGLW/yvMX3o3CjC9Fcn48WtCFZw8FXS92n0BTF/DpzmZTbApoIDpYcXzbGB2zZxvFzFgOh2upeyStcy/PyrAdLN8Hb0kNqQ81jNc9BRgWh+q0TPZtPKtevZiwLQ6VOv5NSAnCWi+AkyLe5Ftm8dhFjFgWhquF7BdtzC7O5xiYD4eHxwdepT8hvG6VgbkIeulEPsfzutQCMz40RPKg52AaWqoviTkMeEKMI0NO4nrYnm+sA2XgGlm+ByQ/ywA08Dwya+Vb6VzBZgVhyohNglXCjDLD2+eiVUW2wY8YJYYxk8JMctWTsDUH6pnYphFDJjaQ4Zanm46AbPwUH0htpkBptbwNiXGWQCmXsuHc7pMG0IsYU6IfWYsYTJ8MCQlAYliHE5fHbJdxeauagEzbxh/JSEJaAmYl4fPJCgzwLw0TCWxpG4EmLlDlZCwhDFgZg874liuswTMrGGHxym0Nk3AfD+ckMx0f4kB82z4hcRmEQPm8VBG1yd3URsD5tFQMsvtohYw98PbhIQn7AHmbiif5ZrmPWBuhqMasOTRd/d/nqmSbh1gBuEKh9O39WC5dbPhMONRbVju3WwuzCeqUQJaNRlmh+qVjZtNhVmHPcn5TKsaCrNTn3p55GYzYdbOy52b902EeVtDL/cPHzQNpkqopgmbB7O2LImipsFM68uSgqhZMMdU6wybBHNCNc+sOTDbQd1h0rQht8DiJ2pAfBxvuofZDJZE902AWcvGT37zoN4wa9r4ydtu1hpmSk1JENUd5oQalFm9YXaCJsHsTusMs1ksyfWFP6cw63tSkr+krS3MtNs0mBTVFeaYGphBPWG2qZGZqRrCvKWGZlVDmElTYYZx3WDGaVNZUhC5uorr6jyzTQ3OtF6H043rFpx2gpZ1gqkSanTCuEYw02az3Byg1AZmmxqfqaoJzA5YUndVE5gJWO53m+JhjkHyreUuG2Y8AcfXJq18mCNMsvvE4mE28Awzd6IVDhOT7NlpmGSYzW7jnbcOaCkaZgqEJ/sTwTDjL+B3ml9uxN4CE/oKfQeNIIGH05hkMyZaoTCxks2aaGXCvMVKNitLkTAxyV6YaIXBxCSbs9ucyYOJlWxu7sXBxCR7sUcrCiYm2csTrSSYt0B2eaKVBBOT7JWJVhDMJ/C6nJUgmAlwXdlsioEZP4DWtfSlwMRzsgVi4/1dNs4zsfopuNkUcDgNMQtlez2ePUysfoo33JnDjMc4+SrWBxryh4lJVqfhzhsmVj8aayDFHCZ6Pzp9IOYwsfrRyB1vmDj50tuecIapIKZWupxhPnQBSCtDvjBxJF2yRcsQJrYlJbYnXGFiW1IiS6YwIWZpNdndApugKVtqe8LycBrbklIJOcJEv6CCmtxgQszSTT1uMPEergqdA8XNTDApH2Zm4unKKhnwgjkCkSq55wQTYlZUkxNMiGmm384BJjrslRe0fGDiiTxDajKAefMfwDDTb2cAE2KaUpMBTDR/TC1o/d8Cg5hGsuRwOI2lrKGqqRjAhJiG8m8GMCGmOTV9w8TjlQbV9A0TXVlzC1rlGSbENJieZ5gQ06SanmGCgPkOrS+YaP4YTd8nTIWfv9n4hIlnZQ1n6hFmgh+/2dz5gwkxLanpAybENJ7Q1y0wtNgtZOXpcBofrbWQ7XfG3cOEmDbSXXqBiU6enZ6eD5hosVtKzwNMdPIsZegBJvYltuIeJhoG1jJzDTOGmPYaB65h4gVOFrN0CxMPy1pMELmFiYaB1cROYWJfYjV9pzDx87YblzCxL7GcqcNbYFj+WN+dODucxvLH/u7EFcwYB5nW8zflCCZeFOMgPUcwsS9xkJkbmGjLusidG5hoyzrJygVM7EvcpMRFan2YWP44WwLZh4nlj6MMHcDE8sdZF8g6THR/3HWBbMPE8sddBtbNxM/YWbq2YeLwy2Gmlm+BYZZ12QVSVg+nsfxx3QWyCLN1/T/g46dPn/6PnOfbt48fS2w1bcK8sskMPn1ALuRHTZ53NmFemWWB8nq6WjRn9mBe2WT+BagK5Jtmt90WzBFYGsj/9LrttmBe3GQGwFQw2vOsDZiXHzGAmEXzB92tpg2YHYhpZk2r1W23BPPiSeZfAcnKinZoCSZmWQ/zbGgH5uVNJhAVzw8aMIOlFZgPKJk+iubACsyLs+zfgcjS5oRs3AJrE9Y/Xnp6SwuH02PA9AMzsgAzAEw/HT0yD/PyLIudibW9CdHUOMwUMH3BjJRpmFd+w/+CkDWYZNrMNmB6gxnMDMNMC8P8cfQTkpF/lDfzdZ41BjMoDvMGycqfy8PcHVEbg3ltlgVMLZg/aMKcGYV59dnnD4Bp0czdPGsKJsFMn2Z2ewZhXr9hAjNtwtzNs2ZgFrjHBzOtwoyUOTMDmOkXJpm7BdYmmOkXZjA1djhd4B4fzLRr5sAYTIKZvmGSKZgFZlmYaRvm1BDMMcz0D3NoCGYAM/3DJDMwC119h5k223m757pMwCwyy8JM6zCHRmAmMJPDNBuagFnsBSOAadtMWhqA2QJMFmYGfQMwU8DkYWZUHaYiwGRh5uEhvQow24DJxMz9Q3oVYKalYf7pX43Pr0bNjFTVW2BUGuYfAfOfJs3cf7uv/OF0m2CmeZjlzNwealaB+QAzLUyzJc0cVoSZwEw2ZlJYDWbh98vCTAdmvn4mvizMMcFMPmZSvxLMFGZyMjOqBJNgJiczqQrMNsFMTmbuvqdQEuYYZvIyc1gBZgIzeZkZloepCGbyMjOIS8NsdWEmLzO3m5NyMFOYyczM7eakHEwimMnMTLopeQusQzCTm5mb13WVOpx+gJn8zByWgxknMJOfmaEqBVPrs+8w05GZ1CsFs00wk5+ZNCsF8wFmcjRzUAamVsmEmc7MDMvA1PuILcx0ZSb1SsCcEMzkaOb+sS4dmAVe5AQzvZg5KGFmAjN5mkn6MDW/+w4znZlJ99owJ12YydTMvi5MzZIJMx2aOdA282eCmUzNJN1bYJolE2Y6NJNWmofTbYKZbM3sa8J8gJl8zYw0YSYwk6+ZpLRgPhLM5Gsm9bRgTghmMjZzpgNTd5cJM92aOdCCmRiAeQuYv1oyk5QGzBEZgImYfQ/QedEsCnMCmAzf0HVWNIvCHAMmbzOHxWHql0zAdGtmqIqbSYDJ20wqbmYHMJmbublyUhDmGDC5mzksfAssBUzuZkaFD6cDwORuJhWFqQgwuZuZ+ZmTLJhtwORv5rQgzDFg8jdzWBBmApj8zQwLwiTA5G8mFYPZAUwBZgbLQjBbgCnBzH4hmClgCjAz6wNEGTATwJRgJhWBqQgwJZiZ8TWp9zDb/GH+JCcWzZwVgNkyBbMzN5xlbWAaMXNYAGYKmDLM/Kyu3wIjUzDbgGnVTLp+ON0hmCnDTIqvwpwAphAz33/n7R3MMWBKMbN/DWacomZKqZmfr5pJMFOKmXQNZgcwxZj5ugLKhzkBTDFmvq6A8mGOCTVTjJn9KzBTmCmnZkZXYBJgyjGTLsNUgCnIzN0KKBdmm1AzBZk5vQizBTMlmdm/CDMFTElmRmcwT84zS1yZBkyPZoaXDqdHhJopyUy6BLNDMFOSmZsL1Lkwx4ApysxgdgHmA2DKMnOQD7P8+gc100/N3LxCJs9MgpmyzKR8MzuAKczMzUv0cmBOAFOamdNcmGNCzRRm5jAX5gPMlGZmlAezwmIWMD2ZeafyzCTAlGYm5ZnZIdRMaWbSKgfmBGbKM3OWcwusBZjyzOznHE6ngCnPzCgHZoKaKc/MMAcmwUx5ZlI2TAWYAs2kOBNmGzAFmhlMM2G2CDVToJn9TJhjmCmxZg4zYSaAKdHM/RtkALMGZlKWmZUWs6iZ3szMhNkhmCnRzP1y9gRmGzBlmjnLgNkCTJk1c5AB8zfUTJlmRu9vgcUJzJRp5l3G4TQBpkwz6T3MEWAKNfP13U7HMNuEminUzOU7mBOYKdTMoP8O5hgwpZr5DmalB4AA02vN/PzOzAQ1U6qZ4TuYBDOlmknnMG8BU6yZu73JEcwOYIo1M1iewWwTaqZYM6dnMFswU27N7J/BHAOmXDOHZzBTwJRr5uezW2AJaqZcM7ffRT06nCaYKddMOn3SoAOYks1cncB8AkzJZs5OYE4INVOumdunLd9gjmGmZDOHxzDjFDAl18zBCcwEMCWbuXlT6ds0m6BmSjbz7qRmEsyUbCYdwxwBpmgzN6+dPcDsAKZsM1dHMCeEminZzM1G8wCzBTNlmzk8gvkAmLJr5uDoFlgKmLLNjI4Op1PUTNlmHsNMYKZsM++OYBJgyjaT3mAqwBRuJsUHmB1CzRRu5vIAsw0zhZsZTA8wW4Ap3UzArFHN7B9gjlEzpZs5PMD8DWZKN/PzAWYCmNLNDA8wfwZM6Wb+zt7ZPDeNpHFYA0VBbnRiGfAJE9u16DRJcNXWnLBxOHCKnCjF5iYXs4c5sYcpihvZKWpnb87sbkGO8gT+zpW/JVt2JHW3+u3Wr4sKofgI+OHpR936cG8Bs4dm6m7mAqbdg5nam+nO7gKrAab+Zgazk9PngKm9mV1fLkw0s0gzf57BPIOZ+jfzGDDNMXMO8wVg6m/mmxnMGzRTfzNnMPlvAYOZ6s0cPw1xDLMHmPqb2ZvC9ADTADN702n2tIdmGmDmwQRmDWaaYGYwgXkBmCaYOYVZBUwDzOz6E5jnaKYJZvqTu8AqMNOEZh5PTk4DphFmTmGeAaYJZr6awLzRrpmnBCi1vdm7sG8fxZn5RipMeWaSGKf/ur4e3jqWACOfro2d6z+e8RJo2WOY7wAz+3i7jU2+cQcw1Yy/WTJGgwvBZJrtaddM5eORFJbWDl2YBps5lAOT78BoDNMGTCJicqrZHsNsAGbGcSILJlc1v4Uwaw00k8gsa1n/5YWJaTbrkMaSK5o/hzCrgJlx7MmDybHW7PohzApgZhyPU1D5+nF9/FvuEVDHs7wK1pkZx5MUMPMeBPPAZJaQmxPKZWYamAc5fx8nzBeAmXE8TAHFLd7M4xDmDWBKgKnAzBCme4NmEjKTY9H/RiZMmJnDTA6YTgjzHWCa0czXYTMB0xAzxzB7aKYZzWzJhAkzizWzB5iSYKo4B6YpTNcW+i0yJ6b59XRhnmrYzD3R18AuWNppfvmPNGF2ZcKsmQrzhKiZB9YFYGaE2ZZpJg+DwKppCNOGmYnXjUiEiWYWDNO3qphms06zJ4AJMyU3s+tbFTTTFDM7EmGimQXDPNbSTKwzAVPSOvP6+mP+cT0Ut848RjM5zfzygXcMdTCzWgYz+VnGafLBPMM0G4HJMpp5/4OIIQjmG8DkMlMIyw/vxTTzlZYw6TRTDMyPoswcoZn5zRQzy0bnWT6YLzDN5jeTFkzHugHM/GZ+EQRzKKSZb6x3aGZ+M8XD5Jtmb9BM9Wa+FwTzHaZZ9WaKgdkCTFpm8jB4jWbymPmBlJkyYZagmeWBiWYWDrMHmJTM5IKgJUx5zWRoJppJAmYP0yyaiWaimdib1XWaxd4smolmAib2ZtFMmIlmYppFMwETzUQzYSaaiWaW9V4TwISZ0pr5TMhoWGimEJhcFATBfFbOZv4q6Ot/IgWzWDPJrDP/Ifxt/6iaWYJmioL5Iy2Y5WzmlZkwy9nMSyNhlrSZV2gmmolmoploJpqJZqKZaCaaqe29JmgmmolmoploJpqJdaaezeyimaY0syEIJppJoJkNiWaimZqaiWaSgDlAM01pZksQzJI30845xDazJdHMEjUz9z9JsJkjNJPfTMNglruZef9FvwiF6QiCaUozmRozTwTBPEQzTWmmg2aa00zH6qOZ+d8/k1oz+9o08500mJ/zwpyb+Z1EM/clmslcZuZ4KKyZos3cldZMY8dDos1sioI5LCXMS2IwK9KaCTMLbqYomCU1k1YzO6JgltvM7ySm2Q7MVNlMsWb6VhXNNKWZvnUOM9U18++CzayhmaasMwPrAmaa0szAOkUz1R/Nimmma3kw05R1JhMFE81U30wGM83ZmxUFE+tMAs0MYXZhphnNbDDLHaCZZuzNtoTBRDOVm+kwi43QTDOa2bIFwUQz1U+zTgjzEM00Y53peBbrCzbzPpqpppn7Icxdwc20rk0fQ5p7s01RMCNmlmmQWmfWQ5gVwc0s0yDVzE4Iswozc49LajBropsJM9U00w9h7sFMM5p5GcK00UxuM0nszX4TBhPNVG5mO4TJ0EwzmumNYXZhpqpmipxmGxOYAzTThHVmy/YsT8wJTTRTdTNbjFmeN0AzVR/NnoiC6Y5gpgnrTGdiZh/NNKGZdXEw0UwaMM/QTBPWmVOY5zDThGb6E5g1NNOEvdkpzAuYacI6M5jAfIxmmtDMKUwPZpqwN3swgel20UwD1plMHEw0U3EzGzOYAzRT/73Z1hSmN4KZ+q8zHTeEGf5Ru2im/s2s25OT00JgoplEYFbQTP3XmZ0ZzCrM1L+Z/gxmzdxm7pRmbzYQCJOkmffbjL0dEm7mL+JhMkOb+XXyQtnDUjSTiYNJ0cwHs1dKIk1Ce7MLmF0jm3kwv239UQnWmY0FzJGJZt5bPoRgaH4znQXMvonNPFjCfGL+3uy+QJj0zIw99MT8dWZzAbNiYDN/iML8ZHwz6wuYVQPNvEx+co+pe7O+QJj0mhl7DNMjyWbyjhNBMD1PyMWW1MyMP/TNltxM3sFv5jfPnZ6cFnFJF9UdA7lHQFdkYHoiYVIz82781RrKbSYlmPxXAZFrZjEwyTSzZS/NHBln5r1CYJJpprOE6f7TuGauwHxveDOdSDP7aKbezWxGYFaMa6ZeR7PczexEYFaNg7lTCEwyzfQjME+Na2Z8B+ix6evMzyJh0tvOi+XsiWV4M70ITP73kCIH86rIsybKmxmFyb1rQM/MB0Wez1RtZsuOmjkyzkzLLfBKA9UwnRjMvnFmRs9Oy5plyTRzfzbNTv+0XfPM3HFlH8vSaWZ9fJpvdnKa//Q0xYugH0i/OI9MM/0YzD3zzLSs/0meZOk0M4jBtA00c3p/wp7MXWMqzXRjMLkvardojmu5JwCINLPB4jAHJpopfRBpZmsF5shMMwvaZjo9yjfaYmA6KzB51ybDUsKcN/Mo7xADs74Cs4JplsNMXpiczeyswKzCTI5mHqmdZoMVmDWYqaCZR3Jgci40G2imQjPZCkzeheZTNFNZMxurMO0RYBbfTDHTrLNm5iFg6trM5gLm9Hym51YAU9dmNqcEFyenPZdzbfISzVTWTH8NJufa5DmaqczMYA0m75Od0ExlzfTWYXYBU8+92Ya9DpNzbTJEMxU100mA2cfhrJ7N3E+YZis4AtKzmc0EmFUcAem5zvQTYPJe0/UUzVTTzM8JMLmfOotmqplmvSSYA6ipYzNbdhJM7puHnqKZCprpJMLkvt+kfDQpNLOeOM0KeBxi2bYOKKwz/QjM+clpMW9X3Hj2/Fru6/flWtr4MtSxmcGSYASmkHe4DUev0Xgmb/x2JG8MstaEwt5sOxGmiPfRlD9+lzd+S/kCvKTUzIadbOao5DB/z2wmgWY6G2D2YWZGmASaue8lw6zAzIKbKcDMzgaYNZiZ00yFzQw2wDyFmQU3U8A0294A0+3CTN2a2bA3wRzBTN2a6WyCqcXhLJq5es3IBpjnMFO3daa/EWYNZurWzGAjTA9m6rY3622EqcPuLJq5eplBBObybBj/fX1oZtHN3A9/c+LJaREPt0Qzi51m61tgVmGmXutMfwtMG2bq1Ux3C0zu5yGimYVOs5NHU2yEOYKZOjXT2QqzDzN1amZzK8wqzNSpmZ2tMGswU6d15sFWmAxm6tRMth3mAGbqszfbugXmIczUp5nNW2BWYKY+zezcAvMCZurTzOAWmB7M1GedyVZhxk5Oex75IyA0M3Yyc/PJ6fHP9GGmLnuzswcAbYFZgZm6NLN5K8wazNSlmcGtMBnM1KWZ3u0wBzBTj3Xm/Jkx22D2YaYezdxPYWYVZuqxN9tJAbMGM/VoZpACJoOZejTTTgNzBDN1aKaTCuYuzNRhnVlPBbMKM3Vopp8Kpg0zddibdVPBpH0lNCkzL9U1s8ESYK6ez6T+aANSZh6oa6ZjR5BtOjkdjjOYWfCmQY5mNr10MGswM6OZNnPzfctvZpASpgczM5rJO3LA9FLCJH03PEkzi4fZstOa2YeZxZqZvZn7ac30qjCTupl+apinMJN6M9upYXoDmJlpB6hwmOP3zEwJ0z2EmZn2ZnnHp6ww/+KlN/MMZtKGeZwBZg1mFgpzmBVmkAEm4ccIkzLzB1Uw7QwwCb8rBikz7wqCaWWE6WSCeQYz08C8L4bl46wwj71kmAnnM0k/qIKUmZYYmE+ywgwSkG04OT3+YRdmpoF5JfhgNiVMlgkm3Uv0aJm5I3iWTQfTyQbT7sPMNDCt/wg9lk0Js54RZg1mpoJpfXU5Ub6NvWtn+mRmgOnBzHQwLev6A8eX/LjyBqzpk5kBJtmruqiZKXikT2YWM/swkyrMemaYNZhJFWaQGabXhZlEYbLMMKlGE2Y62WFSjSbMPM4BswYzacIMcsAkGs3Sm9nwcsAkGs3Sm+nYm2Emn890yT56tvRm+mwjsi0wbZhJEeZBLpg0n9VVdjNbLB/MPszkhvmg7f11KBJmMyfMKszkhflgcmgyFAjTzwmTwUxOmDvrlxLwwnTzwhzATD6YV2v3kvDCdFhemLuAyQVzJ+kqHz6Y9dwwFe7ovf7z6M+fkr55Esdp8pf86XtOmHcTL/PhghnkhqnuiUCvGKlxkQ/mVcI9e7eMP1Kc/soJ81ARy7AMLqXBznPBXN5Y/TDtb2lsf2H2OWCqWpy49ngwd/Zh8UkBI/b1Fl8zdiyYGmbiNetcZnY4YCra0dufvazhWPlEMlK2+HrTD/Ov6brVHDB3kq9z5mmmywFT0eIkYLNX001+xeevtbgP0++2MeaDuScGZovxwFSzo8dWsU1f6ogsoj4s/vTo55Gx+FH0fg11ZtZvgbn55LSyW6gdOzK9uhFJpR8Vzf/7LL4teVYowPSTGKW60mDyQxWLkyZbSJgwxdoKBotFU+YB0C0XGfDBVDHPdmJzXmRinQoqNJerAq65Ov8r7HEtTcTAdGw+mCoWJ/6KinOKi3lWzlFswofFRBD+YPn3eylx0yDFLJsfpq0EJktkxlacsdcwZ/9sTUR7g6h2DjPvCd7Oa3PCVHHXrb+YTRNf7bkuy7VLxs8W323+nxKbAaa/cPn3ey5xo33bMcr6m39lhVlRNM2y5ZIhtlnA4ge4OZSMzteRaM5rnLikjS00u/JOge1sPTD0eGHuFQ+zzhJWJhG2Kypl+2zL/LryXyU+GUcXafJOTt/ZZuYBN0wFm0DNGKoN2z8rM2Xaz5Z/yKYgJzRz/NPVPDBnd8mnv2zkTopZlgdm8YsThyWWbNvR0P/bO3vmuI0YDM+kS4nYm0JdLIpjqzvbSqFOn4W6tWZdqJNiq7h/4VaVyqRknNN4+CtzX/KRvDuK5GF3sbsvJjMRJH9IeIwl8AIkeykDjX8TuiosbelpSVcG9VmPBa2/TeM+9+EwDxhgehCBmvioGvhGi7IabnT9qPpnVa+ZWySh5Vf/dbJr2TY0KRhgehCBbqlSlpDeMNToLe5tOXDXD/CNv6jWZvZoNDnXZjPigOnjnF0/WWltHNYoajtdKdcSbv0MJ72hgG6IJ7ZY/tI6l+aA6UEE+vbCBXPbxXNDEVubt2yaXq4qImq5xt4NXoPuY1n7ccUA08P6bE71q2Kt268XL43jd0NPqRqX3vUUreR+fYr6fJGlj41v0H1ivqEOMNvnmcbTu8GuZC10fW5+f6fOWR6qNkadhtNz57MHfTYvyx9l+VAubP7hs//j+RONjxa/pPbR/P/Pv/Vh8ZXVJ36U1T/+ofJba3/ZQ/ll/fs7feRG+Wv7+s+J4YEp+c0Y3uz8zbt3j488SB8f/3lpxXLzuy8GwJT9DkafQLNzFsvOO2xfMMGU/Q7GNOzCcMF8hWD6tiM2mKJf25eE5YoNJs5Z33Zg+GAqhNOvjRhhop4VcMqywXyNgPquZflg4pz1at9YYcp9NUY6pywfTJyzvmtZRpg4Z33Xsl1gdphnSn4wdBKnbEdGpitM6Ab+7IQdJvRZb3bEDhPnrC9reVrwUJhe9g1gc8WAH6ZBWP2YtgAT56yvU9ZGZv6OwPqwW2MDptQXSkVuxgpM/R6RdW8HdmCaPYTWvRWWYJo7xNa1zQcmVmB+QnB9nLJ2YGK13bl9swYTraaXU7Y7zI7zzC13Q8EsN5kdoPQfTi9dhNetkUWYaDUdlz82YaLVdNxkWoWJVtNp+UN2YWJ7xKH9YRkmtkcc2sgyTLSa7uyQLMPEVNNhk6ltw8RU05VlxjpM/QlhdmP7yn5mQm131WTaz0xjUAK5KX+UC5gogdyUP8YFTJRAbsqfATD7zDOX7m8ItRv1pw+U3sNp4/WtmmmZdgQT98Q7Un+cwEQJZL/8cQZT3SHadi0ndzAxCLNsJw5hogSybOQQpnmPeNu0A6cwsQtk1QqnMDGjtl/+OIOJJxxY70scwsSansXENK5hojuxV/44h4k7FayZdg4TdyrYsn01GOaAeebChXBgKzH7UNh5OL100Z1YsUPyARPCgTXBwD1MD++JT0Uw8AATY01bgoEHmEhNfsvIF0xoepaUPB8wsXTJbuQPJjQ9ZjvxCBO33vILBpCi9hoAAAU6SURBVN5gQtPjtQPyCBO3hPHayCtMbBxwK3keYWIZiFXJ035hIjX57K3aFebg4fTSxSSMLzGHU9h10+DZRWryXTG9w8RVky0x/cNEavKVsv5hIjW5ElMATKQmW48pACZSkykxJcBUSE0m8UcCTKQmT2KKgAkZiEmVlQATCi1PYsqAidRkSUwZMJGaLIkpBCZSc6fEVKJgYhtoFxsZJpg7zjN/up/AZKhd7BB21uH0yj0FlYGm5cF8DSrD7ITkwcSdJ8MsI4kwcVPYILsVCROpOcRykgkTN4UNTUyBMKEcDBby5MGEqDdYyBMIE/cR9bUDEgsTol5vIU8wTI27b/sKeXJh4mGX/doStrDbgYn2pId9FQ4T7/DrkZiKGybTPBO3ngxqS9jCzjqcXrmogXq0JdJhYrDZzTIKASamJ91FWfEw8aawTtUPhQETNVBnUVY+TEi0nUVZ+TANDtpO1U8YMKEDvaj9BAQTOlC7ca2wu4GJWVh79WNCgokn0bbZhQoLJmqglhaTMc5OYGIfqO2QDQ2m/ghqm21fWYPJPc/ETnQnHc9K2C3CvAG47TpeaDBx0LboeKHBREW79ZANEKbBQbtmt8HCxEG7VslSsDCxRts8ZLUOGCakg4ZcEDJMHLRVO1NBw8RBWztkTeAwcdDWNNmwYWpsHawGX6HDxGP1lnZoO85OYEJxn1k2igMmLpsz6cc4gGlrnll9tDD6k5/Sj804GxcwDV6vkOtoYJpXp4nDHJl4YKben3xVEcFM/LI52/qJCGbSg+qZjBcVzIQvm4sOMyqYOtluc2Kig2lSfYLpmYoRZprv2TxUJkqYKYq0OZlIYarkiqBMq1hhpie5FxQvzNSKoFuKGSYlpQTtk2OYDuaZVTelAcpc+XEVWFfD6Zqbjq6Xj0zsMHUqJW1WmPhhplLSTlQKMNN47OWtMknATKFBuSCTCMz4G5QzSgdm7Jr7IaUEM27NPae0YMZMM6fUYL6KluZyRzYlmNEuBWWa0oOpb6KkmRWUIMxIaU4oSZhR0pwo7RGm43lm3d2LjWbhK5JehtMNdy86lgnDjItmQWnDpIiumwUlDlPFUwUVlDzMWGrabEKAObulKAKaWaEAc35f9XXwOm12pAxgLtzQVff5Ih5gqhjWaecLsoC5cv8LeK9AG8Csu0+hsrzSBjCbbqA7e1/JAOaGG/5CbFEKEaGTB5P2gitqs4IkwfQ4z1xzg2s48yMlJHTeh9Prrg6rqF2UPoC51Q2oDPpLG8Bsd0Mpg7JCGcB8yQ1DDco1GcDs4AagH5xJiZV4mOLXDxbDS8Ds5sruUfzdgBAkTKMEH7UXwmIlHqahG6HJmfvcWQ8UptFGpIBwpZUGzP4uHYurg7LvJDNW4mFOcT6JS0sDmINdSYOUaUMiOlbiYQpSEMakhMdK1Dxzo0vXX2RMu8hIj5V8mCIKoXnhA5gcrqYnvzjH88IHMJlc5bHpvDIkOzihwSTa84TzqgggOKHBnOL0UAldFoEEJzSYRMd3zktYAkxbLt04zM58ElZwQoNpjHLVdl4eaQOY1tvOGweNynhCYUQjcJgz4epPq+mZj5fNCGC6ce1NO6dtJYUWjcBhziR4C+l5WYYajcBhkrp+OmdVYMcBRyNwmFNX0XHJlJ95OSEVOEzx88wO7tP9ruXt/feAf/yAhtMd3Ol/x8MvoJfjD4YIMIW417PzVtN12fcSmo/H05TUgf/4ccGsuqq8P+9w6Gbn94u6VUX040cHc5po0898KMvy/kuTajZleHk//dL3SM7Vhvs/ijjG6K1nvSwAAAAASUVORK5CYII=;" vertex="1" parent="1">
          <mxGeometry x="690" y="220" width="50" height="50" as="geometry" />
        </mxCell>
        <mxCell id="L4tckfG0INi3qkzBc33O-11" value="VS code" style="text;strokeColor=none;align=center;fillColor=none;html=1;verticalAlign=middle;whiteSpace=wrap;rounded=0;" vertex="1" parent="1">
          <mxGeometry x="550" y="280" width="60" height="30" as="geometry" />
        </mxCell>
        <mxCell id="L4tckfG0INi3qkzBc33O-13" value="Web-app" style="text;strokeColor=none;align=center;fillColor=none;html=1;verticalAlign=middle;whiteSpace=wrap;rounded=0;" vertex="1" parent="1">
          <mxGeometry x="680" y="280" width="60" height="30" as="geometry" />
        </mxCell>
        <mxCell id="L4tckfG0INi3qkzBc33O-15" value="" style="ellipse;whiteSpace=wrap;html=1;" vertex="1" parent="1">
          <mxGeometry x="365" y="320" width="130" height="84" as="geometry" />
        </mxCell>
        <mxCell id="L4tckfG0INi3qkzBc33O-14" value="Application layer" style="text;strokeColor=none;align=center;fillColor=none;html=1;verticalAlign=middle;whiteSpace=wrap;rounded=0;movable=1;resizable=1;rotatable=1;deletable=1;editable=1;locked=0;connectable=1;" vertex="1" parent="1">
          <mxGeometry x="400" y="347" width="60" height="30" as="geometry" />
        </mxCell>
        <mxCell id="L4tckfG0INi3qkzBc33O-17" value="" style="edgeStyle=none;orthogonalLoop=1;jettySize=auto;html=1;rounded=0;shape=link;" edge="1" parent="1">
          <mxGeometry width="80" relative="1" as="geometry">
            <mxPoint x="310" y="414" as="sourcePoint" />
            <mxPoint x="770" y="414" as="targetPoint" />
            <Array as="points" />
          </mxGeometry>
        </mxCell>
        <mxCell id="L4tckfG0INi3qkzBc33O-18" value="" style="whiteSpace=wrap;html=1;" vertex="1" parent="1">
          <mxGeometry x="540" y="320" width="200" height="77" as="geometry" />
        </mxCell>
        <mxCell id="L4tckfG0INi3qkzBc33O-19" value="Views" style="text;strokeColor=none;align=center;fillColor=none;html=1;verticalAlign=middle;whiteSpace=wrap;rounded=0;fontSize=12;fontFamily=Helvetica;fontColor=default;" vertex="1" parent="1">
          <mxGeometry x="770" y="225" width="60" height="30" as="geometry" />
        </mxCell>
        <mxCell id="L4tckfG0INi3qkzBc33O-20" value="" style="shape=image;imageAspect=0;aspect=fixed;verticalLabelPosition=bottom;verticalAlign=top;rounded=0;fontFamily=Helvetica;fontSize=12;fontColor=default;fillColor=none;gradientColor=none;html=1;image=data:image/jpeg,/9j/4AAQSkZJRgABAQAAAQABAAD/2wCEAAcHBwcHBwgICAgLCwoLCxAODQ0OEBgREhESERgkFhoWFhoWJCAmHx0fJiA5LScnLTlCNzQ3Qk9HR09kX2SDg7ABBwcHBwcHCAgICAsLCgsLEA4NDQ4QGBESERIRGCQWGhYWGhYkICYfHR8mIDktJyctOUI3NDdCT0dHT2RfZIODsP/CABEIAooCigMBIgACEQEDEQH/xAAdAAACAwEBAQEBAAAAAAAAAAAFBgADBAEHCAIJ/9oACAEBAAAAAPpHizuM1LpzWNFM8X6GfizuM1LpzWNFM8X6GfizuM1LpzWNFM8X6GfizuM1LpzWNFM8X6GfizuM1LpzWNFM8X6GfizuM1LrNwDqK0himsdhPwLUf4B1FaQxTWOwn4FqP8A6itIYprHYT8C1H+AdRWkMU1jsJ+Baj/AOorSGKax2E/AtR/gHUVpDUXsEWCpLIDYrQ2Fm6sXsEWCpLIDYrQ2Fm6sXsEWCpLIDYrQ2Fm6sXsEWCpLIDYrQ2Fm6sXsEWCpLIDYrQ2Fm6sXsEWCpIN+y1QvSQyYSOgbQY6G/ZaoXpIZMJHQNoMdDfstUL0kMmEjoG0GOhv2WqF6SGTCR0DaDHQ37LVC9JDJhI6BtBjob9lqhekhOLO4zUunNY0UzxfoZ+LO4zUunNY0UzxfoZ+LO4zUunNY0UzxfoZ+LO4zUunNY0UzxfoZ+LO4zUunNY0UzxfoZ+LO4zUusdOf966KL781WqzFzdTn/AHroovvzVarMXN1Of966KL781WqzFzdTn/euii+/NVqsxc3U5/3roovvzVarMXN1Of8AeuigVewRYKksgNitDYWbqxewRYKksgNitDYWbqxewRYKksgNitDYWbqxewRYKksgNitDYWbqxewRYKksgNitDYWbqxewRYKksnOySSSSc7Odkkkkk52c7JJJJJzs52SSSSTnZzskkkknOznZJNfFncZqXTmsaKZ4v0M/FncZqXTmsaKZ4v0M/FncZqXTmsaKZ4v0M/FncZqXTmsaKZ4v0M/FncZqXTmsaKZ4v0M/FncZqXSvdteWzVRRffk/GizDTfz8366KL78n40XYe7a8tmqii+/J+NF2Hu2vLZqoovvyfjRdh7try2aqKL78n40XYe7a8tmpcvYIsFSWQGxWhsLP+RBjsHZTeQGxWhsLN1YvYIsFSWQGxWhsLN1YvYIsFSWQGxWhsLN1YvYIsFSWQGxWhsLN1YvYIsFSU4HvJZx27WPzFLQ1Z357b1P3zBmJax+YpaJ/Bnge8lnHbtY/MUtE/gzwPeSzjt2sfmKWifwZ4HvJZx27WPzFLRP4M8D3ks44zxZ3Gal05rGimeLlmj5X9c859T9GBntw0UzxfoZ+LO4zUunNY0UzxfoZ+LO4zUunNY0UzxfoZ+LO4zUunNY0UzxfoZ+LO4zUu32moA3EcoozcKylcBr5E8f596n+Vii2sVlO/oBaagDcRyijNwrKd/QC01AG4jlFGbhWU7+gFpqANxHKKM3Csp39ALTUAbiKzewRYKksgNitDYWLBiYfi3zX7T9IEF4NJhsLN1YvYIsFSWQGxWhsLN1YvYIsFSWQGxWhsLN1YvYIsFSWQGxWhsLN1YvYIsFSU4s7jNS6c1jRTPF7Ky4fiNU1+veL6f6Irmdi0r9DPxZ3Gal05rGimeL9DPxZ3Gal05rGimeL9DPxZ3Gal05rGimeL9DPxZ3Gal1m4B1FaQxTWOwn+rTEg/IYGSTV/QPbOcAxg4B1FaQxTWOwn4FqP8A6itIYprHYT8C1H+AdRWkMU1jsJ+Baj/AOorSGovYIsFSWQGxWhsBUn8T+eST6Q/HiIr0xw9B9T/PFy9giwVJZAbFaGws3Vi9giwVJZAbFaGws3Vi9giwVJZAbFaGws3Vi9giwVJBv2WqF6SGTCR0C8n4YPFPlHj16fl+nfBfl3sn0p9DxetMcF6SGTCR0DaDHQ37LVC9JDJhI6BtBjob9lqhekhkwkdA2gx0N+y1QvSQnFncZqXTmsaKM7arvkvxhpBUavQGwow/J3f2//Tj7wH+GDOAOaxopni/Qz8WdxmpdOaxopni/Qz8WdxmpdOaxopni/Qz8WdxmpdY6c/710UX35cJirwXy7zicb2r0j1YF6F4/8uhpO+5+7OMg3Ps1ZqtVmLm6nP8AvXRRffmq1WYubqc/710UX35qtVmLm6nP+9dFAq9giwVJZAZqbfj/AMkt/LCYUh8PY/tz5aHuDcyw5d5Jr9xOwPgYrQ2Fm6sXsEWCpLIDYrQ2Fm6sXsEWCpLIDYrQ2Fm6sXsEWCpLJzskk5lhb558Y3oPZJxj9ZdvWSMmDzT1qfMHgc9W+pzobXZJzs52SSSSTnZzskkkknOznZJNfFncZqXTmoYT8I+Z8knN796b6nsQR7j6BJJPHfCgKwx++emt4PKzxfoZ+LO4zUunNY0UzxfoZ+LO4zUunNY0UzxfoZ+LO4zUule7a8tmrMNP+A/MMLEAf2f6HT5kj/RckkwoXknmXoP1lFbxpW9R9kBkvx+NF2Hu2vLZqoovvyfjRdh7try2aqKL78n40XYe7a8tmpcvYIsFSQvEY/nu3e/syh8o+1/WHiHiH20K8iXRywqEHR8YVn3pP2sV0TjJkNhZurF7BFgqSyA2K0NhZurF7BFgqSyA2K0NhZurF7BFgqSnA95LOO/WpX+GP6BfB/3Qw+Z+efQutK+dfJvxGzn0J7ZJPAvek/eNGbztnCton8GeB7yWcdu1j8xS0T+DPA95LOO3ax+YpaJ/Bnge8lnHGeLO4zUu7tdX89vtz4k9s+rvnn5z9SnlNcZ/ePW2GuyAjXzr9GKbUODFDAsazxfoZ+LO4zUunNY0UzxfoZ+LO4zUunNY0UzxfoZ+LO4zUu32moA3ERS87fH2XzCW/j8ybjx76P8AQpJJ8s+leQ/XIKsgSyCjNwrKd/QC01AG4jlFGbhWU7+gFpqANxHKKM3Csp39ALTUAbiKzewRYKkhyywqfxNJJz0h6zfUckkknxs5In2kByliWQGxWhsLN1YvYIsFSWQGxWhsLN1YvYIsFSWQGxWhsLN1YvYIsFSU4s7jNS6W1L7P/P0NJ9CeEsnr3hP3YVRnmSSfPvtfzb9UqjV+Fw5rGimeL9DPxZ3Gal05rGimeL9DPxZ3Gal05rGimeL9DPxZ3Gal1m4B1FaQxS1XbvlXw+TnZOfanpHiaR9RyTLqnzT9LLR/gYprHYT8C1H+AdRWkMU1jsJ+Baj/AADqK0himsdhPwLUf4B1FaQ1F7BFgqSyA9RXy34+kalWfYDyxeJE1z3zsnOz5G+uQ44uSyA2K0NhZurF7BFgqSyA2K0NhZurF7BFgqSyA2K0NhZurF7BFgqSDfstUL0kMmGd0fzz7HAP7f8ASnPFFRB9/wDTdMkk+IPt8RmIEMmEjoG0GOhv2WqF6SGTCR0DaDHQ37LVC9JDJhI6BtBjob9lqhekhOLO4zUunNYQI7fBqtJPb/ehHi/5+qlttkkk+cPctW6LpzWNFM8X6GfizuM1LpzWNFM8X6GfizuM1LpzWNFM8X6GfizuM1LrHTn/AHroovvHhG75U8P34ZPbhYb2j3LnZBolor+dPTnTPoqvvzVarMXN1Of966KL781WqzFzdTn/AHroovvzVarMXN1Of966KBV7BFgqSyAzPL/I/CG/xCeofZXz24eoW+drXtMo+O/pqJX49iVzhPIDYrQ2Fm6sXsEWCpLIDYrQ2Fm6sXsEWCpLIDYrQ2Fm6sXsEWCpLJzskkn4xdnxn9VfGoqz6m8gfWL3EB8ns31TPib3D2j5it+mF8jbJJJzs52SSSSTnZzskkkknOznZJNfFncZqXTmsaHvY/hX3bzDyeegfVqb+fPj/lnnX3W4+L+c/Tyz4D9aDv0HOaxopni/Qz8WdxmpdOaxopni/Qz8WdxmpdOaxopni/Qz8WdxmpdK9215bNVFF/4BNPz55g2+FznvKh5/m/X1lp9d7wManyZ9ZBbSVFF9+T8aLsPdteWzVRRffk/Gi7D3bXls1UUX35Pxouw9215bNS5ewRYKksgNitWLN38+vrT5J7P3/QX5XT/e/XiUkknz76iZrOZAbFaGws3Vi9giwVJZAbFaGws3Vi9giwVJZAbFaGws3Vi9giwVJTge8lnHbtY/NcOZPjkz52qye+efAPX/AKbtkkkUvJPogLN+sfmKWifwZ4HvJZx27WPzFLRP4M8D3ks47drH5ilon8GeB7yWccZ4s7jNS6c1jRR3N+0jxZMR5PrFq8NPNPtckkk+Mvs0NgO6xopni/Qz8WdxmpdOaxopni/Qz8WdxmpdOaxopni/Qz8WdxmpdvtNQBuI5RRm4SN0MPxof8QkYfrn0Fa8V+jlhi7bJ5v4z9AtmWscZuFZTv6AWmoA3EcoozcKynf0AtNQBuI5RRm4VlO/oBaagDcRWb2CLBUlkBsVoYfsM+UeZ+Fdkjl9O/v49eVX276F0zz0b5h9R58Q1itDYWbqxewRYKksgNitDYWbqxewRYKksgNitDYWbqxewRYKkpxZ3Gal05rGimeKuVz+LiXkkknHBR5PaAH2lJ8SI338UDmhopni/Qz8WdxmpdOaxopni/Qz8WdxmpdOaxopni/Qz8WdxmpdZuAdRWkMU1jsJ+AQrl5t5AjJkk9J+rQXzKgc2f0Ltn5+Nif1xnmXCfgWo/wDqK0himsdhPwLUf4B1FaQxTWOwn4FqP8AAOorSGovYIsFSWQGxWhsLLnUHn4s9y+Vh0nt31ahfFmRs+1TUkB+Ul/W1kxuDYWbqxewRYKksgNitDYWbqxewRYKksgNitDYWbqxewRYKkg37LVC9JDJhI6BtBfMsnB/xj7J85djF9dNHx559Hz6ffv1JPn32I+IJ4qDHQ37LVC9JDJhI6BtBjob9lqhekhkwkdA2gx0N+y1QvSQnFncZqXTmsaKZ4v0MAJi+cA5T55lnr/1csfFYjscPuS+Tnxp9kVLjT+1+hn4s7jNS6c1jRTPF+hn4s7jNS6c1jRTPF+hn4s7jNS6x05/3roovvzVarMXP2O/DD8K/Uvxtkk2fS6x5D7Z5UlfT3vsk86+efssfUQx83U5/wB66KL781WqzFzdTn/euii+/NVqsxc3U5/3rooFXsEWCpLIDYrQ2Fm6sd0l1n5QP+QSSHgM9OZffmqSeAZAv1ILEtPVi9giwVJZAbFaGws3Vi9giwVJZAbFaGws3Vi9giwVJZOdkkkkk52V4hLj4isAvGOEPppM8hEsVHoHqvs36nivr3zWxe/D6NcnZJJJJOdnOySSSSc7Odkk18WdxmpdOaxopni/Qz8WPxrP/LXv3z94bz3L31r8M8q9GzJ4H3/1yRT+D/pT6IxAWqLO4zUunNY0UzxfoZ+LO4zUunNY0UzxfoZ+LO4zUule7a8tmqii+/J+NF2HuzCE1sHx39OfOPjs5J2/2Hxyqev/AFxZPmn559l+s/0J/ev9ZbNVFF9+T8aO5u7a8tmqii+/J+NF2Hu2vLZqXL2CLBUlkBsVobCzdWL2D8K+VsyfHf1L8vecSSaf1zL7v5m0/Y8nz94Lf9dvI7ZWBKksgNitDYGGwB+WSLBUlkBsVobCzdWL2CLBUlOB7yWcdu1j8xS0T+DPA9+4UtOWT4s+mPNvDcMmv2nzNW+oAnifsf1BIufOHjvtH09uy1fnPu1j82nu+Ti/vJZx27WPzFLRP4M8D3ks44zxZ3Gal05rGimeL9DPxZ3Gca3Q3/j5E9yd/hsLJJISeT3tXpEkz+VeCenfQGn8BbywoYd2eDfPHqH1gmmDVS6c1jRTPF+hn4s7jNS7faagDcRyijNwrKd/QC01AG7cGWWkz8z+RYg8kkknPuV3kkmD4kV/ZPbPQe/in86vmDwOfXvqw/WK37MuAltFZjv6AWmoA3EVm9giwVJZAbFaGws3Vi9giwVJDwM3n/KfknAYG0ySFsTn6J7K7BTCif3fP/k48L6p6d6Ie+a/njv0B9NyV5d3Kfxf+gOZn6sXsEWCpKcWdxmpdOaxopni/Qz8WdxmpdOawIHW2jflkF6qmeP1ySSH/prxhAH+1JHvHtmf5s8qVJtxd56sxB3T1Cj5t9XO04vQ23OFqZ+LO4zUus3AOorSGKax2E/AtR/gHUVpDFNY8ZoHxs8/8At9DRPJx0kkkn0f7p8A/pqcfRfVE/5Gs+q9cxJ/gguSGPTMCLq+9h2Hh/gHUVpDUXsEWCpLIDYrQ2Fm6sXsEWCpLIDYrQY4iP0sXlvip36B898ombz8LJOajemlY9Q80p7JJJJJJJ+/bfqtIcbli9giwVJBv2WqF6SGTCR0DaDHQ37LVC9JDJhI6BtGuhdzsxkB4yJazyxmTPGOySSTTmkkkknCJNc9O9mcmvUDHMmkN+y1QvSQnFncZqXTmsaKZ4v0M/FncZqXTmsaKZ4v0MeFP/LUZ6I80ScNGO3cxNO3zccT2rvjGSScjT6v7A+Si8fjFBWg8DpZ+LO4zUusdOf966KL781WqzFzdTn/AHroovvzVarMXN2THTSMhUoQ7Ma6CDA78Q7Blz7TBpiami2VDAFJbDzd+rN2qjm6nP8AvXRQKvYIsFSWQGxWhsLN1YvYIsFSWQGxWhsLN1YvYKlvWQBgtRGvQXuss/cnO/mmUD8N1azrauhtZvIPO7A2Fm6sXsEWCpLJzskkkknOznZJJJJOdnOyfinn5qqqqoq/NdXOd7+7P3+7rrLLf3+7Lq/xd+pJOdnOySa+LO4zUunNY0UzxfoZ+LO4zUunNY0UzxfoZ+LO4zUunNYwWd0LtDLSvaDuAQUKCMR7WvVM8WNxmpdOaxopni/Qz8WdxmpdK9215bNVFF9+T8aLsPdteWzVRRffk/Gi7D3bXls1UUX35Pxouw/nfXiv1Z6r78n40XYe7a8tmqii+/J+NF2Hu2vLZqXL2CLBUlkBsVobCzdWL2CLBUlkBsVobCzdWL2CLBUlkBsVobCzdWL2CLBUlkBsVobCzdWL2CLBUlkBsVobCzdWL2CLBUlOB7yWcdu1j8xS0T+DPA95LOO3ax+YpaJ/Bnge8lnHbtY/MUtE/gzwPeSzjt2sfmKWifwZ4HvJZx27WPzFLRP4M8D3ks44zxZ3Gal05rGimeL9DPxZ3Gal05rGimeL9DPxZ3Gal05rGimeL9DPxZ3Gal05rGimeL9DPxZ3Gal05rGimeL9DPxZ3Gal2+01AG4jlFGbhWU7+gFpqANxHKKM3Csp39ALTUAbiOUUZuFZTv6AWmoA3EcoozcKynf0AtNQBuI5RRm4VlO/oBaagDcRWb2CLBUlkBsVobCzdWL2CLBUlkBsVobCzdWL2CLBUlkBsVobCzdWL2CLBUlkBsVobCzdWL2CLBUlkBsVobCzdWL2CLBUlOLO4zUunNY0UzxfoZ+LO4zUunNY0UzxfoZ+LO4zUunNY0UzxfoZ+LO4zUunNY0UzxfoZ+LO4zUunNY0UzxfoZ+LO4zUus3AOorSGKax2E/AtR/gHUVpDFNY7CfgWo/wDqK0himsdhPwLUf4B1FaQxTWOwn4FqP8A6itIYprHYT8C1H+AdRWkNRewRYKksgNitDYWbqxewRYKksgNitDYWbqxewRYKksgNitDYWbqxewRYKksgNitDYWbqxewRYKksgNitDYWbqxewRYKkg37LVC9JDJhI6BtBjob9lqhekhkwkdA2gx0N+y1QvSQyYSOgbQY6G/ZaoXpIZMJHQNoMdDfstUL0kMmEjoG0GOhv2WqF6SE4s7jNS6c1jRTPF+hn4s7jNS6c1jRTPF+hn4s7jNS6c1jRTPF+hn4s7jNS6c1jRTPF+hn4s7jNS6c1jRTPF+hn4s7jNS6x05/wB66KL781WqzFzdTn/euii+/NVqsxc3U5/3roovvzVarMXN1Of966KL781WqzFzdTn/AHroovvzVarMXN1Of966KBV7BFgqSyA2K0NhZurF7BFgqSyA2K0NhZurF7BFgqSyA2K0NhZurF7BFgqSyA2K0NhZurF7BFgqSyA2K0NhZurF7BFgqS//xAAVAQEBAAAAAAAAAAAAAAAAAAAAAf/aAAgBAhAAAAAAAAAAAAAAAAAAAAAAAAAAAAAAAAAAAAAAAAAAAAAAAsAAAAAACwAAAAAAogAAAAAFRUAAAAAKEpAAAAAFEBUAAAAFIAAAAAAqFQAAAAAUIAAAAABRAAAAAAKQAAAAABSAAAAAAFQAAAAAAUIAAAAACoAAAAAAVAAAAAACggAAAAAKSoAAAAACpSAAAAABQQAAAAAFRYAAAAABQQsAAAAAKEAAAAABQQWFQAAAAUEFAgAAABQACAAAAAKQAAAAAAAAAAAAAAAAAAAAAAAAAAAAAAAAAAAAAAAAAAAAAAAAAAAAAAAAf//EABUBAQEAAAAAAAAAAAAAAAAAAAAB/9oACAEDEAAAAAAAAAAAAAAAAAAAAAAAAAAAAAAAAAAAAAAAAAAAAAACKAAAAAAJQAAAAACCgAAAAARYUAAAAAgWFAAAAAQKEUAAAAQoAAAAABKRQAAAABAoAAAAAEFAAAAAAhQAAAAAEKAAAAAARQAAAAACBQAAAAAQKAAAAABFAAAAAAICgAAAAAhYoAAAAAQsKAAAAAEBQAAAAARYoAAAAAEBQAAAAAIFAAAAABAUSkUAAAAQCkBQAAABAACgAAAAIUAAAAAAAAAAAAAAAAAAAAAAAAAAAAAAAAAAAAAAAAAAAAAAAAAAAAAAAAf/xAA1EAABAwMDAwMEAgICAgMAAwADAgQFAAEQBhU0BxMUEjNEESMkJSAhCDEWNRcwIjJBGEBR/9oACAEBAAEIAKP7BsRvNFiX4yMQ3yMS/JRiP4YsOeSfJ/YNiN5osS/GRiG+RiX5KMR/DFhzyT5P7BsRvNFiX4yMQ3yMS/JRiP4YsOeSfJ/YNiN5osS/GRiG+RiX5KMR/DFhzyT5P7BsRvNFiX4yMQ3yMS/JRiP4YsOeSfJ/YNiN5osS/GRjvgopAXCVKfFc0yEQLkZC98FSK0OApQDxXNRv43e7/fBUgi5zJUDxXNMiiC1GMvfBRwGWcq0eK5rvgopAXCVKfFc0yEQLkZC98FSK0OApQDxXNRv43e7/AHwVIIucyVA8VzTIogtRjL3wUcBlnKtHiua74KKQFwlSnxXNMhEC5GQvfBUitDgKUA8VzUb+N3u/3wVIIucyVA8VzTIogtRjL3wUcBlnKtHiua74KKQFwlSnxXNMhEC5GQvfBUitDgKUA8VzUb+N3u/3wVIIucyVA8VzTIogtRjL3wUcBlnKtHiua74KKQFwlSnxXNMhEC5GQvfBUitDgKUA8VzUb+N3u/3wVIIucyVA8VzTIogtRjL3wUcBlnKtHiua74KKQFwlSnxXNMhEC5GQvfBUitDgKUA8VzhtyQYkOGXERyV4mfj4iOMvElzS4B7ActuSDEhwy4iOSvEz8fERxl4kuaXAPYDltyQYkOGXERyV4mfj4iOMvElzS4B7ActuSDEhwy4iOSvEz8fERxl4kuaXAPYDltyQYkOGXERyV4mfj4iOMvElzS4B7ActuSDEhwy4iOSvG3PaEychIMpNxZ05chdhUAG3PaaDIwIorncWdPP2Hb8XbntMyoYCUJzuLOnLYzsyzg257QnrUAkCXuLOtue0Jk5CQZSbizpy5C7CoANue00GRgRRXO4s6efsO34u3PaZlQwEoTncWdOWxnZlnBtz2hPWoBIEvcWdbc9oTJyEgyk3FnTlyF2FQAbc9poMjAiiudxZ08/Ydvxdue0zKhgJQnO4s6ctjOzLODbntCetQCQJe4s6257QmTkJBlJuLOnLkLsKgA257TQZGBFFc7izp5+w7fi7c9pmVDAShOdxZ05bGdmWcG3PaE9agEgS9xZ1tz2hMnISDKTcWdOXIXYVABtz2mgyMCKK53FnTz9h2/F257TMqGAlCc7izpy2M7Ms4Nue0J61AJAl7izrbntCZOQkGUm4s6cuQuwqADbntNBkYEUVzuLPB/YNiN5osS/GRiG+RiX5KMR/DFhzyT5P7BsRvNFiX4yMQ3yMS/JRiP4YsOeSfJ/YNiN5osS/GRiG+RiX5KMR/DFhzyT5P7BsRvNFiX4yMQ3yMS/JRiP4YsOeSfJ/YNiN5osS/GRiG+RiX5KMR/DFhzyT5P7BsRvNFiX4yMbu2rzgGSoKdoc0NoRgRLku7tqOdEijsh2hzQf1Xq7+7tqMFUmrvB2hzQ3Y2CLNi7u2pUcdwpRkbQ5rd21ecAyVBTtDmhtCMCJcl3dtRzokUdkO0OaD+q9Xf3dtRgqk1d4O0OaG7GwRZsXd21KjjuFKMjaHNbu2rzgGSoKdoc0NoRgRLku7tqOdEijsh2hzQf1Xq7+7tqMFUmrvB2hzQ3Y2CLNi7u2pUcdwpRkbQ5rd21ecAyVBTtDmhtCMCJcl3dtRzokUdkO0OaD+q9Xf3dtRgqk1d4O0OaG7GwRZsXd21KjjuFKMjaHNbu2rzgGSoKdoc0NoRgRLku7tqOdEijsh2hzQf1Xq7+7tqMFUmrvB2hzQ3Y2CLNi7u2pUcdwpRkbQ5rd21ecAyVBTtDmhtCMCJcl3dtRzokUdkO0OcNuSDEhwy4iOSvEz8fERxl4kuaXAPYDltyQYkOGXERyV4mfj4iOMvElzS4B7ActuSDEhwy4iOSvEz8fERxl4kuaXAPYDltyQYkOGXERyV4mfj4iOMvElzS4B7ActuSDEhwy4iOSvEz8fERxl4kuaXAPYDltyQYkOGXERyV42att8b79bzXmbh+LWzV2dq+/W81/29bNXe2r7FbzXh7h+VWzVuXjfYrea2att8b79bzXmbh+LWzV2dq+/W81/29bNXe2r7FbzXh7h+VWzVuXjfYrea2att8b79bzXmbh+LWzV2dq+/W81/wBvWzV3tq+xW814e4flVs1bl432K3mtmrbfG+/W815m4fi1s1dnavv1vNf9vWzV3tq+xW814e4flVs1bl432K3mtmrbfG+/W815m4fi1s1dnavv1vNf9vWzV3tq+xW814e4flVs1bl432K3mtmrbfG+/W815m4fi1s1dnavv1vOD+wbEbzRYl+MjEN8jEvyUYj+GLDnknyf2DYjeaLEvxkYhvkYl+SjEfwxYc8k+T+wbEbzRYl+MjEN8jEvyUYj+GLDnknyf2DYjeaLEvxkYhvkYl+SjEfwxYc8k+T+wbEbzRYl+MjEN8jEvyUYj+GLDnknyf2DYjeaLEvxkY3dzSZE7hSQr2htRGg2CLuRbu5oRlSSrhPtDajfqvT2N3c0ACZFHeNtDaiOyMCKbC3dzXggMlJlKimqbfW95dxVn5CqsJXghpQ0NLXONMs4ta1qGe8je4j7Q2o36r09jd3NAAmRR3jbQ2ojsjAimwt3c14IDJSZW0Nq3dzSZE7hSQr2htRGg2CLuRbu5oRlSSrhPtDajfqvT2N3c0ACZFHeNtDaiOyMCKbC3dzXggMlJlbQ2rd3NJkTuFJCvaG1EaDYIu5Fu7mhGVJKuE+0NqN+q9PY3dzQAJkUd420NqI7IwIpsLd3NeCAyUmVtDat3c0mRO4UkK9obURoNgi7kW7uaEZUkq4T7Q2o36r09jd3NAAmRR3jbQ2ojsjAimwt3c14IDJSZW0Nq3dzSZE7hSQr2htRGg2CLuRbu5oRlSSrhPtDbDbkgxIcMuIjkrxM/HxEcZeJLmlwD+m4qUqmMat1axSjCEFvoOloQRN0reRN0WuVrGL+plfSpn4+IjjLxJc0uAewHLbkgxIcMuIjkrxM/HxEcZeJLmlwD2A5bckGJDhlxEcleJn4+IjjLxJc0uAewHLbkgxIcMuIjkrxM/HxEcZeJLmlwD2A5bckGJDhlxEcleNuZ0Vk1AJZUbi9ps5M7MgB9uZ08EhgJJW24vaZ/sO55W3M6dkIwIkTbcXtNmwXYUnPtzOju3AyLEhqc7l2MSq1J1hm5iX2HQjfQ/Ug4LGfn6h676eTYozWbCQZyLBs+YSSPDL3hIfurf6Z/sO55W3M6dkIwIkTbcXtNmwXYUnPtzOivXISEEPcXtbczorJqASyo3F7TZyZ2ZAD7czp4JDASSttxe0z/YdzytuZ07IRgRIm24vabNguwpOfbmdFeuQkIIe4va25nRWTUAllRuL2mzkzsyAH25nTwSGAklbbi9pn+w7nlbczp2QjAiRNtxe02bBdhSc+3M6K9chIQQ9xe1tzOismoBLKjcXtNnJnZkAPtzOngkMBJK23F7TP9h3PK25nTshGBEibbi9ps2C7Ck59uZ0V65CQgh7i9rbmdFZNQCWVG4vabOTOzIAfbmdPBIYCSVtuL3B/YNiN5osS/GRiG+RiX5KMR/DFh3yD1BqtuJLX1SAxNK6hQHpVMwelUTuppVHX7SN//v1T6g6W1fEsWUX0KOY+h7jLqG9rN2yrDv8AW1RC0o7/ANal+SjEfwxYc8k+T+wbEbzRYl+MjEN8jEvyUYj+GLDnknyf2DYjeaLEvxkYhvkYl+SjEfwxYc8k+T+wbEbzRYl+MjEN8jEvyUYj+GLDnknyf2DYjeaLEvxkY8pzQDmWcSF9gFPRDC1IQXlOaj13OZST9gFSf43Z7HlOajkpcBUs3YBT0pAuSDF5TmkiGsSFKtcbN0I9rXte31t1G0k90NJyJWOOn0NbTmjYZheUbHckb2SKPvZP9uWTu1k3bKO7Er0LYXQUKrm7AKelIFyQYvKc0MYbhEpXYBXlOaAcyziQvsAp6IYWpCC8pzUeu5zKSfsAqT/G7PY8pzUclLgKlm7AKelIFyQYvKc0MYbhEpXYBXlOaAcyziQvsAp6IYWpCC8pzUeu5zKSfsAqT/G7PY8pzUclLgKlm7AKelIFyQYvKc0MYbhEpXYBXlOaAcyziQvsAp6IYWpCC8pzUeu5zKSfsAqT/G7PY8pzUclLgKlm7AKelIFyQYvKc0MYbhEpXYBXlOaAcyziQvsAp6IYWpCC8pzUeu5zKSfsAw25IMSHDLiI5K8TPx8RHGXiS5pcIt9gNOh+q16gJdNrojnLgDd0Erdz1S0a00bqOwGF60F1N07NwrFq9vMRFkpVe+qtJhv95hLxMrZV45y2G5HdC4/1DQUa6kuaXAPYDltyQYkOGXERyV4mfj4iOMvElzS4B7ActuSDEhwy4iOSvEz8fERxl4kuaXAPYDltyQYkOGXERyV4mfj4iOMvElzS4B7ActuSDEhwy4iOSvJ/YNiN5osS/GRiG+RiX5KMR/DFh1yT0huV2TtBbswh+5U/PxOmo0sjKa01Y81nPHlnFMGDuVfNY9k66GT7Fjd29Wj0LUm7B+8iXgJBghV1ISq8utKJJSKSqmRL+INOHPJPk/sGxG80WJfjIxDfIxL8lGI/hiw55J8n9g2I3mixL8ZGIb5GJfkoxH8MWHPJPk/sGxG80WJfjIxDfIxL8lGI/hiw55J8n9g2I3mixL8ZGO+CikBcJUp8VzTIRAuRkL3wVIrQ4ClAPFc1G/jd7v8AfBUgi5zJUDxXNMiiC1GMqnILW/pygtyEuhs3Q0BYdtddRorRQLCrUWpprVT9T+Xxa97Xteyr3Xf6rpiVsB80M707qWG1THofxKkJXb6KVHMV1ZqMKLJQuyxW9SyIIsi1Js3cX/13wUUgLhKlPiuaZCIFyMhe+CpFaHAUoB4rmo38bvd/vgqQRc5kqB4rmmRRBajGXvgo4DLOVaPFc13wUUgLhKlPiuaZCIFyMhe+CpFaHAUoB4rmo38bvd/vgqQRc5kqB4rmmRRBajGXvgo4DLOVaPFc13wUUgLhKlPiuaZCIFyMhe+CpFaHAUoB4rmo38bvd/vgqQRc5kqB4rmmRRBajGXvgo4DLOVaPFc13wUUgLhKlPiuaZCIFyMhe+CpFaHAUoB4rnDbkgxIcMuIjkrxM/HxEcZeJLmlq9IXZNmt711RhZmJ1jKnk/4dNdA6O1foi53850Aco9ZIDUGlp/SzhAJlk+fRrhLphG9aNeR/0sVh/kFIBRaz6F63aLkVoC7CYTgQzBcDsC6VJSu18NuSDEhwy4iOSvEz8fERxl4kuaXAPYDltyQYkOGXERyV4mfj4iOMvElzS4B7ActuSDEhwy4iOSvEz8fERxl4kuaXAPYDltyQYkOGXERyV4257QmTkJBlJuLOnLkLsKgA257TQZGBFFc7izp5+w7fi7c9pmVDAShOdxZ06AVyZbgN2bmnDgKBJGpqs9247n6/tm5NOQ7y9Xva1QvTbWs76FtmH+Pb8grXkdJupXo/qtUTqJKkrTZSesmpJeEkWccX+HQLULq+7afPSgpv/aVsnYl3SsQDCIgihv2dv7u5chdhWAG3PaaDIwIorncWdPP2Hb8XbntMyoYCUJzuLOnLYzsyzg257QnrUAkCXuLOtue0Jk5CQZSbizpy5C7CoANue00GRgRRXO4s6efsO34u3PaZlQwEoTncWdOWxnZlnBtz2hPWoBIEvcWdbc9oTJyEgyk3FnTlyF2FQAbc9poMjAiiudxZ08/Ydvxdue0zKhgJQnO4s6ctjOzLODbntCetQCQJe4s6257QmTkJBlJuLOnLkLsKgA257TQZGBFFc7izwf2DYjeaLEvxkYhvkYl+SjDVf0bDqwr3t9SWYMxlsVNdZdZNJ+VaxEbUJq6R060WKKfSUjKF70iE52yrLA+lpWTSJMhozqxqHSAkMV6ma6+6rnjrgiugBPohc3LdJenUBp2RkXlv9YEUoF2IGB6p61gCfVGieqUBrH0NcFbJIhaUmjngP7pgT6Oh3tZVShErbI+lQ3yMS/JRiP4YsOeSfJ/YNiN5osS/GRiG+RiX5KMR/DFhzyT5P7BsRvNFiX4yMQ3yMS/JRiP4YsOeSfJ/YNiN5osS/GRjd21ecAyVBTtDmhtCMCJcl3dtRzokUdkO0OaD+q9Xf3dtRxqkr+QFbE1qjmt0BQostLxWnWBJKWkP8gW4lrRE6k6q6v1KBbMuPrUZoHWUxb1tGXTJghf72H0P0UBb0OVRel9GwT+YiOn/AFQj9cEOyLWrpHTTGWLobUeoYJ9pqYeRD7Nr3Sqyk6P63y0QkTPUUX1R0FJotYQyDKhBBrAJa7LUoCrf2hzYpfoFVmBqbLtG+vvbu2owVSau8HaHNDdjYIs2Lu7alRx3ClGRtDmt3bV5wDJUFO0OaG0IwIlyXd21HOiRR2Q7Q5oP6r1d/d21GCqTV3g7Q5obsbBFmxd3bUqOO4UoyNoc1u7avOAZKgp2hzQ2hGBEuS7u2o50SKOyHaHNB/Verv7u2owVSau8HaHNDdjYIs2Lu7alRx3ClGRtDmt3bV5wDJUFO0OaG0IwIlyXd21HOiRR2Q7Q5w25IMSHDLiI5K8TPx8R6vo2Umjq/r6Va1rWta3Waecymrzxt6bgO7Ohu1KIoCkCaEPpNoEjia/8gybK1h6ffyspLLSuSxC6kl4Gxws4eVewUmylWGluoumNSxSHaeqGogav1mcscz0Br+a9CRsuhGtHNkKcNf8AHlP9XeB6BaPRe1yvunXR/T1xDmLdJumpBDIJfR7pz6L11AYSfSt9GO9IQXX9yj6C1Bp7XWldU+hMVSw/T+0SCr2uK17XqI4y8SXNLgHsBy25IMSHDLiI5K8TPx8RHGXiS5pcA9gOW3JBiQ4ZcRHJXiZ+PiI4y8SXNLgHsBy25IMSHDLiI5K8bNW2+N9+t5rzNw/FrZq7O1ffrea/7erw9rWve6jeBbtU3saQv6rV1d6etTSxdSWZW0dFkuWRlOo088ARjGfyhdIan1F6LxMR0EmTosabjtC9GoRdrPoA2k+2sGnMzLt1HQ0i/aw3SqCfWZ6h1MMaBIQMdde9QAfTEbBgr/8AbXrS3WHVWnVIC90nraA1k0ueKctAukdtVo+6VXQobnbrXDW814e4flVs1bl432K3mtmrbfG+/W815m4fi1s1dnavv1vNf9vWzV3tq+xW814e4flVs1bl432K3mtmrbfG+/W815m4fi1s1dnavv1vNf8Ab1s1d7avsVvNeHuH5VbNW5eN9it5rZq23xvv1vNeZuH4tbNXZ2r79bzg/sGxG80WJfjIxDfIpSqI1u7dWuu1rJta1tf9ahslki9Jv376UdLeSH8GEXJyq7jjYvpDruT9KlxXQBsO1lzcN070XA3sRnqtGtFtQA0mz6Nbl9HWs5H/AB+hDukEjdLdL9K6Rdofs/5a/wCsMbCAPGabD0x6jS9lv7zGjNVwFlqlK0tqJemJZEhaOaaN1wlctoXp9rRprODS+p0n6osSz1X1KnEfwxYc8k+T+wbEbzRYl+MjEN8jEvyUYj+GLDnknyf2DYjeaLEvxkYhvkYl+SjEfwxYc8k+T+wbEbzRYl+MjG7uaTIncKSFe0NqI0GwRdyLd3NCMqSVcJ9obU5ttlrWAqQcrUkaEI9CLJrrRrxbFC9JReI2Cm5j67ZOaP1Hpps1dTLJTRD1qt7olt0slmY1adta1rWtZ5IR8YGzmR6lo1RLaeaP9FdN9TdTwzDOLlP5PpqFi/puUt1r0LHWvZvNdeJ90hYoWa1tqzUKbjlOh+nm0pqN1KOsT3TjRuo/Wt5N9ADIvdcEw6X9VIB+p1E9LOnc/ox49fyblVhNjkU0RZ8ixCpjm903vcjsjAimwt3c14IDJSZW0Nq3dzSZE7hSQr2htRGg2CLuRbu5oRlSSrhPtDajfqvT2N3c0ACZFHeNtDaiOyMCKbC3dzXggMlJlbQ2rd3NJkTuFJCvaG1EaDYIu5Fu7mhGVJKuE+0NqN+q9PY3dzQAJkUd420NqI7IwIpsLd3NeCAyUmVtDat3c0mRO4UkK9obURoNgi7kW7uaEZUkq4T7Q2w25IMSHDLiI5K8St7fUX0iR96Rte8m+FFRb+TO/fOpR86kHeitAzet3V0s06Z6TdNEg3yL6s6ElSBZg69wD+RiIqXa10cXoMUj3ZyuqHTrWOsJXzmUBqHU/TKfWMrCSayse0fs5zVWm9LjsuZlP8gooS/TFW/yDmPXa93PX3VpL3s3ddYOoTn12p5qvVMn6hvI3p5raX4jToXrhyj1F0x0IZs1rPqnXPSXTj2Adlgv8eii8PU1SofrGu7VaQlWYbqE01apNkoespmKc2+grXte31s6kmLRP1M/l1yN7BDEp+gL4kuaXAPYDltyQYkOGXERyV4mfj4iOMvElzS4B7ActuSDEhwy4iOSvEz8fERxl4kuaXAPYDltyQYkOGXERyV425nRWTUAllRuL2mzkzsyAH25nTwSGAklbbi9oarvO5dxGCCEzlSeqylA6eaguP8Au/8AVoqOjtD6TQBM1LvZ6Ueyz7R0HBQWno0cPe1r2va8/wBFtHTRCHa3/wAfShP9TwSI1jDsmMdWv3XT5uwsLV8v1XeiYCg9IFKVwUhz40toqc1juFoeT0XqyAX65PpXrPQTntRrT+HRQYo3U+uIob5N7R7y9miVOVpGRcQ2p3HJbIssVwlpmxs5uruhi2yaNdTRdhgtIvLW+lmzYLsKTn25nRXrkJCCHuL2tuZ0Vk1AJZUbi9ps5M7MgB9uZ08EhgJJW24vaZ/sO55W3M6dkIwIkTbcXtNmwXYUnPtzOivXISEEPcXtbczorJqASyo3F7TZyZ2ZAD7czp4JDASSttxe0z/YdzytuZ07IRgRIm24vabNguwpOfbmdFeuQkIIe4va25nRWTUAllRuL2mzkzsyAH25nTwSGAklbbi9wf2DYjeaLEvxkYY/6NTBXpeLRWrom87pmZikf/K1annhznSiSmWddM+q19LDFCzUZLRk00Q8jOuE+/iZaHbxDt48fl7z3p91GjdBxL4aJ7rPrKYQsDQxjODEOfGj42Lmp5jEyJf8eWVyfUOkdHw+h49bKNp1EQx3AnjnGrtUx2jYQkq+iJNvORTCUbdKnPd6q6xvTpH1auLWiv7MKvTa9SI7dlNdq1Ro7fdqyKlE2QdFrVH8MWHPJPk/sGxG80WJfjIxDfIxL8lGI/hiw55J8n9g2I3mixL8ZGIb5GJfkoxH8MWHPJPk/sGxG80WJfjIx5TmgHMs4kL7AKeiGFqQgvKc1Hrucykn7AKkLdn0dryzNXQXFIWlaErR1i0ojTeqbu2ukdYhaaV1PpSUwA52xO43ItZVqITMbGv5h+3jo51oPWrM6wFhekuuJm6VX0R0zhdF/lW/l18mrutRMIlEM/ktOzekdII6KPl31/ZZV2spCrXShA211oS4cW/1Hrucy0n8cFSf43Z7HlOajkpcBUs3YBT0pAuSDF5TmhjDcIlK7AK8pzQDmWcSF9gFPRDC1IQXlOaj13OZST9gFSf43Z7HlOajkpcBUs3YBT0pAuSDF5TmhjDcIlK7AK8pzQDmWcSF9gFPRDC1IQXlOaj13OZST9gFSf43Z7HlOajkpcBUs3YBT0pAuSDF5TmhjDcIlK7AK8pzQDmWcSF9gFPRDC1IQXlOaj13OZST9gGG3JBiQ4ZcRHJXiWRdPY+rkf1tetNuFrZkbK6wQG+6JemR/KA0noyfQhFnn+P0wgFlsOjiF6b6gScNL4QtBLXuj+XUdbe/VaRU9LMWlA9TdZg6QLsjqJA4/wBNFWq1RHJXiZ+PiI4y8SXNLgHsBy25IMSHDLiI5K8TPx8RHGXiS5pcA9gOW3JBiQ4ZcRHJXiZ+PiI4y8SXNLgHsBy25IMSHDLiI5K8n9g2I3mixL8ZGIz6ek9FT9bUM3hzbZVyDGUaxk1HDk0/PSkQTOhYbo8/0xZ1NSd45Uk9vF6OktGsTuRasB1T0Lo9k5baPc6il3U+vUS9IT7bVGno+YBR51tpDV646T/l1I6Tz8/qm8vCaXgWulYBjCtTsgad66gC3phb0SC0UmpfjIxDfIxL8lGI/hiw55J8n9g2I3mixL8ZGIb5GJfkoxH8MWHPJPk/sGxG80WJfjIxDfIxL8lGI/hiw55J8n9g2I3mixL8ZGO+CikBcJUp8VzTIRAuRkL3wVIrQ4ClAPFc1G/jd7vrMGpcSikssLY/kNgmrrxDWZaoZyqP53v9K6Q6ek9M6RUiSrrxATEtGxL9h0X1DrAkuKIafwNI2YycYyLjqIlDXrLpkyaQi4pVwpSDBv8AS1SK0OApQDxXNRv43e7/AHwVIIucyVA8VzTIogtRjL3wUcBlnKtHiua74KKQFwlSnxXNMhEC5GQvfBUitDgKUA8VzUb+N3u/3wVIIucyVA8VzTIogtRjL3wUcBlnKtHiua74KKQFwlSnxXNMhEC5GQvfBUitDgKUA8VzUb+N3u/3wVIIucyVA8VzTIogtRjL3wUcBlnKtHiua74KKQFwlSnxXNMhEC5GQvfBUitDgKUA8VzhtyQYkOGXERyV4mfj1egI+rddRJfxyDV11iLPNHIfozfQ2sPAbyKP/wDbV/f/AOaW6J6Yj2AFzodEaLZei7epnq2zRISsA4ZT3U9kwRIjaf8AjnXMqJ/D2+v0t9c3QhV03VjrA/7XUq5sSKfQRzayaiOSvEz8fERxl4kuaXAPYDltyQYkOGXERyV4mfj4iOMvElzS4B7ActuSDEhwy4iOSvEz8fERxl4kuaXAPYDltyQYkOGXERyV4257QmTkJBlJuLOnLkLsKgA257TQZGBFFc7izp5+w7fi7c8pF0thXGaKdC89YkamiLTWnJiKTa/1tbOmNean0ir0xeoJx7qWYdzD/pp0ugdQaeaT72nLgLNsd0fVeptaaGkd+Z6kjobq9ZE1pRlfqJ0vdreWgZbQPV1qtEjFx4oiPAwF/Lqk7Q+19qMyI11Z9HsniZSyfJ7KEM3N7U0GRgRRXO4s6efsO34u3PaZlQwEoTncWdOWxnZlnBtz2hPWoBIEvcWdbc9oTJyEgyk3FnTlyF2FQAbc9poMjAiiudxZ08/Ydvxdue0zKhgJQnO4s6ctjOzLODbntCetQCQJe4s6257QmTkJBlJuLOnLkLsKgA257TQZGBFFc7izp5+w7fi7c9pmVDAShOdxZ05bGdmWcG3PaE9agEgS9xZ1tz2hMnISDKTcWdOXIXYVABtz2mgyMCKK53Fng/sGxG80WJfjIxDfIxJ2+9agE8aRaGxreKvCavno/wDj0d6gs9MnPBy5OpmhGsghiXVmsZjSJmU82mNZ20w7svSMH0+c6osnUug49MjtLUEzfp3o5tMNZpl/Prxp6LYBhZFloQ6HOitNFtKosl/HrsO/9VL8ZGIb5GJfkoxH8MWHPJPk/sGxG80WJfjIxDfIxL8lGI/hiw55J8n9g2I3mixL8ZGIb5GJfkoxH8MWHPJPk/sGxG80WJfjIxu7avOAZKgp2hzQ2hGBEuS7u2o50SKOyHaHNB/Verv7u2pwi8grvDeRprpVQC3KARL9eYm7PVbSSRepOMew74zB9nQPRtzqaN3aYdi1N0enbsja00aiIE0noToJHPWULLyJ6WcIyiArOkpm+odNxMss+uottrZro7Eq/BCRT+UP1zlgvojSHa6Pu0l6eQ9qmUJEhsehSIfpS1pkR2ADaHNB/Verv7u2owVSau8HaHNDdjYIs2Lu7alRx3ClGRtDmt3bV5wDJUFO0OaG0IwIlyXd21HOiRR2Q7Q5oP6r1d/d21GCqTV3g7Q5obsbBFmxd3bUqOO4UoyNoc1u7avOAZKgp2hzQ2hGBEuS7u2o50SKOyHaHNB/Verv7u2owVSau8HaHNDdjYIs2Lu7alRx3ClGRtDmt3bV5wDJUFO0OaG0IwIlyXd21HOiRR2Q7Q5w25IMSHDLiI5K8TPx8MLfjKpyn6pvUMb1gKK/XuI8zTDGURpTSAdXwU6hjqJgjVvS+A1S2x0q0fG6snr7na1k2ta3WPXsI687SN+h70htCWEtpIsHEg+jg11Qkl6cFpjUg5HqW80lrdTCaAYTkIjgqKi4/T8a3i43WU0SN6rvpi/TzXIdcxzx0nqO0dPNGSbJr1J6aWmW7+dX0BfIXpaUaXnE+uNPQb/1URyV4mfj4iOMvElzS4B7ActuSDEhwy4iOSvEz8fERxl4kuaXAPYDltyQYkOGXERyV4mfj4iOMvElzS4B7ActuSDEhwy4iOSvGzVtvjffrea8zcPxa2auztX363mv+3rZqWTbU+PRn/1teoUl0unCq1bB7/pWajK6eaoTpLVLGTMxhGjDVU4yqdiDwEzIxDigmM2MJw36X9WlzJgwGpOrsSeL11JrXBKdxnQabds/8fGVkQU2+xr6EvqLSE1GD822qend2ZekXUfYHA9PzGOqrRTPX8+i/QBAP+MSyrEGMqbJJMdTtT6xtqnT0L/j7IWFLT7CnIu82OKmzD1JtQ07b9T1vNf9vWzV3tq+xW814e4flVs1bl432K3mtmrbfG+/W815m4fi1s1dnavv1vNf9vWzV3tq+xW814e4flVs1bl432K3mtmrbfG+/W815m4fi1s1dnavv1vNf9vWzV3tq+xW814e4flVs1bl432K3mtmrbfG+/W815m4fi1s1dnavv1vOD+wbEbzRYl+MjEN8jEvyUUu31tTVfj3bGx1BhbQOspxgjprPPp/RYGzbrGaKfaoaS0XjpvCtZTU0a4d680PF6xiEAet2mnmHS+Z0yx6EFGPRD5d+p/VO8qu8Lpvo31GMYv/ABmd6gwjnRWspMDL6fX+q6b31KHSLMOpa61aGJNMLamYdB2BnOrXbu0+dcdp6afp6X6RBpTTDT66CUjTXV8scig27a1jp/f7CcQ3yMS/JRiP4YsOeSfJ/YNiN5osS/GRiG+RiX5KMR/DFhzyT5P7BsRvNFiX4yMQ3yMS/JRiP4YsOeSfJ/YNiN5osS/GRjd3NJkTuFJCvaG1EaDYIu5Fu7mhGVJKuE+0NqN+q9PY3dzQAJkUd4xI1va/0S+IpvdQERDrzI8Bb9f4C3oh9Qi6U6i/47rNgsnXLSSIqZBPs89Jdeks6RpCf6i9OXuinqjhG9ehanZi+l7WtehkIIiCiaRrbrH08jjPozohp0Om1sH7Fbu7Jsp/V7WVa6VQWmYDTInIYQwAuQlAeuqtr6Z6oAlwoWkiErQ/OVpIEQkBPOV2jbQ2o36r09jd3NAAmRR3jbQ2ojsjAimwt3c14IDJSZW0Nq3dzSZE7hSQr2htRGg2CLuRbu5oRlSSrhPtDajfqvT2N3c0ACZFHeNtDaiOyMCKbC3dzXggMlJlbQ2rd3NJkTuFJCvaG1EaDYIu5Fu7mhGVJKuE+0NqN+q9PY3dzQAJkUd420NqI7IwIpsLd3NeCAyUmVtDat3c0mRO4UkK9obURoNgi7kW7uaEZUkq4T7Q2w25IMSHDLiI5K8TPx8RHGXiTT9XBK025sFy4aL1hAI1PpuUiFLQtF1DI8co6kdHDub5EYrcozhjX7HVOmmTo/U3pefSJVysVpLU7aEMVlLg6OdPdQt0S0Lp+AjdKRIIiL/n/kHE/UEFMo6YTNpfQkIdc+CyLtTJi7/dViZ+PiI4y8SXNLgHsBy25IMSHDLiI5K8TPx8RHGXiS5pcA9gOW3JBiQ4ZcRHJXiZ+PiI4y8SXNLgHsBy25IMSHDLiI5K8bczorJqASyo3F7TZyZ2ZAD7czp4JDASSttxe0z/AGHc8rbmdOyEYESJtuL2kAG5CkpVgG0cCcjSqyk2UnrFpu8DrBw6H0wm3OiJKM3TW2nlaW1RKRP8OnHVptpfT+1TGpuo2ptSSjh5WmpCPi5+OeymoXrrpDrdB9PQkyx1BFM5Zh/PqbC77oiabJ/x+m/6nIBUgBDhqtKr2S2EkgLSLy1vpZn+w7nlbczp2QjAiRNtxe02bBdhSc+3M6K9chIQQ9xe1tzOismoBLKjcXtNnJnZkAPtzOngkMBJK23F7TP9h3PK25nTshGBEibbi9ps2C7Ck59uZ0V65CQgh7i9rbmdFZNQCWVG4vabOTOzIAfbmdPBIYCSVtuL2mf7DueVtzOnZCMCJE23F7TZsF2FJz7czor1yEhBD3F7W3M6KyagEsqNxe02cmdmQA+3M6eCQwEkrbcXuD+wbEbzRYl+MjEN8jEvyUYaW/FHTof1teoJ33gHaq6xaZ3/AEgd0HpwBtrPTM9oV3NzN5aIHGT2ehOoWbyAPp5epekekNRJUUcp0J1g0NezDrDAO4vR+h7OOgDoxNOyzVf/AKI0t+nHVH0EqQR2PqOrVDfIxL8lGI/hiw55J8n9g2I3mixL8ZGIb5GJfkoxH8MWHPJPk/sGxG80WJfjIxDfIxL8lGI/hiw55J8n9g2I3mixL8ZGPKc0A5lnEhfYBT0QwtSEF5Tmo9dzmUk/YBUn+N2ex5Tmo5KXAVLN2AU9WQTkg0FKa9qZrsychPV7Wva9ryrc/SvqSgwOtsC2FJx2qY7OlNQE0tPsplGnur+jJ70DLa9r2+ttd6X/AOVaVfxSOicweBmZXSMwpaBp9S9S60gtHHjUTUNOw+oWdnsRHTUbLtiOY/Ot9eu9Eag02A3XiKQ01W0fj6c6htqDRkQ8U9boKP10IYL2p+vs2FcHlOajkpcBUs3YBT0pAuSDF5TmhjDcIlK7AK8pzQDmWcSF9gFPRDC1IQXlOaj13OZST9gFSf43Z7HlOajkpcBUs3YBT0pAuSDF5TmhjDcIlK7AK8pzQDmWcSF9gFPRDC1IQXlOaj13OZST9gFSf43Z7HlOajkpcBUs3YBT0pAuSDF5TmhjDcIlK7AK8pzQDmWcSF9gFPRDC1IQXlOaj13OZST9gGG3JBiQ4ZcRHJXiZ+PiI4y8SXNLSrUUXqbjqNd2K1TZfW7St5nTqJltpc69d9OZbR67X+v8dLa+1PpBaLRukusWmNR2QB/1W0P/AMphvPYvZiXk1CI+6i67HrdcEoWmdSSelJdvKR2opsug9YR+soaBnovUsWCUi8dV9Hm1TpVaWXWKO06fSVry/QnVG3zTrTzmiD8c3pqQv9eziI4y8SXNLgHsBy25IMSHDLiI5K8TPx8RHGXiS5pcA9gOW3JBiQ4ZcRHJXiZ+PiI4y8SXNLgHsBy25IMSHDLiI5K8n9g2I3mixL8ZGIb5GJfkoxH8MWHiPqU1RTvbpJF1EGMw1iLLtpDpV1B9bLqdphqhbbWUD/KB1/q7TQrAjVqutalqw0m4qe6QP4N/0y1yfR84JB89QgaqezsjOTLV04Yum7xro/ULTVOnmMu2fM0Om10WilXtcyVVL8lGI/hiw55J8n9g2I3mixL8ZGIb5GJfkoxH8MWHPJPk/sGxG80WJfjIxDfIxL8lGI/hiw55J8n9g2I3mixL8ZGO+CikBcJUp8VzTIRAuRkL3wVIrQ4ClAPFc1G/jd7v98FSCLnMlQPFc0yKILUYy98FOQEUYt0u2ZVJv9YyQS5bXtfrJo++otO7k06S6kYGs70PP660Y+0TM3ZG/hozQTiYm2LOfhIB6yjEwM7NdHdDTF1kRrrR8NpMyBMcR8c9l3oI+PZhI3ZNW5MOG4HICt3HU/QN9HzYtv6TawJo/UR4WWpyEYCrdJQ4Df6VIJW5MlYfFc0yKILUYy98FHAZZyrR4rmu+CikBcJUp8VzTIRAuRkL3wVIrQ4ClAPFc1G/jd7v98FSCLnMlQPFc0yKILUYy98FHAZZyrR4rmu+CikBcJUp8VzTIRAuRkL3wVIrQ4ClAPFc1G/jd7v98FSCLnMlQPFc0yKILUYy98FHAZZyrR4rmu+CikBcJUp8VzTIRAuRkL3wVIrQ4ClAPFc4bckGJDhlxEcleJn4+IjjLxJc0uB/S7cFGR6rXpi8vFv0GvXU7SCtG6mVdnpx/G9YdDniJeXiX0FKPIp/npT1AmYMw4t5XU1sxfadJFHfMSRzojYlaVltOsHiBai0210mCOA90z/DWESKWYxvr6wdNjTP11JB9Htf/wDIozZJJSUrSpCnTZTJxcV41d/HVbElzS4B7ActuSDEhwy4iOSvEz8fERxl4kuaXAPYDltyQYkOGXERyV4mfj4iOMvElzS4B7ActuSDEhwy4iOSvG3PaEychIMpNxZ05chdhUAG3PaaDIwIorncWdPP2Hb8XbntMyoYCUJzuLOnLYzsyzg257QnrUAkCWt21p1HOL2vUE6L4qmbjX+kg6y045j60zqCT0PqMT8fVuBvqpnEa103nSr/AFHHzQC6a0H1LjdYIsxc6o0pBaqjvBltf9Pn2hXYLExofqFM6HcL8aK6xaDkw2WSOfsZNmJ4w/h1e04905KsNe6e0Vq+P1jBBkWz1oh2G6LtC2aJUJwJ+zt9bqctjOzLODbntCetQCQJe4s6257QmTkJBlJuLOnLkLsKgA257TQZGBFFc7izp5+w7fi7c9pmVDAShOdxZ05bGdmWcG3PaE9agEgS9xZ1tz2hMnISDKTcWdOXIXYVABtz2mgyMCKK53FnTz9h2/F257TMqGAlCc7izpy2M7Ms4Nue0J61AJAl7izrbntCZOQkGUm4s6cuQuwqADbntNBkYEUVzuLPB/YNiN5osS/GRiG+RiX5KMR/DFhzyT4Kj1WpxcjNdnIm7kTpuM4euGh/HNbVrDovrnZpO2nH/Wfp6CNtfVMRgJjNzCOCO6iQU2QFtcQ0/CzrJLuI17oFlriMEAk5ByenZNxFyn1tnRetZbRUmh2zjJljNxjSTjsyLBlLMHTB63eTvR7W5wWi5iPmoxtJx0qwu4T3woX6qYEtZmK2HPJPk/sGxG80WJfjIxDfIxL8lGI/hiw55J8n9g2I3mixL8ZGIb5GJfkoxH8MWHPJPk/sGxG80WJfjIxu7avOAZKgp2hzQ2hGBEuS7u2o50SKOyHaHNB/Verv7u2owVSau8HaHNDdjYIs2Lu7alRx3ClGRtDmlPwU5OI6VDTCELHOFNjPGrZ60Ozda50g60bOnjS6An2vUTRJ2Em/YnjH7yPc5j5GQiXSHkdojrg0cpEw1X1wi5N+/Zanbadndgf2dLZ6U6X9RgeuA1boDUmjV/WQr/H2XORpOQxP4dVtDW1hCWcsemPUEui5O7Z6EwXARHBIxt1L8kAXQ2yLBXu7alRx3ClGRtDmt3bV5wDJUFO0OaG0IwIlyXd21HOiRR2Q7Q5oP6r1d/d21GCqTV3g7Q5obsbBFmxd3bUqOO4UoyNoc1u7avOAZKgp2hzQ2hGBEuS7u2o50SKOyHaHNB/Verv7u2owVSau8HaHNDdjYIs2Lu7alRx3ClGRtDmt3bV5wDJUFO0OaG0IwIlyXd21HOiRR2Q7Q5w25IMSHDLiI5K8TPx8RHGXiS5pcA9gORp+pR07b2Va9RT27kVxF1/olprKBIzrQupnegNW+t71pg7R+q7Szf8AjC6mnNPWMiNv9L3ve3/7a9QHVnVEQG7KQj2HRrWBUWto/Q8Jods6HFZlGA5SNfxxelOuncU/voPUfWPpuuyz6shOkPUm0KYWm5mpSPWNSnQUq+tN7/UAstuSDEhwy4iOSvEz8fERxl4kuaXAPYDltyQYkOGXERyV4mfj4iOMvElzS4B7ActuSDEhwy4iOSvGzVtvjffrea8zcPxa2auztX363mv+3rZq721fYrea8PcPyq2aty8b7FbzWzUuN7H1LYr6yrV5RhuRkA3ONyJJUdZun26gXqiK6cScTrrTxNA6klOher2S3N2KkLGtSF1EshSUrHsDF/x8hLgtYMv0D1E0tdcVNadndOn7EwNFykGO05o7U+nEWLKwGmJrVBytoZgjq301tYiNKdc4KR7LWebuW7sA3DXHVjpy8kio1TpzTMquc0/EyhOrnTEML3dRwXSPqcg9m+mZ+ncSlJLlCiQsL6Drea2att8b79bzXmbh+LWzV2dq+/W81/29bNXe2r7FbzXh7h+VWzVuXjfYrea2att8b79bzXmbh+LWzV2dq+/W81/29bNXe2r7FbzXh7h+VWzVuXjfYrea2att8b79bzXmbh+LWzV2dq+/W84P7BsRvNFiX4yMQ3yMS/JRiP4YsOeSfJ/YNV7UIVlHRTVyqOcXVe17Kta9uqOinWiZkGqtOaC1mz1rCDeC636P2iZHqFpjSHW2TgmI46Z091G0ZPgQtsdozkGxAOuomj+lgGLxzfQPU+U0osDB9NdPtD68EuR0LuXVvpe0/ZOdU9LZwjpzKg1YPST8Z9C6M60QE1YTOaz1BipmU0fLtof+r2rpp1h9NgQeqqkIuyrqO2sq9r3Tej+wbEbzRYl+MjEN8jEvyUYj+GLDnknyf2DYjeaLEvxkYhvkYl+SjEfwxYc8k+T+wbEbzRYl+MjG7uaTIncKSFe0NqI0GwRdyLd3NCMqSVcJ9obUb9V6exu7mgATIo7xtobUR2RgRTYW7ua8EBkpMraG1bu5pMidwpIV7Q2ozUbVFzIcuCqteoGUXY/hOJKNYSke5j5B801D0b1mg7dpJaa6maUMm2oeiuqIchzM8/S1fS2GlgXdt/IkdCa4fw/lQZwHanK3c46ddVH2lShjZVg/ZSLID5jjq90zM0O71VCV086uP9MdqMl4mRjphiCRjXMcB1ZN7mdPWi/QYUiYv0ArbWn0+tiNBsEXci3dzQjKklXCfaG1G/Vensbu5oAEyKO8baG1EdkYEU2Fu7mvBAZKTKVGtLW/rd3NJkTuFJCvaG1EaDYIu5Fu7mhGVJKuE+0NqN+q9PY3dzQAJkUd420NqI7IwIpsLd3NeCAyUmVtDat3c0mRO4UkK9obURoNgi7kW7uaEZUkq4T7Q2w25IMSHDLiI5K8TPx8RHGXiS5pcA9gOW3JBh+i1mZaWn62obf1FXUVIXcW7BtV6aitVw5YuT9erukmpyDRpXXGm+ocYdpbqD06kNEvLlH/ABaM3j86WzJq8kIl1crR6/fSThTp/TroBqYY7Kbah0RqbSqErmemPUU2jH3hvQGC5AI4MdQeinfWeV0lPzU7KlbtpzS2sJ7R7y7qJ0V1PgNYpQCyxoIm6FliVgKgrdK6eKt4hcRHJXiZ+PiI4y8SXNLX1oRPsi+v/wA6u0eJ/wBt1/RwLEhwy4iOSvEz8fERxl4kuaXAPYDltyQYkOGXERyV425nRWTUAllRuL2mzkzsyAH25nTwSGAklbbi9pn+w7nlbczp2QjAiRNtxe02bBdhSc+3M6K9chIQQ9xe1tzOismoBLKjcXtNnJnZkAOVgzt9LJegQ3HZYTldIVZaIaXHJCuMmqNIw2rYxcfJam0xqDp9NhQfQWtovqPBuISdm+gMu2SY0JJxcjDPSsJPLB+9inrd+wt1P0vqptZrrzU0ZppkZBdOV0u6sRyY1tAak6hdK9Qy0u81JBPNO6gjvr53SPVWqoUyIgudV6I0zq8X0lNTdENTRN1nhnLZ0wcrbu9G9bJmF9DOfgNRwOo2V3kMpCV/7Kxc2V9L2atrX+lzelmixG+5PKZ/sO55W3M6dkIwIkTbcntIQNyNJjJZBJf+kDQJNkpw/ajIhRkjkHN/pezZyZ4ZAD7czp4JDASSttxe0z/YdzytuZ07IRgRIm24vabNguwpOfbmdFeuQkIIe4va25nRWTUAllRuL2mzkzsyAH25nTwSGAklbbi9wf2DYjeaLEvxkYhvkYl+SjEfwxYc8k+T+wbEbzRYkx3S3Qq5RWVamwVjWsg46VQ5t2jTsLF6hjSx8tq7Quo+msqKXjNBdXYfUYgsZnV+i4bWUZdk/wBQwL/TMw8iJD+cdMzEPdSotr1f6hNfRahdeNaDTay+l2r9TazbPX0p/CTg4WbB2JSZ6EaSfWWqM1RpnUPS6fbrbaR673HYTTVUTqKFn2lncRe1r/7dR1jo9CCx70P+41f0ua17KqTX6zovSlWtUaG5m41KrXPWhtH3JG6XldS6gnCqLKdItV6oJq2OiFUJVvUq1o3mCxL8ZGIb5GJfkoxH8MWHPJPk/sGxG80WJfjIx5TmgHMs4kL7AKeiGFqQgvKc1Hrucykn7AKk/wAbs9jynNRyUuAqWbsAp6UgXJBi8pzQxhuESldgFeU5oBzLOJC+wCnohhakILynNR67nMpJ1twXve9pIVh2H2nCDfX62hZxZUWC/KELgJQH6hdFzsLkldKQmstU6e9O0zuoJjUr7cJj/wBN66Yupp5ppgV5/LUsBFaniXEVKaz0PM6Jf3bvmb15HnS5Y6f66aojfQKYgusGipz0jWMozDQUV02V/tccMl7+izBY039fhpuv6EtaybWtbqj1SvJ3Pp/T1f6ro/ocumY0sxJP3aGTb13aBBZNrU4sgQFrHd24v/V2wnV1X8iwwU9JcPb7PluaZqsYSrlugF/6p2Yg3BEB8pzQxhuESldgFeU5oBzLOJC+wCnohhakILynNR67nMpJ+wDDbkgxIcMuIjkrxM/HxEcZeJLmlwD2A5bckGJDhlxEcleJYfo7FLHZVBaWUBdMpMzG9gnQtBEJWjqF0jYan7snDSkVJQr0rCTqJ0/MT1nW1OWzlk4I2d/xalgbBsl458P1Wu00r1I1TpFKAMpP/IGbIVG09POoTDXDFaMT+qIrTVm4TupBhFtEOpNfVLp+E1gXjtWaZl1oHHPoxhKMzMZDU3QOyyLPph10r1+0vb1vdA6ujI5xJyMTPTUETuRMP111ex9KJKJ696Xd+hEnGa90ZMpRdla9r2te3Vfqeh3Y+mtP46N6AFIXRqqVpYhk+nr8YNv/AKuGCyiWhDNhZte6yUtFl/7cx4y+n1qh2qLf2NmICL2QoX0/0/Ssbpdl2vQPYDltyQYkOGXERyV5P7BsRvNFiX4yMQ3yMS/JRiP4YsOeSfJ/YNiN5osS/GRiG+RV7VJotcyaO2tf61HldR40qAxlWru1kVqXTEFqdj4MtrLpBP6Zut9FRUhpiYMBbt9qe9mraH6ozfSM62W86MMEzcxAH/npfUb7Sk40mGUl1x0k3ikuI6O6lGYOn+oDS8zKz71b+WEIpyjCGJ6E6lfxZXj+A6i6x05cdmemevEO9sgGo2EgwlWqHcfPQMdqWLcxUnPdAphstZYGV0Pq+E9V39r2vhtIyDIZRtPra1XtdN7WV9bVpjrBqfTEW2iROev+pl2tZqHrjroS0qVD/wCQSrehE5E9VdAyKU2TL9V9DQgbrqT6rase6iFONYj/ACCYXDa03br1oq1L6/6St7aOv+nrEUmtJdRtL6wVdtHLRZab2oS/raj3+py5P7BsRvNFiX4yMd8FFIC4SpT4rmmQiBcjIXvgqRWhwFKAeK5qN/G73f74KkEXOZKgeK5pkUQWoxl74KOAyzlWjxXNd8FFIC4SpT4rmmQiBcjIXvgqRWhwFKAeK5qN/G73f74KkUqcHSoCmp/9XGIaQJQtwEP+7NJ5+0WoTtu7buh2KHWPSfTWrFFdIdxfUHpZc9lw83pM7nzYWWf2kmCL9QXXSQMwzXKaElIiUhHPiyn/AKdC/wDCun+lGOrJlGq4Melw6nM4WIjg5BLauRAA5Jp9jrWOYO9TwbLrnrlra1jwvX6Kc+kU4x6gaJkhWI21lqLpERuVU1MEiiyjwkNBbNvDG87G9UOlMGzsOLB1s0Fe9kXLrzo9MXtZ45i+hkt9CLmNG9EAWuepm0MmRMmD/hCN4Jy8SObHBdExot3nI+ize/pFME00pVkQejHB2ur9OmbV3xWcGTdYTEKS6PFc13wUUgLhKlPiuaZCIFyMhe+CpFaHAUoB4rnDbkgxIcMuIjkrxM/HxEcZeJLmlwD2A5bckGJDhlxEcleJn4+IjjLxIJtZ2W1ljtevFsoI6uAzYligj9VW/oUklQXAvqnU/RbSs36zxrnSfU/pscjqL0t1hiGsh5s3HTWjNbM1t2uoOhOmZH1FhnHTib0pc+8xuhtA6rSi2nZLonrtjx3+mtRRdrqf/wAPpaiPXpmrdmXSb/T8ZNt3moda6ve6yl1PTzer5meYR0WeozQDFlBi1JrJxcCzmU3/AP6AhkOVAQ9OOmOpbz0XNS172tb63GXvmKam3siy25IMSHDLiI5K8bc9oTJyEgyk3FnTlyF2FQAbc9poMjAiiudxZ08/Ydvxdue0zKhgJQnO4s6ctjOzLODbntCetQCQJe4s6257QmTkJBlJuLOnLkLsKgA257TQZGBFFc7izp5+w7fi7c9pmVDAShOdxZ05bGdmWcG2vKscA0JGshmqqNEuKbikowvdbtdUM1/RDxBEFQlY57QOkdSXUSTmugNw3s505ac606E58P1/g3P0RMP19H9f2+p3vTnX+lrWPom2sutsH6BSOq9fQs7ZYdRW/wDS6ePHqgqd/wDrYRMtLXVaNJo3V4kesivqhSkq0r0l1ZqcYnd4zoFppuhF5Fr0u0BHXssTONjI1FxRy1oGm6yScvd4JTaPbMHNrWpu5aiSlBdxZ1tz2hMnISDKTcWdOXIXYVABtz2mgyMCKK53Fng/sGxG80WJfjIxDfIxL8lGI/hiw55J8n9g2I3mixL8ZGIb5GJfkoxH8MWHPJPX0pSLXp0C1wlorS16Y2dM3NrtgT5x/SzpvKsXX0sOpnR2lJ2xFSst0F0q8uRcaXojrOHNckBdn1507a67E6rdTYUVwTtupul3iL2l0y/RB5ayDBgOhT29vQ36YdI3d7WbsuiWgg/Qt5boroR6BCGr7/HyVRwP/AGrKB/j3Jq5P/8AHe9TfQ99FD7g3zIse6W2L/D62q393+lozRGr5hSLMYPoFMufQWcheluiIL0qElKUJslNSGn4OWO3cyClJQm6lE1HG+pSQ31Ab6ekT2embrskZLOni7KcxjX6Nx0hH0tR7fQ5rZP7BsRvNFiX4yMbu2rzgGSoKdoc0NoRgRLku7tqOdEijsh2hzQf1Xq7+7tqMFUmrvB2hzQ3Y2CLNi7u2pUcdwpRkbQ5rd21ecAyVBTtDmhtCMCJcl3dtRzokUdkO0OaD+q9Xf3dtRgqk1d4O0OaG7GwRZsXd21KjjuFKMjaHNbu2pTsB7XEm8YavAU2VYxCEBenDVD1PbGC00w/pujUzpqmyXrfU0Of6JUI4TIssOH8FAP1ep8+6Z6Bd/2V50W0Aa1/QboBpC/9oP8A49tU39bb/wAN6uZf1G36bdYA/wBhdaL64Ate416S67K/2Xpr1ckUX84XQvW5retaegOsL/7B/j4/+W0/x6jkc1p0J0QBfqKx6X6Bj13WFpHxkWjtx1XvZNrqUaciQX9KnOol/wB2ZFfTar9wqZF2NVlpBqN8pNx2fXlZX6IO3ZWZe6lbe1XY+ZexBJiS2oZRtE2Asck1R/dKjjuFKMjaHNbu2rzgGSoKdoc0NoRgRLku7tqOdEijsh2hzhtyQYkOGXERyV4mfj4iOMvElzS4B7ActuSDEhwy4iOSvEz8fERxl4kuaXAPYDltyQYfC+jMir3TTEdrmVS26b1JtLfapbO1M2N7DUpKDyQPbXqSXblUhQ9Yrt/Rh6kZrSm9xzMV9P7RMwqremw38cT6eixRK/8Ar6rYve1v93IhNvre7xmP6evdohNv7RNxFk/VFp2PHa/pLqtqC6kDJq92r2bTEuZCVUo8mX/7qarMr1FbMvuiobK1qdNU2bLq7e1MGtrmVSG9rVIDtbtV6ajB2u3Wq9SXNLgHsBy25IMSHDLiI5K8bNW2+N9+t5rzNw/FrZq7O1ffrea/7etmrvbV9it5rw9w/KrZq3LxvsVvNbNW2+N9+t5rzNw/FrZq7O1ffrea/wC3rZq721fYrea8PcPyq2aty8b7FbzWzVtvjffrea8zcPxa2alN7Rtu9e8javTuFXirUq1mP2qU5TV42zv79Xg7Uq1hfbq97VeCq8L2vuVeya8ZLr7Nf8fRW1IZfcr6JqzCz2rQVeL4X26sq1JirOvvVaDtVlJD9qrOU1aItVo6wfu1Z/akG81Vm1bLS2u22sarSNv/ANSm0p/VtmrvbV9it5rw9w/KrZq3LxvsVvNbNW2+N9+t5rzNw/FrZq7O1ffrecH9g2I3mixL8ZGIb5GJfkoxH8MWHPJPk/sGxG80WJfjIxDfIxL8lGI/hiw55J8n9g2I3mixL8ZGIb5GJa1rOUWtTNP4oq9NOEffLXotXbtRxW7Ja7VqZht5I67NqkAp7Ka7VqjhW+7XatUgi3eTXotTJH4w69FOE/Q5rV9MHt9G5sRvNFiX4yMQ3yMS/JRiP4YsOeSfJ/YNiN5osS/GRjd3NJkTuFJCvaG1EaDYIu5Fu7mhGVJKuE+0NqN+q9PY3dzQAJkUd420NqI7IwIpsLd3NeCAyUmVtDat3c0mRO4UkK9obURoNgi7kW7uaEZUkq4T7Q2o36r09jd3NAAmRR3jbQ2ojsjAimwt3c14IDJSZW0Nq3dzSZE7hSQr2htRGg2CLuRbu5oRlSSrhPtDajfqvT2N3c0ACZFHeNtDaiOyMCKbC3dzXggMlJlbQ2rd3NDekMpIVbQ2orMLIanIrSRrUBe4q7BdobUdKYz0dnd3NAAmRR3jbQ2ojsjAimwt3c14IDJSZW0Nq3dzSZE7hSQr2htRGg2CLuRbu5oRlSSrhPtDajfqvT2N3c0ACZFHeNtDaiOyMCKbC3dzXggMlJlbQ2rd3NJkTuFJCvaG1EaDYIu5Fu7mhGVJKuE+0NsNuSDEhwy4iOSvEz8fERxl4kuaXAPYDltyQYkOGXERyV4mfj4iOMvElzS4B7ActuSDEhwy4iOSvEz8fERxl4kuaXAPYDltyQYkOGXERyV4mfj4iOMvElzS4B7ActuSDEhwy4iOSvEz8fERxl4kuaXAPYDltyQYkOGXERyV425nRWTUAllRuL2mzkzsyAH25nTwSGAklbbi9pn+w7nlbczp2QjAiRNtxe02bBdhSc+3M6K9chIQQ9xe1tzOismoBLKjcXtNnJnZkAPtzOngkMBJK23F7TP9h3PK25nTshGBEibbi9ps2C7Ck59uZ0V65CQgh7i9rbmdFZNQCWVG4vabOTOzIAfbmdPBIYCSVtuL2mf7DueVtzOnZCMCJE23F7TZsF2FJz7czor1yEhBD3F7W3M6KyagEsqNxe02cmdmQA+3M6eCQwEkrbcXtM/2Hc8rbmdOyEYESJtuL2mzYLsKTn25nRXrkJCCHuL2tuZ0Vk1AJZUbi9ps5M7MgB9uZ08EhgJJW24vaZ/sO55W3M6dkIwIkTbcXtNmwXYUnPtzOivXISEEPcXtbczorJqASyo3F7TZyZ2ZAD7czp4JDASSttxe4P7BsRvNFiX4yMQ3yMS/JRiP4YsOeSfJ/YNiN5osS/GRiG+RiX5KMR/DFhzyT5P7BsRvNFiX4yMQ3yMS/JRiP4YsOeSfJ/YNiN5osS/GRiG+RiX5KMR/DFhzyT5P7BsRvNFiX4yMQ3yMS/JRiP4YsOeSfJ/YNiN5osS/GRjynNAOZZxIX2AU9EMLUhBeU5qPXc5lJP2AVJ/jdnseU5qOSlwFSzdgFPSkC5IMXlOaGMNwiUrsArynNAOZZxIX2AU9EMLUhBeU5qPXc5lJP2AVJ/jdnseU5qOSlwFSzdgFPSkC5IMXlOaGMNwiUrsArynNAOZZxIX2AU9EMLUhBeU5qPXc5lJP2AVJ/jdnseU5qOSlwFSzdgFPSkC5IMXlOaGMNwiUrsArynNAOZZxIX2AU9EMLUhBeU5qPXc5lJP2AVJ/jdnseU5qOSlwFSzdgFPSkC5IMXlOaGMNwiUrsArynNAOZZxIX2AU9EMLUhBeU5qPXc5lJP2AVJ/jdnseU5qOSlwFSzdgFPSkC5IMXlOaGMNwiUrsArynNAOZZxIX2AU9EMLUhBeU5qPXc5lJP2AYbckGJDhlxEcleJn4+IjjLxJc0uAewHLbkgxIcMuIjkrxM/HxEcZeJLmlwD2A5bckGJDhlxEcleJn4+IjjLxJc0uAewHLbkgxIcMuIjkrxM/HxEcZeJLmlwD2A5bckGJDhlxEcleJn4+IjjLxJc0uAewHLbkgxIcMuIjkryf2DYjeaLEvxkYhvkYl+SjEfwxYc8k+T+wbEbzRYl+MjEN8jEvyUYj+GLDnknyf2DYjeaLEvxkYhvkYl+SjEfwxYc8k+T+wbEbzRYl+MjEN8jEvyUYj+GLDnknyf2DYjeaLEvxkYhvkYl+SjEfwxYc8k+T+wbEbzRYl+MjHfBRSAuEqU+K5pkIgXIyF74KkVocBSgHiuajfxu93++CpBFzmSoHiuaZFEFqMZe+CjgMs5Vo8VzXfBRSAuEqU+K5pkIgXIyF74KkVocBSgHiuajfxu93++CpBFzmSoHiuaZFEFqMZe+CjgMs5Vo8VzXfBRSAuEqU+K5pkIgXIyF74KkVocBSgHiuajfxu93++CpBFzmSoHiuaZFEFqMZe+CjgMs5Vo8VzXfBRSAuEqU+K5pkIgXIyF74KkVocBSgHiuajfxu93++CpBFzmSoHiuaZFEFqMZe+CjgMs5Vo8VzXfBRSAuEqU+K5pkIgXIyF74KkVocBSgHiuajfxu93++CpBFzmSoHiuaZFEFqMZe+CjgMs5Vo8VzXfBRSAuEqU+K5pkIgXIyF74KkVocBSgHiucNuSDEhwy4iOSvEz8fERxl4kuaXAPYDltyQYkOGXERyV4mfj4iOMvElzS4B7ActuSDEhwy4iOSvEz8fERxl4kuaXAPYDltyQYkOGXERyV4mfj4iOMvElzS4B7ActuSDEhwy4iOSvEz8fERxl4kuaXAPYDltyQYkOGXERyV4257QmTkJBlJuLOnLkLsKgA257TQZGBFFc7izp5+w7fi7c9pmVDAShOdxZ05bGdmWcG3PaE9agEgS9xZ1tz2hMnISDKTcWdOXIXYVABtz2mgyMCKK53FnTz9h2/F257TMqGAlCc7izpy2M7Ms4Nue0J61AJAl7izrbntCZOQkGUm4s6cuQuwqADbntNBkYEUVzuLOnn7Dt+Ltz2mZUMBKE53FnTlsZ2ZZwbc9oT1qASBL3FnW3PaEychIMpNxZ05chdhUAG3PaaDIwIorncWdPP2Hb8XbntMyoYCUJzuLOnLYzsyzg257QnrUAkCXuLOtue0Jk5CQZSbizpy5C7CoANue00GRgRRXO4s6efsO34u3PaZlQwEoTncWdOWxnZlnBtz2hPWoBIEvcWdbc9oTJyEgyk3FnTlyF2FQAbc9poMjAiiudxZ4P7BsRvNFiX4yMQ3yMS/JRiP4YsOeSfJ/YNiN5osS/GRiG+RiX5KMR/DFhzyT5P7BsRvNFiX4yMQ3yMS/JRiP4YsOeSfJ/YNiN5osS/GRiG+RiX5KMR/DFhzyT5P7BsRvNFiX4yMQ3yMS/JRiP4YsOeSfJ/YNiN5osS/GRjd21ecAyVBTtDmhtCMCJcl3dtRzokUdkO0OaD+q9Xf3dtRgqk1d4O0OaG7GwRZsXd21KjjuFKMjaHNbu2rzgGSoKdoc0NoRgRLku7tqOdEijsh2hzQf1Xq7+7tqMFUmrvB2hzQ3Y2CLNi7u2pUcdwpRkbQ5rd21ecAyVBTtDmhtCMCJcl3dtRzokUdkO0OaD+q9Xf3dtRgqk1d4O0OaG7GwRZsXd21KjjuFKMjaHNbu2rzgGSoKdoc0NoRgRLku7tqOdEijsh2hzQf1Xq7+7tqMFUmrvB2hzQ3Y2CLNi7u2pUcdwpRkbQ5rd21ecAyVBTtDmhtCMCJcl3dtRzokUdkO0OaD+q9Xf3dtRgqk1d4O0OaG7GwRZsXd21KjjuFKMjaHNbu2rzgGSoKdoc0NoRgRLku7tqOdEijsh2hzhtyQYkOGXERyV4mfj4iOMvElzS4B7ActuSDEhwy4iOSvEz8fERxl4kuaXAPYDltyQYkOGXERyV4mfj4iOMvElzS4B7ActuSDEhwy4iOSvEz8fERxl4kuaXAPYDltyQYkOGXERyV4mfj4iOMvElzS4B7ActuSDEhwy4iOSvH//xABMEAABAgIFCgMFBgUDAgUDBQABAgMAEQQQEiGxBTFBUVNikZKi0RMiUiNCgsHhBiAycnOBFBU0YXEwobIkMwdDRGNkJcPSQJOks+P/2gAIAQEACT8Aj0Kwq3sDVtBgatz51bMYmrexNW0VjX6FYVb2Bq2gwNW586tmMTVvYmraKxr9CsKt7A1bQYGrc+dWzGJq3sTVtFY1+hWFW9gatoMDVufOrZjE1b2Jq2isa/QrCrewNW0GBq3PnVsxiat7E1bRWNfoVhVvYGraDA1PI5hDqFLUhQACgSSRmEMOcphtSECc1KEgLtZh5HMIUHFBYJCPMZSOqGHOUx7O1Zs2/LOU9cPI5hCS4kICZoFoTmdUMOcphaULE5pUZETMPI5hDS1JUtRBCSQQTDDnKYeRzCHUKWpCgAFAkkjMIYc5TDakIE5qUJAXazDyOYQoOKCwSEeYykdUMOcpj2dqzZt+Wcp64eRzCElxIQEzQLQnM6oYc5TC0oWJzSoyImYeRzCGlqSpaiCEkggmGHOUw8jmEOoUtSFAAKBJJGYQw5ymG1IQJzUoSAu1mHkcwhQcUFgkI8xlI6oYc5THs7Vmzb8s5T1w8jmEJLiQgJmgWhOZ1Qw5ymFpQsTmlRkRMw8jmENLUlS1EEJJBBMMOcph5HMIdQpakKAAUCSSMwhhzlMNqQgTmpQkBdrMPI5hCg4oLBIR5jKR1Qw5ymPZ2rNm35Zynrh5HMISXEhATNAtCczqhhzlMLShYnNKjIiZh5HMIaWpKlqIISSCCYYc5TDyOYQ6hS1IUAAoEkkZhDDnKYbUhAnNShIC7WYeRzCFBxQWCQjzGUjqhhzlMeztWbNvyzlPXDyOYQkuJCAmaBaE5nVDDnKYWlCxOaVGREzDyOYQ0tSVLUQQkkEEww5ymHkcwh1ClqQoABQJJIzCGHOUw2pCBOalCQF2sw8jmEKDigsEhHmMpHVDDnKatonGrdxFWzOIq3/lVtDgKt3AVehOFe0TjVu4irZnEVb/AMqtocBVu4Cr0Jwr2icat3EVbM4irf8AlVtDgKt3AVehOFe0TjVu4irZnEVb/wAqtocBVu4Cr0Jwr2icat3EVbM4irf+VW0OAq3cBV6E4V7RONW7iKtmcRU11CG5IQoKUZi4C8w70mFW3FykJEZjPTDXUITYSUlIOe836Id6THtLE7WiU82eGuoQbCyq0Bnu/aHekwi02qUjMDMJaYa6hDkloSEqEiZEQ70mGuoQ3JCFBSjMXAXmHekwq24uUhIjMZ6Ya6hCbCSkpBz3m/RDvSY9pYna0Snmzw11CDYWVWgM937Q70mEWm1SkZgZhLTDXUIcktCQlQkTIiHekw11CG5IQoKUZi4C8w70mFW3FykJEZjPTDXUITYSUlIOe836Id6THtLE7WiU82eGuoQbCyq0Bnu/aHekwi02qUjMDMJaYa6hDkloSEqEiZEQ70mGuoQ3JCFBSjMXAXmHekwq24uUhIjMZ6Ya6hCbCSkpBz3m/RDvSY9pYna0Snmzw11CDYWVWgM937Q70mEWm1SkZgZhLTDXUIcktCQlQkTIiHekw11CG5IQoKUZi4C8w70mFW3FykJEZjPTDXUITYSUlIOe836Id6THtLE7WiU82eGuoQbCyq0Bnu/aHekwi02qUjMDMJaYa6hDkloSEqEiZEQ70mGuoQ3JCFBSjMXAXmHekwq24uUhIjMZ6Ya6hCbCSkpBz3m/RDvSavQrCrewNW0GBq3PnVsxiat7E1bRWNfoVhVvYGraDA1bnzq2YxNW9iatorGv0Kwq3sDVtBgatz51bMYmrexNW0VjX6FYVb2Bq2gwNW586tmMTVvYmraKxr9CsKt7A1bQYGrc+dWzGJq3sTVtFY1+hWFW9gatoMDUhzgO8JXbcBQCQJAquhbfE9oUkpROYTeb7oQ5wHeAUqSbZK7hIXaJ64W3xPaPN4spWL/w65y1whzgO8EJSkWPPcZi/RPXC2+J7QFFaM5TeL74Q5wHeFICXCVgEmclXwtvie0Ic4DvCV23AUAkCQKroW3xPaFJKUTmE3m+6EOcB3gFKkm2Su4SF2ieuFt8T2jzeLKVi/8ADrnLXCHOA7wQlKRY89xmL9E9cLb4ntAUVozlN4vvhDnAd4UgJcJWASZyVfC2+J7QhzgO8JXbcBQCQJAquhbfE9oUkpROYTeb7oQ5wHeAUqSbZK7hIXaJ64W3xPaPN4spWL/w65y1whzgO8EJSkWPPcZi/RPXC2+J7QFFaM5TeL74Q5wHeFICXCVgEmclXwtvie0Ic4DvCV23AUAkCQKroW3xPaFJKUTmE3m+6EOcB3gFKkm2Su4SF2ieuFt8T2jzeLKVi/8ADrnLXCHOA7wQlKRY89xmL9E9cLb4ntAUVozlN4vvhDnAd4UgJcJWASZyVfC2+J7QhzgO8JXbcBQCQJAquhbfE9oUkpROYTeb7oQ5wHeAUqSbZK7hIXaJ64W3xPaPN4spWL/w65y1whzgO8EJSkWPPcZi/RPXC2+J7QFFaM5TeL74Q5wHeFICXCVgEmclXwtvie0Ic4DvCV23AUAkCQKroW3xPaFJKUTmE3m+6EOcB3gFKkm2Su4SF2ieuFt8T2q2icat3EVbM4irf+VW0OAq3cBV6E4V7RONW7iKtmcRVv8Ayq2hwFW7gKvQnCvaJxq3cRVsziKt/wCVW0OAq3cBV6E4V7RONW7iKtmcRVv/ACq2hwFW7gKvQnCvaJxq3cRVsziKt/5VbQ4CrdwFXoThXtE41buIq2ZxFVI6PrD1rw/PZsynZvij9f0huxb96c5SvikdH1hXi2vJZlZz3z06oo/X9I9l4XxTtcNUUjo+sJ8W157U7Oe6WnVFH6/pDli37spyldFI6PrDNrw/JatSnZuij9f0ikdH1h614fns2ZTs3xR+v6Q3Yt+9OcpXxSOj6wrxbXksys5756dUUfr+key8L4p2uGqKR0fWE+La89qdnPdLTqij9f0hyxb92U5SuikdH1hm14fktWpTs3RR+v6RSOj6w9a8Pz2bMp2b4o/X9IbsW/enOUr4pHR9YV4tryWZWc989OqKP1/SPZeF8U7XDVFI6PrCfFtee1Oznulp1RR+v6Q5Yt+7KcpXRSOj6wza8PyWrUp2boo/X9IpHR9YeteH57NmU7N8Ufr+kN2LfvTnKV8Ujo+sK8W15LMrOe+enVFH6/pHsvC+KdrhqikdH1hPi2vPanZz3S06oo/X9IcsW/dlOUropHR9YZteH5LVqU7N0Ufr+kUjo+sPWvD89mzKdm+KP1/SG7Fv3pzlK+KR0fWFeLa8lmVnPfPTqij9f0j2XhfFO1w1RSOj6wnxbXntTs57padUUfr+kOWLfuynKV0Ujo+sM2vD8lq1Kdm6KP1/SKR0fWHrXh+ezZlOzfFH6/pDdi3705ylfFI6PrCvFteSzKznvnp1RR+v6VehWFW9gatoMDVufOrZjE1b2Jq2isa/QrCrewNW0GBq3PnVsxiat7E1bRWNfoVhVvYGraDA1bnzq2YxNW9iatorGv0Kwq3sDVtBgatz51bMYmrexNW0VjX6FYVb2Bq2gwNW586tmMTVvYmraKxr9CsKt7A1bQYGpDfA94SgJcIQSAZyVdC3OI7QVFaMwVeL7oQ3wPeJJQkW5ouMxdpnrhbnEdo83iznbv8Aw6pS1whvge8EpKTYki4SF+meuFucR2hKSlEpFV5vvhDfA94Uu24AsgESBVfC3OI7Qhvge8BACzZMs8jdBchSraM0zruhDd39jEkoSLYsXGYu0z1wtziO0ebxZzt3/h1SlrhDfA94JSUmxJFwkL9M9cLc4jtCUlKJSKrzffCG+B7wpdtwBZAIkCq+FucR2hDfA94SgJcIQSAZyVdC3OI7QVFaMwVeL7oQ3wPeJJQkW5ouMxdpnrhbnEdo83iznbv/AA6pS1whvge8EpKTYki4SF+meuFucR2hKSlEpFV5vvhDfA94Uu24AsgESBVfC3OI7Qhvge8JQEuEIJAM5KuhbnEdoKitGYKvF90Ib4HvEkoSLc0XGYu0z1wtziO0ebxZzt3/AIdUpa4Q3wPeCUlJsSRcJC/TPXC3OI7QlJSiUiq833whvge8KXbcAWQCJAqvhbnEdoQ3wPeEoCXCEEgGclXQtziO0FRWjMFXi+6EN8D3iSUJFuaLjMXaZ64W5xHaPN4s527/AMOqUtcIb4HvBKSk2JIuEhfpnrhbnEdoSkpRKRVeb74Q3wPeFLtuALIBEgVXwtziO0Ib4HvCUBLhCCQDOSroW5xHaCorRmCrxfdCG+B7xJKEi3NFxmLtM9cLc4jtVtE41buIq2ZxFW/8qtocBVu4CrZpwqJQ1oAzq7CG0pqSFA6DEyBeW8/LB9w4irf+VW0OAq3cBV6E4V7RONW7iKtmcRVv/KraHAVbuAq9CcK9onGrdxFWzOIq3/lVtDgKt3AVehOFe0TjVu4irZnEVb/yq2hwFW7gKvQnCvaJxq3cRVsziKmuow3JaElSTMmREO9IhdptU5iQGYT0Q11GBYWVWSc937w70iPaWJWdEp580NdRhVhJSFEZ7zdph3pEJtuLnMzIzGWiGuowuSG1FKRIXAQ55L1LuGYVUQOLccLTdKKLa3TrbSq5KI/8RXmaWu9TbFGC2kHohpnKdCdAW3S2EhC1I1tkBIJT6DD6XqPSWw424NKVQAlTqrzjnh3/AGEe0sSs6JTz5oa6jCrCSkKIz3m7TDvSITbcXOZmRmMtENdRhySEKKUiQuAuEO9IhrqMNyWhJUkzJkRDvSIXabVOYkBmE9ENdRgWFlVknPd+8O9Ij2liVnRKefNDXUYVYSUhRGe83aYd6RCbbi5zMyMxlohrqMOSQhRSkSFwFwh3pENdRhuS0JKkmZMiId6RC7TapzEgMwnohrqMCwsqsk57v3h3pEe0sSs6JTz5oa6jCrCSkKIz3m7TDvSITbcXOZmRmMtENdRhySEKKUiQuAuEO9IhrqMNyWhJUkzJkRDvSIXabVOYkBmE9ENdRgWFlVknPd+8O9Ij2liVnRKefNDXUYVYSUhRGe83aYd6RCbbi5zMyMxlohrqMOSQhRSkSFwFwh3pENdRhuS0JKkmZMiId6RC7TapzEgMwnohrqMCwsqsk57v3h3pFXoVhVvYGraDA1bnzq2YxNW9iatorGM/gKlzCAovryVTA0lOe0WiBKG31mjCi0RhLKAtc6VbJlP9KMnZWQf0mjg5FHpRpTFLDofdaCAGyghaIVNDGUX22hqTcvFUG/xwOk1bvzq2YxNW9iatorGv0Kwq3sDVtBgatz51bMYmrexNW0VjX6FYVb2Bq2gwNW586tmMTVvYmraKxr9CsKt7A1bQYGrc+dWzGJq3sTVtFY1+hWFW9gatoMDU+5zGHVqSpaQQVEggmGUcohCULEpKSACL9Yh9zmMKLiQgqks2hOY1wyjlEeytWp2PLOUs8ofc5jCQ4q2RaWLRlIa4ZRyiHFIQJSSkyAu1CH3OYw2kqKQSSBMkiEJABkqQ903Gqj28g5YQUyINhldq2G7sxQoTbrve8APPfqP+0I+GcoQktICiq0feMgIaaEIAz2gg2Z4Q46hQ0EkQgOKtyBWLV2q+GUcohxSECUkpMgLtQh9zmMNIUtSEkkpBJJGcwyjlEPucxh1akqWkEFRIIJhlHKIQlCxKSkgAi/WIfc5jCi4kIKpLNoTmNcMo5RHsrVqdjyzlLPKH3OYwkOKtkWli0ZSGuGUcohxSECUkpMgLtQh9zmMNIUtSEkkpBJJGcwyjlEPucxh1akqWkEFRIIJhlHKIQlCxKSkgAi/WIfc5jCi4kIKpLNoTmNcMo5RHsrVqdjyzlLPKH3OYwkOKtkWli0ZSGuGUcohxSECUkpMgLtQh9zmMNIUtSEkkpBJJGcwyjlEPucxh1akqWkEFRIIJhlHKIQlCxKSkgAi/WIfc5jCi4kIKpLNoTmNcMo5RHsrVqdjyzlLPKH3OYwkOKtkWli0ZSGuGUcohxSECUkpMgLtQh9zmMNIUtSEkkpBJJGcwyjlEPucxh1akqWkEFRIIJhlHKIQlCxKSkgAi/WIfc5jCi4kIKpLNoTmNcMo5RVtE41buIq2ZxFW/8qtocBVu4CrZpwqUAoXMLOkejtDLbzLiSlxtxIUhSTnCgbiDBV/A0xnx2EKMy1eQW6spM0PKbDDbT7dJWG7akiVtsquVajKVECVTkS8iRlH2iySiRlJVMaGJjKNEpYTnLDyHZchMC/3VaQYuUh0g1buAq9CcK9onGrdxFWzOIq3/AJVbQ4CrdwFXoThXtE41buIq2ZxFW/8AKraHAVbuAq9CcK9onGrdxFWzOIq3/lVtDgKt3AVehOFe0TjVu4irZnEV+hWFW9gatoMDVufOrZjE1b2Jq2isYTM6ScwGswAV+o4CKSGWG7hpWtZzIQNKjCPCRYDVHZ2TKcwqZL1JpLqWmmxpUqMt5Eo3rLzq0NJH6hRFklKiJpIIMtRGcQ+uj0qjrttOouKTAkSkEiNmmrNfjVtFY1+hWFW9gatoMDVufOrZjE1b2Jq2isa/QrCrewNW0GBq3PnVsxiat7E1bRWNfoVhVvYGraDA1bnzq2YxNW9iatorGv0Kwq3sDVtBgankcwh1ClqQoABQJJIzCGHOUw2pCBOalCQF2sw8jmEKDigsEhHmMpHVDDnKY9nas2bflnKeuHkcwhJcSEBM0C0JzOqGHOUwtKFic0qMiJmHkcwhtRClmRAuMzF5zrPqVAFKym4mbNEB63dSYpannL/DbFzTKfS2nQKyQRmIuMEqOsmdTBfo7b7a3mQZFxtKgVInomIpSXmj+NOZxpXpcTnSYSFDUROKOgfl8uEKIAzA3xKzrhCikqJBAJBBhlw/CYeRzCHUKWpCgAFAkkjMIYc5TDakIE5qUJAXazDyOYQoOKCwSEeYykdUMOcpj2dqzZt+Wcp64eRzCElxIQEzQLQnM6oYc5TC0oWJzSoyImYeRzCGlqSpaiCEkggmGHOUw8jmEOoUtSFAAKBJJGYQw5ymG1IQJzUoSAu1mHkcwhQcUFgkI8xlI6oYc5THs7Vmzb8s5T1w8jmEJLiQgJmgWhOZ1Qw5ymFpQsTmlRkRMw8jmENLUlS1EEJJBBMMOcph5HMIdQpakKAAUCSSMwhhzlMNqQgTmpQkBdrMPI5hCg4oLBIR5jKR1Qw5ymPZ2rNm35Zynrh5HMISXEhATNAtCczqhhzlMLShYnNKjIiZh5HMIaWpKlqIISSCCYYc5TDyOYQ6hS1IUAAoEkkZhDDnKYbUhAnNShIC7WYeRzCFBxQWCQjzGUjqhhzlNW0TjVu4irZnEVb/AMqtocBVu4CrMLE6krKKfSXX6I+TaStmdyR+mPu0VZpqKY+2uktLKHEGMspc1MU1NnrbjJ7tGK/+2u5Tbn5FpuMUt+ivpBAdYcU2sA/3TFNYpyQAAKUwMWrBj7O0Z462HyziFx/FZNc10hE2uducOIcacQFoWghSVJUJggjODFyTdLVXtE41buIq2ZxFW/8AKraHAVbuAq9CcK9onGrdxFWzOIq3/lVtDgKt3AVehOFe0TjVu4irZnEVb/yq2hwFW7gKvQnCvaJxq3cRVsziKmuoQ3JCFBSjMXAXmHekwq24uUhIjMZ6Ya6hCbCSkpBz3m/RDvSY9pYna0Snmzw11CDYWVWgM937Q70mE2m1ysmYE5CWYw3/ALiFeZKQkiRN4gSclf3P94ALzWUvCR+R1pRX/wAK8jPMsEp9tSvYIkq8KFu9Qj7QsMO+hhgvDmWUQiWScqyCaWn/ALU0Znhg4IIKSJgi8EGKJRqZkGn0GS6M+jO6hZtlCxeFgEfdWtbDLQpdGGyvsrFXlMN/4UCJGESShQUTMZhDl/5TC7bi5SEiMxnphrqEJsJKSkHPeb9EO9Jj2lidrRKebPDXUINhZVaAz3ftDvSYRabVKRmBmEtMNdQhyS0JCVCRMiId6TDXUIbkhCgpRmLgLzDvSYVbcXKQkRmM9MNdQhNhJSUg57zfoh3pMe0sTtaJTzZ4a6hBsLKrQGe79od6TCLTapSMwMwlphrqEOSWhISoSJkRDvSYa6hDckIUFKMxcBeYd6TCrbi5SEiMxnphrqEJsJKSkHPeb9EO9Jj2lidrRKebPDXUINhZVaAz3ftDvSYRabVKRmBmEtMNdQhyS0JCVCRMiId6TDXUIbkhCgpRmLgLzDvSYVbcXKQkRmM9MNdQhNhJSUg57zfoh3pNXoVhVvYGraDA1bnzq2YxNX98YNkahnhqawoqtkk3mp4O0TJpWXHU/gdfXiEVUWgMUpSyf5gWA5SwDdZStwkJEU6k0tz1vuqdVxWTDzjShORQopImJaIyjS6Ulqfhh95boRaz2bZMpygIyhk9P4GHlELb/SXH2TVk2h0O3YXSV2CS9KZtOBBI/KIy8getmht4OOQunFpijFYpJpAt/BmQSa3VtrGZSFFJ4iMqLprRN7NOJfB+Im2I/wChymf/AEjqp2/0l+/USi0CIR4idaLzwg3i1hVtBgatz51bMYmrexNW0VjX6FYVb2Bq2gwNW586tmMTVvYmraKxr9CsKt7A1bQYGrc+dWzGJq3sTVtFY1+hWFW9gatoMDUhzgO8JXbcBQCQJAquhbfE9oUkpROYTeb7oQ5wHeAUqSbZK7hIXaJ64W3xPaPN4spWL/w65y1whzgO8EJQkWDbuMxfonrhSOJiRN9mKWijUdu4rVrOhIF5MZAcdRodpLwb6EBUUhqhURxJQ4xRElFsH1rJKvuZCpYbs2/FfAo7ctYW9ZBj7c5AoGttqkIfdxRH2gouUHTt8ooa5Q0URkWhpFDoLr4LKQFupbQVyLsiYov8DlFoWwyV20ut60GpAayPlWjIpNDpNyBQ31rXwRaE0wB4tHXcsfhcQq9Dif7KH3CQpJBBFxBEMrylRUXCkp/qkDByMvMMGQmilTo5E/1IWlaFpCkqSZgg3ggiEC0MytMKn/Yw0ptQNqa/wn/BE4UjiYmrxJSsX/h1zlrhDnAd4ISlIsee4zF+ieuFt8T2gKK0Zym8X3whzgO8KQEuErAJM5KvhbfE9oQ5wHeErtuAoBIEgVXQtvie0KSUonMJvN90Ic4DvAKVJNsldwkLtE9cLb4ntHm8WUrF/wCHXOWuEOcB3ghKUix57jMX6J64W3xPaAorRnKbxffCHOA7wpAS4SsAkzkq+Ft8T2hDnAd4Su24CgEgSBVdC2+J7QpJSicwm833QhzgO8ApUk2yV3CQu0T1wtvie0ebxZSsX/h1zlrhDnAd4ISlIsee4zF+ieuFt8T2gKK0Zym8X3whzgO8KQEuErAJM5KvhbfE9oQ5wHeErtuAoBIEgVXQtvie0KSUonMJvN90Ic4DvAKVJNsldwkLtE9cLb4ntVtE41buIq2ZxFW/8qtocBGmpwfwmTEoabQNotIWtRqZceeWZIbbSVrUdQCYbU242ooWhYKVJUkyIIOYiKDlCn0pLw8KiNOpo9GU3rcdFpfARk7JmREBJRaolHC31JPrfetrMZQpVMUkSSaQ8t0jnJrpK/4OkoUilUNRJYfQsWVBadZF1oXw5YpNEdDiDfI60qkQSlQuIinMUN5CZ0ii0h1KFsn4pWkalR7dhhpFDo6kCZdCCVEj4lRkLKKg02ENmlewARqQXymHsnUTWlbqlr6Ex9pfzIaouBK4p2VndYLrQwRDjLK13pTSqetC1fCFCMihxC0hSVpplIIIPxxkPhSqR81xlKl0KgUxDiV0W2XmUPI/VmDbjJAdG3oRkrkXGVGnHyP6Zc23uRdRl/aLj5qtocBVu4Cr0Jwr2icat3EVbM4irf8AlVtDgKt3AVehOFe0TjVu4irZnEVb/wAqtocBVu4Cr0Jwr2icat3EVbM4iqkdH1h614fns2ZTs3xR+v6Q3Yt+9OcpXxSOj6wrxbXksys5756dUUfr+key8L4p2uGqKR0/WBbn5p5oR4bQP4555aqsv5OoApSB4zNOWUTWygImxYCiuF0rLbiCJUajA0Sir/M857XoEIouRKAs/wBNkxoUe1+dYvP38jUqkoVOT1iwzd/7i5JjK9FoDfoZBfXigCMr0GmPoOem09sdCCgQ7krw/wASkUAtS/yQ19yiLpT9HozjjTCBMuLSLkgCBT6flamMMP0tmmOSQh8pBIsICLk+iEJQhCQlKUiQAFwAAqXP+Xtrdf8A1H8yas4h7+a0LZ0pU3h+R2KT7VA9tRnLnmvhgSUMyhnBh28bsI8S155zs57oo/X9IcsW/dlOUropHR9YZteH5LVqU7N0Ufr+kUjo+sPWvD89mzKdm+KP1/SG7Fv3pzlK+KR0fWFeLa8lmVnPfPTqij9f0j2XhfFO1w1RSOj6wnxbXntTs57padUUfr+kOWLfuynKV0Ujo+sM2vD8lq1Kdm6KP1/SKR0fWHrXh+ezZlOzfFH6/pDdi3705ylfFI6PrCvFteSzKznvnp1RR+v6R7Lwvina4aopHR9YT4trz2p2c90tOqKP1/SHLFv3ZTlK6KR0fWGbXh+S1alOzdFH6/pFI6PrD1rw/PZsynZvij9f0huxb96c5SvikdH1hXi2vJZlZz3z06oo/X9KvQrCrewNW0GBq3PnVMNISJn1H0iAABcBC23nxc7T7ltI/R9cUt6lUhcrTryytZlmEz92gUqmLF5TR2VunoBjJqKE0r36W6EdCbS4y66syvZobYR1uRkVguiUnX5vuTGkFydmBQGn3lEO0qlKPsE60IsqBj7RZQytS/Ql0hlvnjLFKobHvtOID/IZohFIpNOROxSX3L0W02FWUoCR999umZTIseOiS2KPiFrjIlJWt9ZcWukvNturWq8lQdUFRkSlsNovU8EeI0Pjbmmqg0WmtlBaeo9IQFJW2ogkAkGyrUYJyF9qqAz47bDYDQ+NH4FoVCUNU1ghqlsJ9xfqSPQuBenP/gx6Biat7E1bRWNfoVhVvYGraDA1bnzq2YxNW9iatorGv0Kwq3sDVtBgatz51bMYmrexNW0VjX6FYVb2Bq2gwNSG+B7wlAS4QgkAzkq6FucR2gqK0Zgq8X3Qhvge8SShItzRcZi7TPXC3OI7Rf4s7Vu/8OqUtcIQVLUEpF+cx+5h0pedbByi6NDaxcx8VeSqZTADIqYZW4kE6yBIRQP4RFJUQyFutlapCZ8iSSIacdoqXkF9ts2VqbBFoJOgkRk7Ja3G0TW260FUpr8/izXAkIptHolHtBPiPuJaQVHMJrIEZVLjDJW6/wDwD3tXk6PCW1GTMqU3Jz67Dj1LYWFMD1+Mv7+VaHQxoD7yGyeYxSqRT3NVGZOLtgRQGMnI2rh/iHsAiMt0p5oiRZBDTR+BuymG0ON5KaQtpJ27pNhVeSWUPrmf4ijexdmdJKLlRlxChsaamXW1DCW3ghbQfZpLQmhz9SKawBSaMGv4Nkld4MwtZjMltR/2gkKHl8sKc4iEpKUSkVXm++EN8D3hS7bgCyARIFV8Lc4jtCG+B7wlAS4QgkAzkq6FucR2gqK0Zgq8X3Qhvge8SShItzRcZi7TPXC3OI7R5vFnO3f+HVKWuEN8D3glJSbEkXCQv0z1wtziO0JSUolIqvN98Ib4HvCl23AFkAiQKr4W5xHaEN8D3hKAlwhBIBnJV0Lc4jtBUVozBV4vuhDfA94klCRbmi4zF2meuFucR2jzeLOdu/8ADqlLXCG+B7wSkpNiSLhIX6Z64W5xHaEpKUSkVXm++EN8D3hS7bgCyARIFV8Lc4jtCG+B7wlAS4QgkAzkq6FucR2gqK0Zgq8X3Qhvge8SShItzRcZi7TPXC3OI7VbRONW7iKtmcRUPVGZpBX++aASzQ6M6+sDOQ2kqIELt0ilPLedVKU1LMzIQnwKE2uy/TXAS2jWlPrXDjNIpy0zC6Wg0lw/lZQCEiKe628shDbKqM7fyAiGy61k1b4pAF5Sh+z7ToqeLOW0UkGgrecLbFmX/P8APVSaEqhURgIolEU6tK9az6AsmGH2ZLlTKA7ch5Hf0LELtsUphDzasxsrExPUYyoxRSQClszW6sa0tomoiMh0qkj1vuhjC3GQaHY/WXGTslsp/I4tQ64yyGUq0NMMiMvZSfS4b2lUhwpPwAx9nabrC3kBhJ+J6zBydRT6XnyT0IXFLTTNnRqKpaGvjXcqMmIomUqK0XGPAn7WxnaIj8YdopJ1ghcZ7E+F8UlSgmVznnH+98UT42eyopbdr0r8h4KlBBEUptB1Tmr9gL4QUMAgmf4lywEeurdwFXoThXtE41buIq2ZxFW/8qtocBVu4Cr0Jwr2icat3EVbM4irf+VW0OAq3cBV6E4V7RONW7iKtmcRU11GG5LQkqSZkyIh3pELtNqnMSAzCeiGuowLCyqyTnu/eHekR5ymUtGf/ECRsoGMGRLLSeZ1IMAkm4QAKPkyhLdeUM6yhNtxz4oXbpNKdLi9Q1JE9CRcIaa8J6isul8JkuklYtBxwwJgw27kt9U/6SQZn+kY+0zIoSRNbho9hf8AzilCkUehMN0ZC/EDipNJAFop01CiugJKmWTM0k/pWJLE5RRv5PkphBQ0om3SSCfUZ2IcW664oqW4slSlKN5JJvJrQytVDQhS0uLsT8QkAAx9n6UG2pLWqwXWCNSnGYyRRciZUKQgDb/keVefyq+6TYafAR+Vh1xEDzeA5Z5YNpCs4hv/AHMJskmWvGJcohNqzKWjP/iG/wDcwbKSmZGe/wDeHekQm24uczMjMZaIa6jDkkIUUpEhcBcId6RDXUYbktCSpJmTIiHekQu02qcxIDMJ6Ia6jAsLKrJOe794d6RHtLErOiU8+aGuowqwkpCiM95u0w70iE23FzmZkZjLRDXUYckhCilIkLgLhDvSIa6jDcloSVJMyZEQ70iF2m1TmJAZhPRDXUYFhZVZJz3fvDvSI9pYlZ0SnnzQ11GFWElIURnvN2mHekQm24uczMjMZaIa6jDkkIUUpEhcBcId6RDXUYbktCSpJmTIiHekQu02qcxIDMJ6Ia6jAsLKrJOe794d6RV6FYVb2Bq2gwNW7BlaRhCAt2k0N1LKSZTdAmjqiYUP2IIhYApmSSTK+yV+RxFQW7kq37F5Amui28URTWKVR15nGlhQB1HUdYMZaptEeNGcNJao1JW1+mSERSnqQ563lqcVxUTGSn6bT6Y+C57QMtBtAkj1w6zkthQIlRR7WX6iodW664oqW4tRUpROckm8mtqnKFNeSyhdEcQlTZV7ykrQq0mPtI+hvUujBZgLWt5dt992RccPYaBVkyhvUlpaVturZQpxCkmYKVETBFYWtNtLTTTf43XV5kiAQxS6O28gKlaAWJ2VSneIWCl5FPc4UtMaWlgcI1HCr1jA1btWzGJq3sTVtFY1+hWFW9gatoMDVufOrZjE1b2Jq2isa/QrCrewNW0GBq3PnVsxiat7E1bRWNfoVhVvYGraDA1Pucxh1akqWkEFRIIJhlHKIQlCxKSkgAi/WIfc5jCi4kIKpLNoTmNcMo5RHknOdm6FrUG1gkTzpzEcIIKVAEEaQYTKh5WC6Sgeh6ftUQ5Ki0ug0l6gr9FICJ+F8dbzjS5StNqKDI/3ELUtajNSlEkk6yT9yjLpFKpC7LbSM5OAAzkmPs1lMrRsqOt5HO2FAxk4UBjbUxQb6L1ws0zKRSUrpaxIJGppP31TaoFE8RX6r8Olui5O+zzlOytmXbUQRZ1gIXC026XRKUFHg7GYgiEhKgBIgSMPOD4jCi4kIJks2hOY1wy3yiPZWrU7HlnKWeUPucxhIcVbItLFoykNcMo5RDikIEpJSZAXahD7nMYaQpakJJJSCSSM5hlHKIfc5jDq1JUtIIKiQQTDKOUQhKFiUlJABF+sQ+5zGFFxIQVSWbQnMa4ZRyiPZWrU7HlnKWeUPucxhIcVbItLFoykNcMo5RDikIEpJSZAXahD7nMYaQpakJJJSCSSM5hlHKIfc5jDq1JUtIIKiQQTDKOUQhKFiUlJABF+sQ+5zGFFxIQVSWbQnMa4ZRyiPZWrU7HlnKWeUPucxhIcVbItLFoykNcMo5RDikIEpJSZAXahD7nMYaQpakJJJSCSSM5hlHKIfc5jDq1JUtIIKiQQTDKOUQhKFiUlJABF+sQ+5zGFFxIQVSWbQnMa4ZRyiraJxq3cRVsziKtNqq8srkifoVfCJv5NP8a3+Vq5zo+/9t/5fTCL2KdQg3yuB2xGXqG+vU60tkcRbhgMU9VCdYSD60FLpQK1pUASmYM70mRH7EffVJgU2hB46mw23CC6mmpGRMl2bU3ELASuSfyALjMf4lPFhdX9satmcRVv/KraHAVbuAq9CcK9onGrdxFWzOIq3/lVtDgKt3AVehOFe0TjVu4irZnEVb/yq2hwFW7gKvQnCvaJxq3cRVsziK/QrCrewNW0GBq3fnV+B1PhK+M3f7whK0LSUqSoTBBuIIMBf/SUpbaCu4qbnNC/iTI/cWj+PozZXTRSqW40v4ENlE0Ql1NBL6/4YOma/Cn5bUZCdyhR3rFh5l1aHGPhCkWgYyXlJ0uSKGn3nBRUHWA6tcUkjKJpQpIcGZK0m4AekZgIFnx2/at7N1Ny0VUlDGS8toNKojrqrLbNLQQl5rUAu5f5vv8Agrap9gPh1djwFoARbhVtNHR7R2Ui44o2lrgeGw7lNpaLp/1jd4HxLq911wcCatoMDVufOrZjE1b2Jq2isa/QrCrewNW0GBq3PnVsxiat7E1bRWNfoVhVvYGraDA1bnzq2YxNW9iatorGv0Kwq3sDVtBgankcwh1ClqQoABQJJIzCGHOUw2pCBOalCQF2sw8jmEKDigsEhHmMpHVDDnKY9nas2bflnKeuHUcwiapJuUm+RECRWgEjUTnEIARlGiSWdb1Gkg9JH+iEIdptLVS0NBQVYQtCEidVDL7GTi+aTYvcQHLEUlqlZJbE32KS8AWW/Wx7/wB1hVinB9KH53JdaSFhsjWtAUfhrne7kxapfr2agQjxlm0bh5r4db5hCg4oLBIR5jKR1Qw5ymPZ2rNm35Zynrh5HMISXEhATNAtCczqhhzlMLShYnNKjIiZh5HMIaWpKlqIISSCCYYc5TDyOYQ6hS1IUAAoEkkZhDDnKYbUhAnNShIC7WYeRzCFBxQWCQjzGUjqhhzlMeztWbNvyzlPXDyOYQkuJCAmaBaE5nVDDnKYWlCxOaVGREzDyOYQ0tSVLUQQkkEEww5ymHkcwh1ClqQoABQJJIzCGHOUw2pCBOalCQF2sw8jmEKDigsEhHmMpHVDDnKY9nas2bflnKeuHkcwhJcSEBM0C0JzOqGHOUwtKFic0qMiJmHkcwhpakqWoghJIIJhhzlMPI5hDqFLUhQACgSSRmEMOcphtSECc1KEgLtZh5HMIUHFBYJCPMZSOqGHOU1bRONW7iKtmcRVv/Kr1nAQf+0syH9lXwhFvJ1MbcKtTbvsiPuZAprtFfZQ804y34s21iYVJE4ziBM6BDByhTylK3ZuKSy2v0oCI+zmTQpF4WWELPFVRpuQKXRqYplrKIZRTEANq/Gto6FwxkX7VZOktfi5OdLT6wnp+ECKY99mftQ09aQClLRU/wDpnyORn+4kEpM0kjMZSmK1f0bdD6faVC6aDhVsziKt/wCVW0OAq3cBV6E4V7RONW7iKtmcRVv/ACq2hwFW7gKvQnCvaJxq3cRVsziKt/5VbQ4CrdwFXoThXtE41buIq2ZxFTXUIbkhCgpRmLgLzDvSYVbcXKQkRmM9MNdQhNhJSUg57zfoh3pMe0sTtaJTzZ4Z6hBsqJmBnu/aF/8Acb1HOmEAqpVDdbbntCk2D+yvuU4/w1qa6I8PEYV8Oj4YDQpFJKSsNJsIFlISABFOpgpX8UsoSwtAQ34C7gQQal2GWW1OOKkTJKBMmQikoy59lqc4HkhUj4Pi+6l1GZHoMOtM5dZZlTsmvyaddQLgsGKFS6E1bSHg6guUN7UFFM0Rkdj+ZtIBfYcueCfU28iSiiH6S80zMIVSXC65Imcio3kDMPv6H0s/uw2lqCCH6O26JEEG2kKziL1rbSQNcjDf+4hNhJSUg57zfoh3pMe0sTtaJTzZ4a6hBsLKrQGe79od6TCLTapSMwMwlphrqEOSWhISoSJkRDvSYa6hDckIUFKMxcBeYd6TCrbi5SEiMxnphrqEJsJKSkHPeb9EO9Jj2lidrRKebPDXUINhZVaAz3ftDvSYRabVKRmBmEtMNdQhyS0JCVCRMiId6TDXUIbkhCgpRmLgLzDvSYVbcXKQkRmM9MNdQhNhJSUg57zfoh3pMe0sTtaJTzZ4a6hBsLKrQGe79od6TCLTapSMwMwlphrqEOSWhISoSJkRDvSYa6hDckIUFKMxcBeYd6TCrbi5SEiMxnphrqEJsJKSkHPeb9EO9Jq9CsKt7A1bQYGrc+dXoGJi4JdAJ/srynGpAQhumuKbTqad9ojpV91wNUCmPeK0+czL+Y2z6Fxl+ilxaUlLiCXGb9bqJpEMs5X+y9KShLy2CCujq2iFi4oXFPodN+zmV23Hl5IpCErQwtRsusraztpjKaKBYfM6JSHXEvUJ3ZoeQDbTBo71N8AIpSmr2lrlIkAgXGMmihU6jOhxBoi1Mo1SKEmzL/QojTDr1IpKX1ITe8XfazWYM/8A6XRkn8zaAgwJAocTwkatoMDVufOrZjE1b2Jq2isa/QrCrewNW0GBq3PnVsxiat7E1bRWNfoVhVvYGraDA1bnzq2YxNW9iatorGv0Kwq3sDVtBgakOcB3hK7bgKASBIFV0Lb4ntCklKJzCbzfdCHOA7wClSTbJXcJC7RPXC2+J7R5vFlKxf8Ah1zlrhDnAd4IAAskK1iFI4mM6kAmWuG5N0+hCa9brBsGprw32rJImFAhYtJUCLiCDMH7lJdoFEeROiNoSC66NqdSIKafkimpVbYc/pacwblgoM7DkB5/7PZRaDrDxEywV/8Akuw2tDNOfaDFoEWgyDNdTiUuO2rCSb1WRMy+4EJcpNHSp1Lf4A6m5YHxCG1GkPUYueMCLCHJFYaPwipJU3Q6M6+sDOQ2kqkmekwgo/ikOUywq5aQUIhc1sqpDR/Z5RgXNu365KBEJXwEAhYNsldwkLtE9cLb4ntHm8WUrF/4dc5a4Q5wHeCEpSLHnuMxfonrhbfE9oCitGcpvF98Ic4DvCkBLhKwCTOSr4W3xPaEOcB3hK7bgKASBIFV0Lb4ntCklKJzCbzfdCHOA7wClSTbJXcJC7RPXC2+J7R5vFlKxf8Ah1zlrhDnAd4ISlIsee4zF+ieuFt8T2gKK0Zym8X3whzgO8KQEuErAJM5KvhbfE9oQ5wHeErtuAoBIEgVXQtvie0KSUonMJvN90Ic4DvAKVJNsldwkLtE9cLb4ntHm8WUrF/4dc5a4Q5wHeCEpSLHnuMxfonrhbfE9oCitGcpvF98Ic4DvCkBLhKwCTOSr4W3xPaEOcB3hK7bgKASBIFV0Lb4ntCklKJzCbzfdCHOA7wClSTbJXcJC7RPXC2+J7VbRONW7iKtmcRVv/KraHAVZ2XSn9iLXzhsldApgCz6WnxZPUExMZayeUUllBN1JYIIU2B6gRABp2RGhk6nAbFs2BXS2BRqHJw0Mrk7SdQA9HrgAACQAjJS6W6xZX/Fh4NhikATFgWV2ozUWnvstjg7iuH0LpdCQyqktDO0HwSi0dZCakFQydlhKXgNg+2tDkOopX2dp7TNKoNKbQLbLTouWLH40Q4hxlxAW2tBCkrSoTCgRnBqaLVGYCvDQVFcrais3qJJvMIKzQsqMLsA2baGAgWYyeaE5Rnw0tsu+KCCJghUkxc/S3aHRUT10ikttRlcspyXkuVDYDU0BqjItyWYXNTGUiv4XW0xnSUK4KFWzOIq3/lVtDgKt3AVehOFe0TjVu4irZnEVb/yq2hwFW7gKvQnCvaJxq3cRVsziKt/5VbQ4CrdwFXoThXtE41buIq2ZxFVI6PrD1rw/PZsynZvij9f0huxb96c5SvikdH1hXi2vJZlZz3z06oo/X9I9l4XxTtcNUUjo+sDxLXntfh/tLTqhnqgyD6AQk6Cgyhu26/RFhlJ2qRbb6hBIoiwWKX+i5p+AyVCEuZI+1FBVSii15PHR5H0j9VLgVE7dDpC2rREraQfKv4hfU6tp5pYW242opWhQvBSReCIdSKcu6iUvMHzs16lwD4VNsUplWsKFlXUIdcYdepRNtJkbKnkMrj/AM6noZ/ZlAV/9ypJW+ujFxhKc5dZPiIHxEQbWU/sw4HmtKnMnvEIUB+kqH5ZMfXKjPLzUZxeDa65ycdbeB/VbCol4xyoQv8AKGkShCVAKSoAid6TaB/yCJiMlrpLFJtCjOUUG23RGzJZX+qI/wDPobT8/wBBdg/8499tSeIh3pg+JPySzZ756dUUfr+key8L4p2uGqKR0fWE+La89qdnPdLTqij9f0hyxb92U5SuikdH1hm14fktWpTs3RR+v6RSOj6w9a8Pz2bMp2b4o/X9IbsW/enOUr4pHR9YV4tryWZWc989OqKP1/SPZeF8U7XDVFI6PrCfFtee1Oznulp1RR+v6Q5Yt+7KcpXRSOj6wza8PyWrUp2boo/X9IpHR9YeteH57NmU7N8Ufr+kN2LfvTnKV8Ujo+sK8W15LMrOe+enVFH6/pHsvC+KdrhqikdH1hPi2vPanZz3S06oo/X9IcsW/dlOUropHR9YZteH5LVqU7N0Ufr+kUjo+sPWvD89mzKdm+KP1/SG7Fv3pzlK+KR0fWFeLa8lmVnPfPTqij9f0q9CsKt7A1bQYGrc+dWzGJqzJWZ/4JINQAa/iS8yACAG3x4qUj8s5Qjx8r/ZqltLYQpUvGYvTY/MWittMPIdap+TWnXFjaoUpuS9RAABFeWqDk9qh0xh+T7oQ68pCrQQ0If/AIR6ilTrNMkCGfXaBImiPtFQMrPs5Npzs6M6gqWq9+5CFGFgBOVXysn9JuKU4ihN/wBTS0GwXz6Gzs4plsn+gfeM1/oEnoglmj0tt1yjFIH9PS0lC28UVUdbNLYJaa8UguLYAFgrq/qcnUZQpKNpRkTX0R4gYolBUVEfgLjhCEBUXLo2T6S8j+xbbKoR/wBdTmm6RTFkSVaUJhv4I9kwabTqD8F5bq91RHAx6xgatz51bMYmrexNW0VjX6FYVb2Bq2gwNW586tmMTVvYmraKxr9CsKt7A1bQYGrc+dWzGJq3sTVtFY1+hWFW9gatoMDUhvge8JQEuEIJAM5KuhbnEdoKitGYKvF90Ib4HvEkoSLc0XGYu0z1wtziO0ebxZzt3/h1SlrhDfA94JSUmxJFwkL9M9cLc4iAClOvPffH4wLK/wAyboTroT562oWE0Wnf9G/PU7+A88M2KNlKaX5C4UlN/WPuO/xOTKc2aNRvGvDZIkGf01wC/kd5yTD+ctnZuxS30UZ8pLrKXFBtwpzFSQZGUAgEkA6CRC1IcQoKQtJkpKheCCMxEPBnK1CWtr+KCczyPk4IWXcquzX/ADBEwWl+7YT6BCG0Urwk+OlszR4gHmsH0zzVAEESIMUBFERSHA47JSllRGsrJMhDSHWnUFDjawFJWlQkUqBuINSASf4PKIRrLRsYtwoKSoAgi8EGEpsqSlYwxEXJAtTRnmIW5xHaPN4s527/AMOqUtcIb4HvBKSk2JIuEhfpnrhbnEdoSkpRKRVeb74Q3wPeFLtuALIBEgVXwtziO0Ib4HvCUBLhCCQDOSroW5xHaCorRmCrxfdCG+B7xJKEi3NFxmLtM9cLc4jtHm8Wc7d/4dUpa4Q3wPeCUlJsSRcJC/TPXC3OI7QlJSiUiq833whvge8KXbcAWQCJAqvhbnEdoQ3wPeEoCXCEEgGclXQtziO0FRWjMFXi+6EN8D3iSUJFuaLjMXaZ64W5xHaPN4s527/w6pS1whvge8EpKTYki4SF+meuFucR2hKSlEpFV5vvhDfA94Uu24AsgESBVfC3OI7Qhvge8JQEuEIJAM5KuhbnEdoKitGYKvF90Ib4HvEkoSLc0XGYu0z1wtziO1W0TjVu4irZnEVb/wAqtocBV/bCDIODxEf5TcYAtv0c+CSZAPIkts8whBStJKVJUJEEXEEGCF0+hsW3NKhSqFernR9xakOtLC0LTcUqSZgiGGnWMpUFC3WT5ke0T5kGEreyK6v8y6IfQvWj0qjJ7eUsiUxQ/i6IsAqSQCA8x6XEgxlWnChP3thl1C0daCuErDDUyVrNpa1KzqUdZ/0Ei5btDdP5xbRCgXGGf4RwDXRzYEay2cRHoOIq3/lVtDgKt3AVehOFe0TjVu4irZnEVb/yq2hwFW7gKvQnCvaJxq3cRVsziKt/5VbQ4CrdwFXoThXtE41buIq2ZxFTXUYbktCSpJmTIiHekQu02qcxIDMJ6Ia6jAsLKrJOe794d6RHtLErOiU8+aGuowqwkpCiM95u0w70iE2lqnMzlmMtEIkptVrOf8EQZgiYMIIouVQaUj9TM6IcR/I/tKybD0yG23mlluap+k3LhBDLbtujfoOeZF5+5k6lu0SiuL8Ck0ZAV/3SV+Gu0RFPpFDoywW2qEw8oNIa9K/WT70UJqmUFt7/AKlhxAWktruUQnWmcxBt5GyiwikmhWpsrGZSRilULKqNSmgtE840FKhrSbj/AKCZvMs/xTP52PadQBEH005gcGnYTOzJQ/aBZUTKee794d6RHtLErOiU8+aGuowqwkpCiM95u0w70iE23FzmZkZjLRDXUYckhCilIkLgLhDvSIa6jDcloSVJMyZEQ70iF2m1TmJAZhPRDXUYFhZVZJz3fvDvSI9pYlZ0SnnzQ11GFWElIURnvN2mHekQm24uczMjMZaIa6jDkkIUUpEhcBcId6RDXUYbktCSpJmTIiHekQu02qcxIDMJ6Ia6jAsLKrJOe794d6RHtLErOiU8+aGuowqwkpCiM95u0w70iE23FzmZkZjLRDXUYckhCilIkLgLhDvSIa6jDcloSVJMyZEQ70iF2m1TmJAZhPRDXUYFhZVZJz3fvDvSKvQrCrewNW0GBq3PnVsxiav741Xro7hAnpQokiETpeS50tv9MD2qYXJ8f/UcmOnM26JIMIW1l3IajRmXyJl9kKsqo7x9bRvQfuFCaXQnlupRtGHYon8tpe3ogCOdGYw9Q6ewVySsL8FfxpXC0Lcya1/APLRmKy0nX+lBm2xT7Tfxo/0Zt0Wh5RWwu2T/AEj9wWfgUF1ZrYKf8EGrc+dWzGJq3sTVtFY1+hWFW9gatoMDVufOrZjE1b2Jq2isa/QrCrewNW0GBq3PnVsxiat7E1bRWNfoVhVvYGraDA1Pucxh1akqWkEFRIIJhlHKIQlCxKSkgAi/WIfc5jCi4kIKpLNoTmNcMo5RHsrVqdjyzlLPKH3OYwkOKtkWli0ZSGuGUcohZSgSklJkBMaBDq+YwAAtIS4dYVpNSFGjUZ8UhgbShv3FGKIKV0LLDAK1ozF0C5fxo+4x45oxVNnxVNWwoEStJim/y2knOzTZNj4XfwVf1JAeoytTzd6eOaGnKI/SCH2G3hYIeQJLR8QhQSNZMhfCnm0U4uBDiEW0o8KUysC/3op7NLYNxU2b0nUsZ0n+xikB5Db7jDgkUKbdaMlIWlQBSRqP3GGFZKp1sUt0ztokQLSPyThuSKfQE2jrdZNiF26Q01/DP/qseQlX5hfCAS3ffDSOUR7K1atWPLOUtUPucxhIcVbItLFoykNcMo5RDikIEpJSZAXahD7nMYaQpakJJJSCSSM5hlHKIfc5jDq1JUtIIKiQQTDKOUQhKFiUlJABF+sQ+5zGFFxIQVSWbQnMa4ZRyiPZWrU7HlnKWeUPucxhIcVbItLFoykNcMo5RDikIEpJSZAXahD7nMYaQpakJJJSCSSM5hlHKIfc5jDq1JUtIIKiQQTDKOUQhKFiUlJABF+sQ+5zGFFxIQVSWbQnMa4ZRyiPZWrU7HlnKWeUPucxhIcVbItLFoykNcMo5RDikIEpJSZAXahD7nMYaQpakJJJSCSSM5hlHKIfc5jDq1JUtIIKiQQTDKOUQhKFiUlJABF+sQ+5zGFFxIQVSWbQnMa4ZRyiraJxq3cRVsziKt/5VbQ4CrdwFXoGEHzt+RWsyzGETpWSZrXrXRl/j5INvKmSAKbk3W42j3MUfeppXRQZmhvzWx3R8MLGSads31+yX+R2Gh/OMnJLjCkAhbqE3lm7ojKdMpS2721PvrcKPylRMoYWz/CUKT4UP/Uu/wDcsa0XQ6oKQoeK1OSH29La4tryH9pqMh+kses3FXxyNsQ+HWHeZChnQsaFCtu3T6C5/EMJGdz1txTmqNTqK2teTlZ3HHQL2kjUuHJMZRHisag+3hbTV+E3p7RvVbQ4CrdwFXoThXtE41buIq2ZxFW/8qtocBVu4Cr0Jwr2icat3EVbM4irf+VW0OAq3cBV6E4V7RONW7iKtmcRX6FYVb2Bq2gwNW586tmMTVvYmr1qxgyZek25qHpV+xhCVtrSUrQoTSoG4gg5wYBKKM6H6KFZnqK77hPREnMiZZk7+g+vOD9/LDyKOAAGHgHmgNSQ5OzEpqUVGQCRM33AXCumMM5RyK+l6hodckp1FuYsz/OUQ8f5TTHAiloOZE7g98P3MmZQZoztJW3RnH2VoQhkKIbbEOlt+juodacGdK0G0kxIF5Enm9m6m5aIEljzIOoiAQoEAg5wROrZjE1b2Jq2isa/QrCrewNW0GBq3PnVsxiat7E1bRWNfoVhVvYGraDA1bnzq2YxNW9iatorGv0Kwq3sDVtBgankcwh1ClqQoABQJJIzCGHOUw2pCBOalCQF2sw8jmEKDigsEhHmMpHVDDnKY9nas2bflnKeuHkcwhJcSEBM0C0JzOqGHOUwtKFic0qMiJmHkcwhtRSVqKSASCJw0vlMLSp1qSVX8DDZVTslBbyB62T/ANxEJQ9kvK39OHcyH/R8cW3KI9NdDpBFzrer86fu5LyvRqBT2FFilst2EW7HioJWpCwUkCP4TK+T6O0EUZ91oWi2m4NvNKmCR6xFAXQHVe/Ql+F0GaI+09Gym8pwhdGQiTrI1rKCpNdHW/SqQuw22jOScAM5MLtqaZQhSvUUgAmtpDrLqChxtaQpKkquIUDnBhDi8m08k0UZyhzSzBWxQqa74Lwdmj+GpSLgo4LqICVyC9UxdOHUcwhJcTYAmgWsIYc5TC0oWJzSoyImYeRzCGlqSpaiCEkggmGHOUw8jmEOoUtSFAAKBJJGYQw5ymG1IQJzUoSAu1mHkcwhQcUFgkI8xlI6oYc5THs7Vmzb8s5T1w8jmEJLiQgJmgWhOZ1Qw5ymFpQsTmlRkRMw8jmENLUlS1EEJJBBMMOcph5HMIdQpakKAAUCSSMwhhzlMNqQgTmpQkBdrMPI5hCg4oLBIR5jKR1Qw5ymPZ2rNm35Zynrh5HMISXEhATNAtCczqhhzlMLShYnNKjIiZh5HMIaWpKlqIISSCCYYc5TDyOYQ6hS1IUAAoEkkZhDDnKYbUhAnNShIC7WYeRzCFBxQWCQjzGUjqhhzlNW0TjVu4irZnEVb/yq2hwFW7gKtmnCr/tK8jv5Tp/aoFFAppNJoSk+56m/ghQGVKIEpecleh0D2dJRDdik0V0tuDBSdaVC8fco1KpuRC6hFtDanTQlLn0a01faWjZHpFJNpkvvhpDwRnbXrbh2jOlB/HR3kPtqGsKbJFWQWco0FaxbcClofa/LYUAoRQ6Cii0poFL1GbCbadSznJGo/dbC10TLWTaSj4aQhKuhRhhTtNSgCmUZGd5CMy0a1iHp5ToDYkted9j1fnTAmlQII1gxMoN7atae4jNb+Qq3cBV6E4V7RONW7iKtmcRVv/KraHAVbuAq9CcK9onGrdxFWzOIq3/lVtDgKt3AVehOFe0TjVu4irZnEVNdQhuSEKClGYuAvMO9JhVtxcpCRGYz0w11CE2ElJSDnvN+iHekx7SxO1olPNnhrqEGwsqtAZ7v2h3pMItNqlIzAzCWmGuoQ5JaEhKhImREOf7GG/8AcQJLYHkM52kaOESTS0e1obh9x5PyVDS0vUZxTNLoq5oK0Tk40uKOqm0VyhkUpbN5CEmaCU8Qv7i3/wCYFK7LTItF5KBbUgo98SGaE/wOW2kkPURVwWUZy1FHtpEy06i51pRErSFRS2aTQ6UpYozoNl02M4WisCk0B4zeoS1SST60ehcZSNCd0s0psoI+ITTFKZpNHdvQ60oLSZXG8fdmw606kUst6F5ku/lX+BcezdRJFKY0tOiCAoXoVqMGwu0TLPhDl/5TCLTapSMwMwlphrqEOSWhISoSJkRDvSYa6hDckIUFKMxcBeYd6TCrbi5SEiMxnphrqEJsJKSkHPeb9EO9Jj2lidrRKebPDXUINhZVaAz3ftDvSYRabVKRmBmEtMNdQhyS0JCVCRMiId6TDXUIbkhCgpRmLgLzDvSYVbcXKQkRmM9MNdQhNhJSUg57zfoh3pMe0sTtaJTzZ4a6hBsLKrQGe79od6TCLTapSMwMwlphrqEOSWhISoSJkRDvSYa6hDckIUFKMxcBeYd6TCrbi5SEiMxnphrqEJsJKSkHPeb9EO9Jq9CsKt7A1bQYGrc+dWzGJq3sTVtFY1jztzUBr1iDNCxMdjDQDTpDdPSPXmQ9Dv8A0FPd/wCmOxpPZyGQ2wtwCnsozIWvM8K3VtPNLSttxCilaFpMwpJF4IjI9ulslJZy1k72FLbWnMpdizGUGaYzITLZvSToWnOkw8WKbRba6K+LwCvOlY9JhgtUlk/CtJzLQdKT9xZcoq1AUqiEmw8j5L1Kh4O0alNhaF4g6lA3EfcaDtFpLSmnUHSlUW3WAQHEEWUUyiG9K4fS9RqQi22sYHUQbiIT7ZA5xqqz+bE1bRWNfoVhVvYGraDA1bnzq2YxNW9iatorGv0Kwq3sDVtBgatz51bMYmrexNW0VjX6FYVb2Bq2gwNSHOA7wldtwFAJAkCq6Ft8T2hSSlE5hN5vuhDnAd4BSpJtkruEhdonrhbfE9o83iylYv8Aw65y1whzgO8EJSkWPPcZi/RPXC2+J7QFFaM5TeL74Q5wHeFICXCVgEmclXwtvie0JXwEJVNYsiY1wpPgunyn0r7GGkusPtqbcbVmUlYkQYtroy5u0N7aMk/8hCvEpKGTQcoJmLZCkyDvxxLxqI+4w5ZMxbaUUmX3KW9RaQjM6ysoVLVdnBgCjP3JTTkJ9kv9VI/BDbNJyL/BNMN0qjLDozlU1xk6hZRYVJL9FpjKXUOI+IGyrUYpa8hZVlNdDJt8Glnz/BFGDtEJkimMTWz3QalTaYW1SWR+rNK/uoH81oAK6P8A+6j3mYWs5HpawKQjYL2yRDqHGXEBbbiCFJWlQmFJIzgxJNq9xJxEAlSc5TmvvhDnAd4UgJcJWASZyVfC2+J7QhzgO8JXbcBQCQJAquhbfE9oUkpROYTeb7oQ5wHeAUqSbZK7hIXaJ64W3xPaPN4spWL/AMOuctcIc4DvBCUpFjz3GYv0T1wtvie0BRWjOU3i++EOcB3hSAlwlYBJnJV8Lb4ntCHOA7wldtwFAJAkCq6Ft8T2hSSlE5hN5vuhDnAd4BSpJtkruEhdonrhbfE9o83iylYv/DrnLXCHOA7wQlKRY89xmL9E9cLb4ntAUVozlN4vvhDnAd4UgJcJWASZyVfC2+J7QhzgO8JXbcBQCQJAquhbfE9oUkpROYTeb7oQ5wHeAUqSbZK7hIXaJ64W3xParaJxq3cRVsziKt/5VbQ4CrdwFXoThX6xjAg+2bzn1DXHht05ibtDfX7jnpJ9C4Q42zbNEykwc6UzxQYkqh5XYQ+hxErBcQLC/vU1TbD6Sl+jLAdYdChIhbSwUmYgBIJzCch/YTjOIWjLWTnElDtGp3tCUKzgOQ7Tfs3TVZ2FPAMKOclK3QsQt91dLKFPPvrClEIFwFkAAfcUUt0ujOsLIzgOpKDBIfYfco9EeWvMtB/p8bEUeaTNeUWEDi+B/wA4elQH3JUR9R/p3F+4rU2ar0++n0/3FXoThXtE41buIq2ZxFW/8qtocBVu4Cr0Jwr2icat3EVbM4irf+VW0OAq3cBV6E4V7RONW7iKtmcRVSOj6w9a8Pz2bMp2b4o/X9IbsW/enOUr4pHR9YV4tryWZWc989OqKP1/SPZeF8U7XDVFI6PrCfFtee1Oznulp1RR+v6Q5Yt+7KcpXRSOj6wza8PyWrUp2boo/X9IpHR9YdtFsWyLMs1+ecM9UJsLSZgkzBGkEajGY5xqOow0DTKM3/1rQF77KPf/ADohRU6x7XJr1r2lhOhB9TUPUSnMNoK2yFFp1z4DCVJWklKkqEiCLiCDVS0URulUltldIWJpaC1StGMuU5D3rWhCkRlSh08BN6Fg0dwnrEZNpFEVOQK0+Rf5FiaVQpKStQSCtQSkTMpkm4CMlPssGUn0ydZNrN7RslMUZukvNpClNl9ppZGtIdUkqihU1FCR51sECl0XoKrEMHJr+3E3KMo4oh5t5hxIU242oLSpJ0gi41hf81owQX2WrlvBrM41/wC6iG7DtJojbjiZSsrI84hoIoC1/wDWUUZmFL99sbMw/J+5ugUleZzUys+upVhBvKJTAP8AaG7VjyznnlFH6/pFI6PrD1rw/PZsynZvij9f0huxb96c5SvikdH1hXi2vJZlZz3z06oo/X9I9l4XxTtcNUUjo+sJ8W157U7Oe6WnVFH6/pDli37spyldFI6PrDNrw/JatSnZuij9f0ikdH1h614fns2ZTs3xR+v6Q3Yt+9OcpXxSOj6wrxbXksys5756dUUfr+key8L4p2uGqKR0fWE+La89qdnPdLTqij9f0hyxb92U5SuikdH1hm14fktWpTs3RR+v6RSOj6w9a8Pz2bMp2b4o/X9IbsW/enOUr4pHR9YV4tryWZWc989OqKP1/Sr0Kwq3sDVtBgatz51bMYmrexNW0VjX6FYVf3wiZZWZODVvCCCCJgiJ0ehrpAX7If0lIwsLiw3S2ZIplGGdtzGwrOmG5UTKa5P6kUrP110I5Tabklp8O2HkI1H1xldhh43Gj0pQYeB1SVn+GGGaTR3RJbbiQ42oA5iDMGKXRckU9LZW2iiuAlxUrkfw8E0zIZMnaOsW1tJVse0ZUoNGpgkpyjAlLRH6WdqGGcr5HZsI8UrLwa+O5xPxx9jqdQaU+sqU7QKVb6VFCIypldujKM36LlFDRQrkUQqcBGS6d6z/AEznx+59x1aKWtg+zTneb99r401UjUhjKLh6Hyf+dQCVZ1IzBXYwCCDIg3EVehWFW9gatoMDVufOrZjE1b2Jq2isa/QrCrewNW0GBq3PnVsxiat7E1bRWNfoVhVvYGraDA1Ib4HvCUBLhCCQDOSroW5xHaCorRmCrxfdCG+B7xJKEi3NFxmLtM9cLc4jtHm8Wc7d/wCHVKWuEN8D3glJSbEkXCQv0z1wtziO0JSUolIqvN98Ib4HvCl23AFkAiQKr4W5xHaEN8D3hKAlwhBIBnJV0Lc4jtBJUnMFZr7oSjgYlYN7R1H0wwl+i0hstutq94HA6jFpyjKJLC1XIplG9C5e+I9rRKUjw32SZOsODBSYdotMye0lThpCnUsFttImS6HPuAVvuMNeIm282jxFtj1JTNMyP8x9o3PtHkdwXIapTgNhPrZcPRDLjLzSihxpxJQtChnCgbwa1uUrI5IGtyi/p60a0RSEP0d9AW04gzBBraK6K6S7T6OM7KtLyNaPXUXKZkgAJRtqN+TWiKU3SaM8mbbiM3cHWDeIBS4B+MfOG0DUoA2Vf4MBFhw2SQLwFXGULd4jtBUVozBV4vuhDfA94klCRbmi4zF2meuFucR2jzeLOdu/8OqUtcIb4HvBKSk2JIuEhfpnrhbnEdoSkpRKRVeb74Q3wPeFLtuALIBEgVXw44T/AJHaEN8D3hKAlwhBIBnJV0Lc4jtBUVozBV4vuhDfA94klCRbmi4zF2meuFucR2jzeLOdu/8ADqlLXCG+B7wSkpNiSLhIX6Z64W5xHaEpKUSkVXm++EN8D3hS7bgCyARIFV8Lc4jtCG+B7wlAS4QgkAzkq6FucR2gqK0Zgq8X3Qhvge8SShItzRcZi7TPXC3OI7VbRONW7iKtmcRVv/KraHAVbuAq9CcK9onGrPdiKvQYPtkDP6x31wglCjbaWm5bTgzLRCrDvFimMwAikOUdSaZk5432Fiyr86ItUnJDy/YUr0am3fvUV6kvqBKWmUKcWQkTJASCbhFJpNDpKJpKmlqZcTrBKZGKW/Sn1AAuvuKdWQMwtKJMECMrZNdOkLttxQkMIWZIUH2l2/yhKpwpS8j0pY8UbBW1RDqHWXUJW24ghSVpUJhSSM4NaEIWs2ncm3IQf0I/qKA3/Di3R0MPIQJANuWUpJsxSZJXc9R3JqZd/OmFChZT00N5d6v0le/CQpJzgwq0gLBKFZwP7GrPdjVsziKt/wCVW0OAq3cBUfcThCTFHc/YTwjOHE41buIq2ZxFW/8AKraHAVbuAq9CcK9onGrdxFWzOIqa6jDcloSVJMyZEQ70iF2m1TmJAZhPRDXUYFhZVZJz3fvDvSI9pYlZ0SnnzQ11GFWElIURnvN2mHekQm24uczMjMZaIa6jDkkIUUpEhcBcId6RDXUYbktCSpJmTIiHekQu02qcxIDMJ6Ibv/MYFlRMic937w6UrSZpUAJgwAikNgW0aCPUmGAbiWXx/wB1lfqQYWttaV+LQqczNKXLOlB9Q0iG2VU/wSilMG4UhvaojKjFLAUsoYfBacsaBbzFcUR2i0loyU24JH/I1jUR9x9TFKo6wtpxOcEYjWDH2aQ68E2UU+hXODBQjL38xojmdp1pbVIZOpVpKQv8wqpYoz9HAaotLcuaW0MyHDD6MrMU5fjWPFHio/ITctAjI1Po8p3u0dxAuzmZEZGynT8jvXoLTC1GilfvpOzP3KGDSAmSKUybD6PjhaMrUXUmTb4+Aww9RqQ0RabdSW3EHPeDIiEuZUoe2/8AVNjByKe1SWh+OzctB1LQb0xxh3xWTnSQEq4iG5H+5MeRZNknPd+8PdIj2liVnRKefNDXUYVYSUhRGe83aYd6RCbS1TmZynK7RDck65mBIASrQPHQklJ0kiHf9hC7TapzEgMwnohrqMCwsqsk57v3h3pEe0sSs6JTz5oa6jCrCSkKIz3m7TDvSITbcXOZmRmMtENdRhySEKKUiQuAuEO9IhrqMNyWhJUkzJkRDvSIXabVOYkBmE9ENdRgWFlVknPd+8O9Iq9CsKt7A1bQYGrc+dWzGJq3sTVtFY1+hWFW9gatKxgalFK0kFKhnESQ+kfsuWkdooqH6O5fYVnSoZlJIvSoQ+6uhNPW6LT0fjaPoeEPN0DKtyJLMmXzrbMNSdRM0akpHtGFnUcRCQH6OuVoXpWg3pWk6lD/AEMp0uhlV6v4d5bVr/ISYy0HkI0OsNKii5Kd/My4MHBFAodHoLRDTLjAWC67nXnUbh93J9GpbInLx0Bdkm6aCcx/uIfpeTXJXBK/Ha4ORlB0W0W6LT2AWrfqQRimKKV//OowHW1FPYpbV0y2q9BOhac6T/YwIdskGd4mIatjWi//AGzxcfLMVbMYmq5F/wC99XhUp+8OU03st/pesxlal0kqJNlbpsD8qBcmMp0l+gPB0vMvkupQENlYKfRVmCjKN7A1bQYGrc+dWzGJq3sTVtFY1+hWFW9gatoMDU+5zGHVqSpaQQVEggmGUcohCULEpKSACL9Yh9zmMKLiQgqks2hOY1wyjlEeytWp2PLOUs8ofc5jCQ4q2RaWLRlIa4ZRyiHFIQJSSkyAu1CH3OYw0hS1ISSSkEkkZzDKOUQ+5zGHVqSpaQQVEggmGUcohCULEpKSACL9Yh9zmMKLiQgqks2hOY1wyjlECxOc7N04cWCDMEKMwYICwbKXcwV+bUYaQ4y4goWhYCkrSoSIUDnBhpb9FvLtAzuNfo+sRlqlMNpBAateI0PgcmmKYaTSQ2loLKEIkhN4ACAB/p5LoGTqB/DNigs0ZSyoo9agr77PiMuCaVC5bS9DiDoUIQXaKtUqNTECTbw+S9aYpT9GfTmdZcLaxPUpMjDDOVGPVcw/zJinfy5/0U6TQ570QtK0LE0qSZgg6QRAh15s/wBlkj/eFpevuUsX/wCNMMoCf8C+AAAJACH5UK9FLpaD/Ua22zs62S3lSnoADS87DHpOpS4ItLUG2xrUrtDSOUQkIWJSUkSIvh9w/EYbWUFNwXr/AMGGkcoj2c5zseWctcofc5jADirUrSxaMtV8MNcohxSECUkpMgLtQh9zmMNIUtSEkkpBJJGcwyjlEPucxh1akqWkEFRIIJhlHKIQlCxKSkgAi/WIfc5jCi4kIKpLNoTmNcMo5RVtE41buIq2ZxFW/wDKraHAVbuAq9CcK9onGrdxFWzOIqN5tVD3zE1sZgc6kdxCgpJzER4dCysSVL2NJ/PqXFDdotJbPmbcEv3GtOoiqhmlrozYccabWgu2CZTS3O0v4RDDrD7Zktp1BQtJ1FKpEfeoeUC7pcZpLYSfgU0cYL9nSHQmY/wUmKUH6Ck/0dJFtr4NKIyLQmGrF4pRW+SfgLcNii5So39RRsHG9aKiukZQpSgiiUFiSn3lHUNCdajFKo1CbuClvupQgLOi0qQj7Q0e1rCVqTzARlug0l1YmGm30FzlijN0mjPJk404LSTFPDQJ/pKWT0OCMgPL1Fpxt0dCoySuiURj8bj7jaP8AAmZJjKdKoZJBUGXClKpepOZUM0TKTc7ypHgO8W4oNNoCznIAfaHxIj7QUIlZkELcDLh+B2yqDMGH5s3op1MQbnNbLdaAphpwigM+taLi8akJVLNaE4QE/luhwCcpWhCgtzWMyf8VcRDy7p3CWmHHTqmR2gqvM5EwowkicpHQZCr0Jwr2icat3EVbM4iv0Kwq3sDVtBgatz51bMYmrexNW0VjX6FYVb2Bq2gwNW586vQMTAhXlJNpBvSb49k7s1fI6YoaHwAfDczOsk6ULziLeU8nJJWFNpm+z+oiHV/ZrLDZBaypQARRVr1usokWj+ndGSGMoZOf/pMvUH2jSrXvgtxlFvLmTCJhCSP4lOAXDS2nW1FK21pKVJI0EG8H/QJKmVScanIPNH8TaoapVLpzibqKtstBv8AVXFENO+01MKm0Ul/+mobHpYQIprtKpKvfWcw1JAuSP7CG1uOuLCEIQCpSlKMglIGcmKUxQKSWiWKIsW1k6nCCAiMrPOMI/8ATUn2zUvSAu9PwxRFUB7bsgusHFaIpbNKo652XWVhaTLOJphouUZ8CYBKVJUkzCknWIykxTGdjSfYvRkGmIQlNpTqEeM0PjatJrptJYQ8hSHEtOqQFpUJFKgkiYNQKZiYmJQYYoVLorFzfjpXbSj0TQYyTk1rWV+I5C6A6PQti7pIjIf5nqEvBpyMttUdwiZRSUqY6lizGVEU5+U0s0P2pPxfgikmhhiaGKIk22g0c6HPXOMiUht310MhxKvhcKIomVf/ANhH/wCcZNysr4GgP+cZFygG/WC2VRSHGaWB/S0lIQ6QNIkSDX61Y1+hWFW9gatoMDU8jmEOoUtSFAAKBJJGYQw5ymG1IQJzUoSAu1mHkcwhQcUFgkI8xlI6oYc5THs7Vmzb8s5T1w8jmEJLiQgJmgWhOZ1Qw5ymFpQsTmlRkRMw8jmENLUlS1EEJJBBMMOcph5HMIdQpakKAAUCSSMwhhzlMNqQgTmpQkBdrMPI5hCg4oLBIR5jKR1Qw5ymPZ2rNm35Zynrh5HMISXEhABKBaE5nVDLnKYUlKhOYUZHPDiOIhpdIYmbLgHnAwUIcCk8CP8AIN4hH8vyiu80pgXL/VbzLhlFKyM8ZOpUj+JoDwO1QfwRlKmfY3K684/qcmvagdQ6RH2Tap9ECPY/aDIx8dqx65oNtCIy8xleibB0hp9EUF+iPXyS8gotAGU0k3KH9x/pLQ/lenhZo7aJOPBBJRZaTiuKR4GT3aMh+05+MWvckM64SpLanFqQFZwkmYBijuoYft+C6pBCHLFyrCjcZTvj+KodCow9tS0upYbUAc0lkB2P4Cl/qsEHoKIyW/Q1bajkPoj7R5PE8weeDK+R2yYOTMpvLRICihL9I/KHGr0Qw+xk9TpNHafUFuJRqJEeMcmhydJDImtSQJhOi4m4x/0yQgeyZoS0Kik0tGtZo6oeyc8f/lUBWLjcOZBQTs6UKIOhaI+1JYR6KJTEUnBLpg0xVATINrpdnxV61EIAAGofdyjSqFRyR7Rijh//ADa86SngY+2OVnv0qMtGLEPfailf3R4IHWERRcptpCr3KbSGnCpP5Gm0yPxQspc/mdGSJaQtwIKfiBqcQJOK0w2tQKiQQCZiGHOUw8jmEOoUtSFAAKBJJGYQw5ymG1IQJzUoSAu1mHkcwhQcUFgkI8xlI6oYc5TVtE41buIq2ZxFW/8AKraHAVbuAq9CcK9onGrdxFWzOIq3/lVtDgKrxdhUPcGELUhY0iG7B2yBNPxCChxpYziSkqBgHJFKVsBNj92ocpBo2db9AJeZP6rRj7N0dumOIKHso5PQELcCtqiKVQcqMkWl0Z1IUq451NOiYh97Jb3ovfY5Vx9kxlygn/1mT6Q6Hm/yjuiPte9Q6UbhQsqIR4ylfAURRqLT066O8MHrEZFp9GSDK24wtKOaUvvUp9dGo5WWGVOKLbRWZqsJNyZnPKMmu0+hNAqDCCJFzQVpVctI9MJ8GjNI8Kh0UfhZa7mFts5OoDSG2KGwChoWBZtqmSVLqyocnUB9FuiURgBdMpQPoBhpTbJcUWm1qtqQgm5JVITIGmX/AOhQpxxZklCAVKUdQAigGg0KhvpfAf8AI84tu9IDdX/mOKXzGcehOFe0TjVu4irZnEVNdQhuSEKClGYuAvMO9JhVtxcpCRGYz0w11CE2ElJSDnvN+iHekx7SxO1olPNnhrqEGwsqtAZ7v2h3pMItNqlIzAzCWmGuoQ5JaEhKhImREO9JhrqENyQhQUozFwF5h3pMKtuLlISIzGemGuoQmwkpKQc95v0Q70mPaWJ2tEp5s8NdQg2FlVoDPd+0O9JhFptUpGYGYS0w11CFyUgBKhI3EQv/AGMN/wC4ham0zmsTBSR/dMeyV6wCUHtC0rQoTCkmYMZHYW+SSX25suk6ytuRVGXFIcbKShFMxDrUUV/KNDQCbbyf4xEvUXmjbHxxkqlUNfrYIfbim5NXSVXB63/B0rrsFUfaqkv0RF7VCfdwC5tKj7Lin+tYoxcVxopsx/4fBmny/qUUk0V8cWf9KkvPlllDLZdWV2G0XJQmeZI1f6mTaXTCnOKOyt2XIDH2ayslMpkmhuwClSSQQbiCIZRQKCsApfpUwVpOzRGUqdTHR6LLDcZAYcX/AO+pb44OlUZPotDbOdDDSWgeQCFBKUiZJMgIBWhYKVvZhLMQmG/9xC5KQkAiRN4h3pMNdQhuSEKClGYuAvMO9JhVtxcpCRGYz0w11CE2ElJSDnvN+iHek1ehWFW9gatoMDVufOrZjE1b2Jq2isa/QrCrewNW0GBq3PnVsxiat7E1bRWNY9xUCHlt2iSoJNxkNIzGGLY9Tdx4GH0hZMghflVwOerItDfWvO7YsO86JKimUygLOZEw+0n4Vx9omfzBbtDc6LUOZUfT+q3T+lVsxkxp0LAB/mFAWzh4cf8Ah1kd51d7j1HKWFHoj7NZXoKznW06pYHF0x9qMqUc+hc0f82Y+2brh1Cn0Qn/AIQ5TqanU5SR/wDZCIo1Iyc4nM4w8pZ+MPW4y/RXv12Vs4FcZUyVzO//AIR9oaM3+mwpcfar/wDg/wD+0fabJVn/AOZOifNcOUdxSffo77dIbIOpbRUPukRedQjIFOWF5nFtFpvnckmMpsUNGxYHjORktNLeTnfpntzwPkEABIEgBcABVkuiUl9hQU0460lS0EaiYIAAmSbgAIK37OewPLxMgYoaQNa1zwELbaEp+REz1zh5x06LZJA/wIGvGrQtWNfoVhVvYGraDA1Ic4DvCV23AUAkCQKroW3xPaFJKUTmE3m+6EOcB3gFKkm2Su4SF2ieuFt8T2jzeLKVi/8ADrnLXCHOA7wQlKRY89xmL9E9cLb4ntAUVozlN4vvhDnAd4UgJcJWASZyVfC2+J7QhzgO8JXbcBQCQJAquhbfE9oUkpROYTeb7oQ5wHeAUqSbZK7hIXaJ64W3xPaPN4spWL/w65y1whzgO8EJSkWPPcZi/RPXC2+J7QFFaM5TeL74Q5wHeFICXCVgEmclXwtvie0Ic4DvAWFLFkEgSmboUjiYslKc4Ge+6EL4CE3jzG1FMISLrCjbT+wUDKKKhU8ymDL/AGVDpZPpdSUjjeIdQ4n1IIUOIryPQKUvW/R23P8AkI+ztET+jaY//qKYoNJo36VJWf8AmVxlLKqPjaI/4R9pnmvzUUKwWmPt7SU3jbM/8HDH22t/5p9KjL9Jf/Tykof87MU7Kf7ZVAwcikvEan8pW4OTkE+t8nBBjKORwP1Xj/8Abj7RsN/p0YuYrRH2hpL36LCGsSuF5SpQ1PPgDoSiPs9Rl/rldIHB4qigUaiI9LDSWh0gVEADOTFNaUqcrKDbPTOKNaPqdNkcBMmKTYbGdDIs/WKVSpj1LKhwUSIYQ4sD8RJRhOFtoZBmGkTCf8nXAnbzWf7QhfARIACz5oKIBKk5ynNffCHCf8DvCkBLhKwCTOSr4W3xPaEOcB3hK7bgKASBIFV0Lb4ntCklKJzCbzfdCHOA7wClSTbJXcJC7RPXC2+J7VbRONW7iKtmcRVv/KraHAVbuAq9CcK9onGrdxFWzOIq3/lVtDgKt3AVehOFe0TjVu41eg4iBA9UCBI2zeLjFKd+I2/+U4Qw4ka0kHiDGT/3Q5PECGX0TAN6QcDDxB/uhQ+UU+jj8ywnGKbR1TzAOJM4cSf8GCKjC0gf5ikspnmmsCMoUb/AdSYpSVDWApWAguL/AMIIxlFDfURpVZSMTFAbR+ZwqwAhbbcwD5Ea/wA04pb3wmx/xlClOHWslR/3ge+IEDVjAge4cRAjeqMgHDgKt3AVehOFe0TjVu4irZnEVUjo+sPWvD89mzKdm+KP1/SG7Fv3pzlK+KR0fWFeLa8lmVnPfPTqij9f0j2XhfFO1w1RSOj6wnxbXntTs57padUUfr+kOWLfuynKV0Ujo+sM2vD8lq1Kdm6KP1/SKR0fWHrXh+ezZlOzfFH6/pDdi3705ylfFI6PrCvFteSzKznvnp1RR+v6R7Lwvina4aopHR9YT4trz2p2c90tOqKP1/SHLFv3ZTlK6KR0fWGbXh+S1alOzdFH6/pFI6PrD1rw/PZsynZvij9f0huxb96c5SvikdH1hXi2vJZlZz3z06oZ6o8nh/FO1w1Q70wm3PzTzQz1Qqza0SnmuhzphqdjyznnldDP+8OdMKnY80pZ5QwOMNBNrTnzXwU8kJCp+WUpQwOMJCLH7znDnTCbc/NPNDP+8Gza0SnmuhzphqdjyznnldDPVDvTC52PNKWeV8M9UJsW/enOUr4pHR9YX4lrySlZz3wz1QPC8L4p2uGqKR0fWE+La89qdnPdLTqij9f0hyxb92U5SuikdH1hm14fktWpTs3RR+v6RSOj6w9a8Pz2bMp2b4o/X9IbsW/enOUr4pHR9YV4tryWZWc989OqKP1/Sr0Kwq3sDVtBgatz51bMYmrexNW0VjX6FYVb2Bq2gwNW586tmMTVvYmraKxr9CsKt7A1bQYGrc+dQl7MYmr++NXrVjX6FVf3wq9YwNW7V6Biav741aFqxr2asKt7A1bQYGrc+dWzGJq3sTVtFY1+hWFW9gatoMDUhvge8JQEuEIJAM5KuhbnEdoKitGYKvF90Ib4HvEkoSLc0XGYu0z1wtziO0ebxZzt3/h1SlrhDfA94JSUmxJFwkL9M9cLc4jtCUlKJSKrzffCG+B7wpdtwBZAIkCq+FucR2hDfA94SgJcIQSAZyVdC3OI7QVFaMwVeL7oQ3wPeJJQkW5ouMxdpnrhbnEdo83iznbv/DqlLXCG+B7wSkpNiSLhIX6Z64W5xHaEpKUSkVXm++EN8D3hS7bgCyARIFV8Lc4jtCG+B7wlAS4QgkAzkq6FucR2gqK0Zgq8X3Qhvge8SShItzRcZi7TPXC3OI7R5vFnO3f+HVKWuEN8D3glJSbEkXCQv0z1wtziO0JSUolIqvN98Ib4HvCl23AFkAiQKr4W5xHaEN8D3hDYS4QgkAzkq6FucR2gqUpGYKkRfdDbXA94ASlItzRcZi7TPXC3OI7QLXiTnbv/AA6pS1whvge8EpKTYki4SF+meuFucR2hKSlEpFV5vvhDfA94Uu24AsgESBVfC3OI7Qhvge8JQEuEIJAM5KuhbnEdoKitGYKvF90Ib4HvEkoSLc0XGYu0z1wtziO0ebxZzt3/AIdUpa4Q3wPeCUlJsSRcJC/TPXC3OI7QlJSiUiq833whvge8KXbcAWQCJAqvhbnEdoQ3wPeEoCXCEEgGclXQtziO0FRWjMFXi+6EN8D3iSUJFuaLjMXaZ64W5xHaraJxq3cRVsziKt/5VbQ4CrdwFXoThXtE41buIq2ZxFW/8qtocBVu4Cr0Jwr2icat3EVbM4irf+VW0OAq3cBV6E4V7RONW7iKtmcRVv8Ayq2hwFW7gKvQnCvaJxq3cRVsziKt/wCVW0OAq3cBV6E4V7RONW7iKtmcRU11GG5LQkqSZkyIh3pELtNqnMSAzCeiGuowLCyqyTnu/eHekR7SxKzolPPmhrqMKsJKQojPebtMO9IhNtxc5mZGYy0Q11GHJIQopSJC4C4Q70iGuow3JaElSTMmREO9IhdptU5iQGYT0Q11GBYWVWSc937w70iPaWJWdEp580NdRhVhJSFEZ7zdph3pEJtuLnMzIzGWiGuow5JCFFKRIXAXCHekQ11GG5LQkqSZkyIh3pELtNqnMSAzCeiGuowLCyqyTnu/eHekR7SxKzolPPmhrqMKsJKQojPebtMO9IhNtxc5mZGYy0Q11GHJIQopSJC4C4Q70iGuow3JaElSTMmREO9IhdptU5iQGYT0Q11GBYWVWSc937w70iPaWJWdEp580NdRhVhJSFEZ7zdph3pEJtuLnMzIzGWiGuow5JCFFKRIXAXCHekQ11GG5LQkqSZkyIh3pELtNqnMSAzCeiGuowLCyqyTnu/eHekR7SxKzolPPmhrqMKsJKQojPebtMO9IhNtxc5mZGYy0Q11GHJIQopSJC4C4Q70iGuow3JaElSTMmREO9IhdptU5iQGYT0Q11GBYWVWSc937w70ir0Kwq3sDVtBgatz51bMYmrexNW0VjX6FYVb2Bq2gwNW586tmMTVvYmraKxr9CsKt7A1bQYGrc+dWzGJq3sTVtFY1+hWFW9gatoMDVufOrZjE1b2Jq2isa/QrCrewNW0GBq3PnVsxiat7E1bRWNfoVhVvYGraDA1Pucxh1akqWkEFRIIJhlHKIQlCxKSkgAi/WIfc5jCi4kIKpLNoTmNcMo5RHsrVqdjyzlLPKH3OYwkOKtkWli0ZSGuGUcohxSECUkpMgLtQh9zmMNIUtSEkkpBJJGcwyjlEPucxh1akqWkEFRIIJhlHKIQlCxKSkgAi/WIfc5jCi4kIKpLNoTmNcMo5RHsrVqdjyzlLPKH3OYwkOKtkWli0ZSGuGUcohxSECUkpMgLtQh9zmMNIUtSEkkpBJJGcwyjlEPucxh1akqWkEFRIIJhlHKIQlCxKSkgAi/WIfc5jCi4kIKpLNoTmNcMo5RHsrVqdjyzlLPKH3OYwkOKtkWli0ZSGuGUcohxSECUkpMgLtQh9zmMNIUtSEkkpBJJGcwyjlEPucxh1akqWkEFRIIJhlHKIQlCxKSkgAi/WIfc5jCi4kIKpLNoTmNcMo5RHsrVqdjyzlLPKH3OYwkOKtkWli0ZSGuGUcohxSECUkpMgLtQh9zmMNIUtSEkkpBJJGcwyjlEPucxh1akqWkEFRIIJhlHKIQlCxKSkgAi/WIfc5jCi4kIKpLNoTmNcMo5RHsrVqdjyzlLPKH3OYwkOKtkWli0ZSGuGUcohxSECUkpMgLtQh9zmMNIUtSEkkpBJJGcwyjlEPucxh1akqWkEFRIIJhlHKIQlCxKSkgAi/WIfc5jCi4kIKpLNoTmNcMo5RVtE41buIq2ZxFW/wDKraHAVbuAq9CcK9onGrdxFWzOIq3/AJVbQ4CrdwFXoThXtE41buIq2ZxFW/8AKraHAVbuAq9CcK9onGrdxFWzOIq3/lVtDgKt3AVehOFe0TjVu4irZnEVb/yq2hwFW7gKvQnCvaJxq3cRVsziK/QrCrewNW0GBq3PnVsxiat7E1bRWNfoVhVvYGraDA1bnzq2YxNW9iatorGv0Kwq3sDVtBgatz51bMYmrexNW0VjX6FYVb2Bq2gwNW586tmMTVvYmraKxr9CsKt7A1bQYGrc+dWzGJq3sTVtFY1+hWFW9gatoMDU8jmEOoUtSFAAKBJJGYQw5ymG1IQJzUoSAu1mHkcwhQcUFgkI8xlI6oYc5THs7Vmzb8s5T1w8jmEJLiQgJmgWhOZ1Qw5ymFpQsTmlRkRMw8jmENLUlS1EEJJBBMMOcph5HMIdQpakKAAUCSSMwhhzlMNqQgTmpQkBdrMPI5hCg4oLBIR5jKR1Qw5ymPZ2rNm35Zynrh5HMISXEhATNAtCczqhhzlMLShYnNKjIiZh5HMIaWpKlqIISSCCYYc5TDyOYQ6hS1IUAAoEkkZhDDnKYbUhAnNShIC7WYeRzCFBxQWCQjzGUjqhhzlMeztWbNvyzlPXDyOYQkuJCAmaBaE5nVDDnKYWlCxOaVGREzDyOYQ0tSVLUQQkkEEww5ymHkcwh1ClqQoABQJJIzCGHOUw2pCBOalCQF2sw8jmEKDigsEhHmMpHVDDnKY9nas2bflnKeuHkcwhJcSEBM0C0JzOqGHOUwtKFic0qMiJmHkcwhpakqWoghJIIJhhzlMPI5hDqFLUhQACgSSRmEMOcphtSECc1KEgLtZh5HMIUHFBYJCPMZSOqGHOUx7O1Zs2/LOU9cPI5hCS4kICZoFoTmdUMOcphaULE5pUZETMPI5hDS1JUtRBCSQQTDDnKYeRzCHUKWpCgAFAkkjMIYc5TDakIE5qUJAXazDyOYQoOKCwSEeYykdUMOcpq2icat3EVbM4irf+VW0OAq3cBV6E4V7RONW7iKtmcRVv/KraHAVbuAq9CcK9onGrdxFWzOIq3/lVtDgKt3AVehOFe0TjVu4irZnEVb/yq2hwFW7gKvQnCvaJxq3cRVsziKt/5VbQ4CrdwFXoThXtE41buIq2ZxFTXUIbkhCgpRmLgLzDvSYVbcXKQkRmM9MNdQhNhJSUg57zfoh3pMe0sTtaJTzZ4a6hBsLKrQGe79od6TCLTapSMwMwlphrqEOSWhISoSJkRDvSYa6hDckIUFKMxcBeYd6TCrbi5SEiMxnphrqEJsJKSkHPeb9EO9Jj2lidrRKebPDXUINhZVaAz3ftDvSYRabVKRmBmEtMNdQhyS0JCVCRMiId6TDXUIbkhCgpRmLgLzDvSYVbcXKQkRmM9MNdQhNhJSUg57zfoh3pMe0sTtaJTzZ4a6hBsLKrQGe79od6TCLTapSMwMwlphrqEOSWhISoSJkRDvSYa6hDckIUFKMxcBeYd6TCrbi5SEiMxnphrqEJsJKSkHPeb9EO9Jj2lidrRKebPDXUINhZVaAz3ftDvSYRabVKRmBmEtMNdQhyS0JCVCRMiId6TDXUIbkhCgpRmLgLzDvSYVbcXKQkRmM9MNdQhNhJSUg57zfoh3pMe0sTtaJTzZ4a6hBsLKrQGe79od6TCLTapSMwMwlphrqEOSWhISoSJkRDvSYa6hDckIUFKMxcBeYd6TCrbi5SEiMxnphrqEJsJKSkHPeb9EO9Jq9CsKt7A1bQYGrc+dWzGJq3sTVtFY1+hWFW9gatoMDVufOrZjE1b2Jq2isa/QrCrewNW0GBq3PnVsxiat7E1bRWNfoVhVvYGraDA1bnzq2YxNW9iatorGv0Kwq3sDVtBgatz51bMYmrexNW0VjX6FYVb2Bq2gwNSHOA7wldtwFAJAkCq6Ft8T2hSSlE5hN5vuhDnAd4BSpJtkruEhdonrhbfE9o83iylYv/AA65y1whzgO8EJSkWPPcZi/RPXC2+J7QFFaM5TeL74Q5wHeFICXCVgEmclXwtvie0Ic4DvCV23AUAkCQKroW3xPaFJKUTmE3m+6EOcB3gFKkm2Su4SF2ieuFt8T2jzeLKVi/8OuctcIc4DvBCUpFjz3GYv0T1wtvie0BRWjOU3i++EOcB3hSAlwlYBJnJV8Lb4ntCHOA7wldtwFAJAkCq6Ft8T2hSSlE5hN5vuhDnAd4BSpJtkruEhdonrhbfE9o83iylYv/AA65y1whzgO8EJSkWPPcZi/RPXC2+J7QFFaM5TeL74Q5wHeFICXCVgEmclXwtvie0Ic4DvCV23AUAkCQKroW3xPaFJKUTmE3m+6EOcB3gFKkm2Su4SF2ieuFt8T2jzeLKVi/8OuctcIc4DvBCUpFjz3GYv0T1wtvie0BRWjOU3i++EOcB3hSAlwlYBJnJV8Lb4ntCHOA7wldtwFAJAkCq6Ft8T2hSSlE5hN5vuhDnAd4BSpJtkruEhdonrhbfE9o83iylYv/AA65y1whzgO8EJSkWPPcZi/RPXC2+J7QFFaM5TeL74Q5wHeFICXCVgEmclXwtvie0Ic4DvCV23AUAkCQKroW3xPaFJKUTmE3m+6EOcB3gFKkm2Su4SF2ieuFt8T2q2icat3EVbM4irf+VW0OAq3cBV6E4V7RONW7iKtmcRVv/KraHAVbuAq9CcK9onGrdxFWzOIq3/lVtDgKt3AVehOFe0TjVu4irZnEVb/yq2hwFW7gKvQnCvaJxq3cRVsziKt/5VbQ4CrdwFXoThXtE41buIq2ZxFX/8QAFBEBAAAAAAAAAAAAAAAAAAAAoP/aAAgBAgEBPwBSP//EABQRAQAAAAAAAAAAAAAAAAAAAKD/2gAIAQMBAT8AUj//2Q==;" vertex="1" parent="1">
          <mxGeometry x="546.5" y="325" width="67" height="67" as="geometry" />
        </mxCell>
        <mxCell id="L4tckfG0INi3qkzBc33O-21" value="" style="shape=image;imageAspect=0;aspect=fixed;verticalLabelPosition=bottom;verticalAlign=top;rounded=0;fontFamily=Helvetica;fontSize=12;fontColor=default;fillColor=none;gradientColor=none;html=1;image=data:image/png,iVBORw0KGgoAAAANSUhEUgAAAOEAAADhCAMAAAAJbSJIAAAA2FBMVEX///8Bdrz+wAfu7u7t7e3v7+/39/fy8vL09PT+/v77+/v+vgAAdLsAcboAcroAbrkAa7gZf8Dt8Pb+yTL40HNxpdH49fH/++7v694AbLhqnsv+13v9wxz5zmH+1Gju7up9rdLz3qyGtdmixOHh7fbS3uf+6bn7yluXutcWe759p8/09/zC1elamMn/8Mzy4roxhsL+35r31onw7N/R5fPD1+OuyN1BjcVZmclHkcbM2+X/+eX/zEbw59L6y1Lh6e3204H0257/89fy3q+ow9r/5KT+yT7w5skt3uLWAAANuklEQVR4nO2dC1fiOBTHC20opS8IGgdFQQTFLSqog+/XOCPf/xttkz5VoEma0jJDztmzGfZO9v4Izb1J/k0kCZeaIruliqsaqQLyMcBVRcPVKqnW1s9YljaEBXR6Q/jPEdZwqSq4qLhaIVWZfCyTegVXVVKtrqGxpHj/wsX7hHxB3t+peN8VaYlYrKOxRHrSt45+AhXc74E1/thveg2NN4SFdJqfUFlorXxvel2MpSouqldIHeAa+FqNWayZsYfpMVejLygeW7wvIvqu1sv4X4j4G8ICOs1IqOHipQNV8gdSBbgqAVLHH0pejlRZQ2M/AyIpHYiq3n8k+Z+XAYGoumbG/1jEXxenN4T/GiHARa7gQqqgiqsqqaq4WvU+JhYyt7GbXqkIP/gIl2q1JqzlJGMPs+aPvOQL8kZeQu8Nt7h4A1WN3RioLpHm9K9Ho2Gv19vd3e4Nh6Ppzxf383QtUxoHhLhXBYdaYtz/edQ9G5v1Vsu2TVIs9x/bdv98etc9unakmgrWMqdRkQxHvbuG0bJNyyjNK4blkpbG278HqiqvGWEFgen2uI7Z5sPFMA3Ltm+GL9n9lAJCoQ/A9NbtuSS2OKbd6kLxbvjPoeixtKoMG7ZFT+cX0xi6v9VMxlJZaCDS0PTUZui9eD+OB6ooNzKM+M5ZnQePFMueFp/QaZjcgG431qdFJ3Qa7A/gJ8TWNANCgRMz7SZND3qIPyXh80Nxc3x1aKcExFnAiyx6ji9FvZoy1L7wDaKfi3mrFjanQb20v1FS6qNKUQnBWEAXur/Tm+wIUy42D1oiAEsld7BJ48b3NW9R+xYVAeMMKeYtErtvEY+H0RfEvumDttPFwqjYadyYs/cUJ0yMnktCLbqLE7pTojrT9CJOOAL8bmSY06BG5KNh3xyN+tNuiWt0NbuoiITg5TTsMcMi+SVAyjbPs2mdiSVUosCfRgQhv5RCwmA0VGTU4xhgjRvA7cY8LUYspUslZHHCPrSPUGgs3XKMP42KUD2NFPVqqojfD8YVoxE3vmafLxoNrZA5TT8YVcxu3Fg6ZR5QC0/oztRjxtoZ88903Qh3mSOGaEJRI01EeKTFjGs37GFf8EgjKFqAQUBo3aHIWFY4wkXD/WsCo4XMEj2XRPyQsGTeRwk/GnKkNQ0FFDGniQitcSUwVgc8uWnhCUvmGXnQFYAGJZ7kO0PCFNOWOGHJbEwd13jQXbDrlEgodPYkaAZciRO6kwtrfNYwOadPDbWQyr3+5yHFMLgnxCQeFlC51xey0hYSFjmn2RCunFDQqr5AwlKjVkTlnjwQSMjvRobKPSCUsJg5Tcu03OJrZhZXLTMxjMQIIS4OedZINde1tt1tXHZJWV6lJzw/xOWYFFJ9Pz9/kCQIciD0JVASka2hJdUaUpMWNqKsbV+fVx4nTy5j0ZR7MWMlmdA3dg708pziQj7PICiKcu+7sXa6HNDP2twC9+cSEsj9HUjnRkCYOuLTG9doCInxYkLM+A7pIv66ErqMl/AvJyzrrzAv5V72z2HYi5ko97yqGhlXv1bVWHPfjVOPpTHECyhYuYejWmiMvxlPTkqqnsCAVP3gif8n343j+3CLCAM3EgnLV8IivvtrcK6Ptm9OjXra0kpa24hymiTCsv4MxRAC9DK9K2FZbKLoV0BhIMS/UwGEAN3vmjbfulnmhM2kTX+K+SEa3LU4V814CX03tGTCsn4IUyr3ZNAzxU396AiDOX5StCCEH1I65R5QbkQI8lgKdcT3Ec9T5TTqwFhxB7ITHqQhVAfsm9SrJizriF+5p75w7ayIIJQYCI9TKPfGorRqTCXct3DoCE8clVO5h7ZX/gx6hNRZm186nMo98FOQnpKdkD7ik0684MxpUA6jDB/hq8ZFqE4FiX6zJ/xYSqhEgf+TrkEWpNtmL8Y4VO5RPoflHc9nXBiUeyP+N5jSFWtX892Az3SE+kxWOJR7PKpCIcU+CtyAj5SEb5Ajp3HyCPak1PshYZOS8ICHcJTXOGOMQzeuqPhw4SHs5hPt/R8pcQPMKAeast5ZQrhgpJEaeY2kJRC4Ad+oCWdLRpoF0eIlr5G0NUWhG1RpKSE8XhIt5kf82jSnjM26i7lBC1jW95hzmlpej6HtRG4c0xOesBOyi5fFAF7H3KCM92WyWMOq3KvmknUb5ijmxi9qQLdojMq96ksej6HVGqHQDdU5YSDUO4zKPZDHQGOP+yhyQ75g6UI3M2VT7qk84uV0xWp1a3E3aDM2n/ACsOU06HbFhFb95vqTG9KEBRCvfDMSrnRuaJg25vvkBtMw480uWJR7cuImJo3f/r+McL/KiOpB1TJN2xz3BqD22Q3UZiScQCblntZPtYnm9kmrXm/QlLvb3tSdLPk7D6EbtBPDGKHGptzrpxhKrdbp7vRaW6SJ0khViz6OrUOHG8bUCWlEyJjTjLgJTfN2pKDvToe5BIWejB2QnfCIk9CqdwcI8Ggk48b02dqqCQ37DCIw12kGwgemQBgQ/mFT7tW4jriwjGktLjHhkvk5f3QOQDdaOEzKPfU/jpmFOR6gMF0Kp9Js8iL4xPELJYSHkEm5hzgI7Vtydl4qidjDAVcHltmzNg5Cu6eCeU7TvjPgGp9z87mET1kT2tuLlHuRUlsiVfi16rgVeXZ40Obn8xbbWJR7zM+hefv1AZAhfDif7D1/NJNLu0zEzfx85XK7IzMp92r/sY2lxlj5PIg5ztPlx1yN9tyShs3rwkdW5R5jtGgNQDwQAef8WYTfDIQHUqYR3x6ieNPworlSPEx4mSmhdafGmgadrVXzhSvCWWXe9gBETcMnxpmdGMJfSwjnzg+vGQjN7Vo0MXPeV9+BmFBjVO4xvYhWH0STa3iYB19Zb0KFTbkHGLRQ1h0KQy1kWgEUSLjFvH+o0u+t2SMQNA2e8gEkK22MhIh628I4VcKmwUdehE+AijC25q1Sbz2Zuyhomn5DU3Rpy19zej9rI4Rz9y3Qb9rB1J5Wg12CTl6A+jNkV+5RH4JYd4JA5LCtUoskfJuriVq+B6zSLpg2asEblpU8Qr1HOONQ7tEeDWTdBU2D89wAmzIPIeU5j9Zu0DS8zI3wFVK8b+E/h9GaEOVQ4xMqHAvx4gifeM7cA306tYnZVQMhS16Pof7MeeYeXd5GzqkkgWgnH74U71vQZTX5E2KhCR8h3U5+AQgfeAnpNthyJ8QbFpxn7mlU04topMmH0B1marxn7iGq5Nvs+cO0/CMXwGYn7vP8aDE/4lcUQJWa+oTu38uDUG/upDn5Q6VJ3HIl1Ns7qc42UWnSmjwJyTJwqjP3VIpXK/Mj1MvHc3xmO3MP9ZI70Y0W/nyTXnUuhE/fu3LSn7nnUPxK84iHul7e2xFz5l7yZQArJiQ7Ve39Y22xz2xvyaqJ8jYGQvrNtsW7cM2T17enjrfhKobwPmkORU+o70tEb+HfWkV2LUmVbFv6N8sRC089Md/YgRAw7p8vfx8fDRPCPsnaiHEi4YkUb/nr2ntut+VKCWf/u9HCN06KFvoJFHaMHpNx4rkYZ0sR6eMhJlwSl7klYilymsB6aS/+FYTSsL54uv9XENbQ/Xhh/rYOhBTnRKnq7/GCS2PMbs03TsraXMLMT/OjV+7N0dfdd8f1lu0V7yRLUq13kW9MEQ8Xa6Ig/Cagmu9GhrflVlSk3E+nR7gMSfGq+F4fupymubdFyh4u86tBfbEb2Z4j7HY7aVojKbvX+2q4NZmcl9InZ8U8KVlc5q23MyGk+00veQBEEqZwI8PbcgXOgNsdoWNpcjykC0QCVzHanRVH/A3hhjCpfJOiCiYUNTHjJHTxPk4ey58Y2x2h80NRt+XyRQu9/AcBCDqHsR1kNx4W8rZcLkK9ueO1DFH0KgmJh39JTqOXYy2HoriMcpp8CI9jLf/KnjDdPTMchF56FrYcdKKftfG5keFtuRxZm77lxJpzLkNCJPSuIDkWW6IviP2iJY5oQY4cD1uOxJuL42Gut+XyEL7CWMtwkky4bjmNd5BzSLhVcEKu2dMPELUMwoCYSdbm/6bD6SX7xYMdDkB9C4Ytx7SNXtbG50aGt+VyKff0w6BlJ3qRQW8W87ZciUt9qU8kx52xQ/gW++wxjRsZ3v6wx6W+1JuTi6fZJP4eAzn0qYiE75xvYX97yVLPbb00oekrUQraRDEeI6GwkYb2KM5kwvM0bmR2W647GtIfr5ZA2EnjRma35WJjMUpviisr8slpXGMxnai/g8ISMhyStwSwmeUecJrZEzZ+SA/ozvudtG5QK/fYp55O+ndI9X0ntRsZ3ZZLjFO/gqh/AAFuZHNbrmcM/6RC1B87QPDVYcJvJXMHVP4jWPQ9AERfjpbBvWsPnG8D6/rHORTnRkQoalU/NJa0CUc36nrzWHIEuiH8tty4MbzaYzraBM8ttmYQ5qTc4wy1fx6pDp4hM6fHy3O2y1Pzy2k+Ge8cbn0sOTzIF/3uTy4Qs9MFIcS6px+zw8v99lzNzOPe5Pjpiu+K36IQ4iogyq6d2cX72+Xl6+vlZPJ2eHEx++FfJZii5YLdlqvixSbokAILqtwTeEvnio0DQqroyRRqC2Kcx12yG8KMCPN+WjJ8DlcyluZpnHE8LIDxhrCQTm8Is1HuFdZY/By/aMZeR+Yelzc5zYaQjlDwYnNBjMUp9wprLHTvqZDG/0DE3xAW0ekN4Sfj/wFi9OcFZ7wDbQAAAABJRU5ErkJggg==;" vertex="1" parent="1">
          <mxGeometry x="617" y="210" width="70" height="70" as="geometry" />
        </mxCell>
        <mxCell id="L4tckfG0INi3qkzBc33O-22" value="Python" style="text;strokeColor=none;align=center;fillColor=none;html=1;verticalAlign=middle;whiteSpace=wrap;rounded=0;" vertex="1" parent="1">
          <mxGeometry x="620" y="277.5" width="60" height="30" as="geometry" />
        </mxCell>
        <mxCell id="L4tckfG0INi3qkzBc33O-23" value="Flask" style="text;strokeColor=none;align=center;fillColor=none;html=1;verticalAlign=middle;whiteSpace=wrap;rounded=0;" vertex="1" parent="1">
          <mxGeometry x="540" y="390" width="60" height="30" as="geometry" />
        </mxCell>
        <mxCell id="L4tckfG0INi3qkzBc33O-24" value="Controller" style="text;strokeColor=none;align=center;fillColor=none;html=1;verticalAlign=middle;whiteSpace=wrap;rounded=0;fontSize=12;fontFamily=Helvetica;fontColor=default;" vertex="1" parent="1">
          <mxGeometry x="780" y="343.5" width="60" height="30" as="geometry" />
        </mxCell>
        <mxCell id="L4tckfG0INi3qkzBc33O-25" value="" style="ellipse;whiteSpace=wrap;html=1;" vertex="1" parent="1">
          <mxGeometry x="360" y="430" width="130" height="84" as="geometry" />
        </mxCell>
        <mxCell id="L4tckfG0INi3qkzBc33O-26" value="Business Layer" style="text;strokeColor=none;align=center;fillColor=none;html=1;verticalAlign=middle;whiteSpace=wrap;rounded=0;movable=1;resizable=1;rotatable=1;deletable=1;editable=1;locked=0;connectable=1;" vertex="1" parent="1">
          <mxGeometry x="395" y="457" width="70" height="33" as="geometry" />
        </mxCell>
        <mxCell id="L4tckfG0INi3qkzBc33O-27" value="" style="whiteSpace=wrap;html=1;" vertex="1" parent="1">
          <mxGeometry x="535" y="430" width="200" height="77" as="geometry" />
        </mxCell>
        <mxCell id="L4tckfG0INi3qkzBc33O-29" value="Data validation" style="text;strokeColor=none;align=center;fillColor=none;html=1;verticalAlign=middle;whiteSpace=wrap;rounded=0;" vertex="1" parent="1">
          <mxGeometry x="600" y="507" width="60" height="30" as="geometry" />
        </mxCell>
        <mxCell id="L4tckfG0INi3qkzBc33O-30" value="" style="shape=image;imageAspect=0;aspect=fixed;verticalLabelPosition=bottom;verticalAlign=top;rounded=0;fontFamily=Helvetica;fontSize=12;fontColor=default;fillColor=none;gradientColor=none;html=1;image=data:image/png,iVBORw0KGgoAAAANSUhEUgAAAR0AAACxCAMAAADOHZloAAAAw1BMVEX////u7u7t7e0AouD6+vrz8/P39/f19fX8/Pzx8fEAoN8Aot8Ant////0And8Ant4DpuCByuuIyejm7O72/P14w+V9v99svea23/T08Ox0xOw0rN7d5erA4fHs9fiq1Om01uXN5vIvreJEsOC+2OXW5+9Tt+RdueHO6fTf8veczuOUyeRQteSp2O3u9PbG5vOIz+6a0/D98u+k2PDa8PltwOzR4ehKs9ye0eNqvuHs7+jH4OfV4+644vHO5/aey+OP0OTBz2fRAAAYM0lEQVR4nO1dCUPiyBJOuNNHEjnENggYBARERuG5y7C+ff//V70+QwJJ6IRDnJle1yFSVHc+uqvr6oph8FY2WSuLiwJ7XSjx1yX+RiGdCpf4hcn/jglrVoW/Nggp0wvMm6A6wEuvxwtRGSdBB1uk0Rk+fc7f6jf37dGANo/9Go3brdvZtL9YTZoUHmJdzX1fAh2LYKO5+nxrjXy3CBwbOQ4AoEh/igDS/0Vjfweu/7Ku9zYdkxh8Iv3i6BBidp5m6wF0HCQASW0AIPYD/fHbwwRjo/oro4O7vZYHgU2BgfQ/neayX5B+xgH+ej4kbJ19E3QKrAWfZBfyk/yNQpQKr94GkK6WQ/MleSLR6ea3nkxSpYJbp0e9cZ2cyijzVimxVhEX/HWpyl9X+evalgrjSd236VKCejMmoUE655Dbeq6S6qEe9cZ1FirDDE+xvS23sDcRFyOEGDCwuD9z+N+hgI39AuIiDkfI1iN0kDctkAM96o3rHFTmAXSiyxTjhwEASXMGuoghwncqtnc5VAhTScyBSJxnwPanBaoPJfSoN65zUWVChwxHTuydMjQQFbbQ9QcjquPc3Nz8qN+0Wq31eDx68VyX7+ogTk7RKej4feP7o0OmLiiG9icIBDI2cL37+vJhNek0qAZE+J1KlZmwV7VmZ9Of1tcDF1GM2FILzT+uFt3U2Oz5VugUomuSrO2dGUM356LfnvU7hSpDBCePospQI1XcfZ63BtBG0flH+QyaeL9HvXGdkco0qrxJSS0uSqEL8UaJCvZxsEsxUUv3czioP7yWKpSuXKFkFU4Vz4vuDdUyv6Ba8uvjcuzabJkphlTP9l4pVaRHvXGdl8pQIIZ1gcKeLoCNpR1eU8i/7zcsyzqsV+zzYi9rz3WPyipX8YT22MzL64xUCp3EBShWnjEJiVQE2wvMlmQhr05Kxcy7uWm5IcTtnnm9uvKhT947wbfs1rvHjoKLYGrXh+W8/23RMZtiDdBtCq0bSvs/fhSW9QaVOAOb2rWik2wxC02nrtYA7NOthytvKRtUKq8oFZ54QjMoghk+ktfpqWQ7YKGRurwD1Hs/rbWHjTmSc6eFj+R1eipN4X0rZTJwP/EptwtsTpVd5jxWz7X15KcSciVRj6xG0aF7S3u47wCtqi9Eh1cwqWsGfnxBattCz9WcvM5GpWtJbNGBDhw/WeSwqDuksVPptRiH/CDoUU8wXIklEY8Otzn92T/kqFFYBE/efBTSl38VdNgEQtD78Yzp1l42C5lGgWvYfCc/n+o+QFGeV4lONqmsmksBQnD89txg5mWwctN5MSpsdPv1F+jYe34QdI1SucabdCGKC+lC5K+FC7Eqd3SqDgrvF/1FfxBCwB/P7oZdq1ol1Spmn1DuyJo07ZhpyoRMrdTd9Oojl4cwmJ+Mewe5/1Cg81QK9VjWGte5qYzQFEs25ZW+A91/PYQiawwAm/7FHYxvZ73FatJ9Fby4zki1xkajM9z075b19osLdx1gkP7lpYUUOjHa4Bc7U8PoJGvZgTboNqz+CNrSLyzukLsLubfUQfSl63u+xyOhnuf7LnsP2TYPYMBiIIWZ1x04cP1sfErA0NPVWhKa6EDYMa1KdzlwxNKIaWCnxdFAtkAdMPi3UzGMO+dXQofaRhh3l2PogJiwhE4DADnuuNehWlP5e6CT7kIkgVTuKCpc2MyYiHWKoZhMYuwBihUIGDCO316uDKFwR9CJkztf60w1hKMw5EKshD2Y6o0AnUaIipSqk4fZ2HOLDguMgrgQl4SGh9Ed4A7u3xYTtn8FTstaP0AnPJSq1rjOS1UqaXrdlb4Du2Eq+mVXqbrT+HiYv7VGAyqC2eRAyEFUDttUSNMXjgjkjNd0S5s0Dcx888xAVj2SnmRtU33nSyfK0boyjKITUHFtEONG52Pz2O/fzefz5XI6/Xva6y+e6S7ftJjOaMVae1ZPzZ1r1JVPgg63EUTEhphCuGLCtehDyTq/CzoJ/DlsfAb/WuiE7ygZneT71qMKo3Msr1NTmYe8X9nnzkFeGeRORl6nphJpogeN1bA2eGrzeF/f+SqDfJ9KoZO4APkbUV05iSqfTnqHhMlhX7Gu/HXoLDxmr3oD7w86MVTMz8Hzv39e8r6/CzpKUbrsfWe0QrWkcvEMUvmaqUTOqSVdiBa/kC5Ea+tCxFs7K4WqZunw+kZUujmn6fpOBnckNgyRMrebP0dbhb+uiIssVCWe9/B1OacBOgtD96hMHBXdlSZ39RZrN6K1Qhet/Qsdqnq/m4DOpeNZAPzAOP8o8OeAJekyDwf9b9vs0EX4HQ0q7mhcT/A1oFMs2v6daVl5RlGoTDw79+GB1AacJcaVM6CzJ7zNOOG9RccFtjsbEktrIwjzMkkfAHgedIrQvmF3lDB6vXuM28akC1G0/QvxEkdioQDBl+kQ10qVSqmS/vHQReXBEae2ztPsaalajh99+rjSqIw4EBOzm4KGIBrc9juE1KRATNQrFC/cdPejwyds0B7yHfG02U2HFiB/YxcdkbGMXG/de+7SIWHr4GLGa3SuZSUaGOOT5TPmsyS43NjOAB6Acf1Ra9rfdBqWVEiYI96yqsxC4BaUxXlNVFCnKKLxAQd+VDJ8Udy7SKPaxkFQ94vRgcUWjJ4H4EEqdkSERYhf7m/qb/PevNen7eHz7m7+dtsa93nO9w9HZa06gEe3ElrKW7FUAKq4vr28PDqFyMqCjcLUc2zAQ3zhULE8I+s4wKZLzrGpbmLT31S7saeE8XqRdMhbNFl7bbD2yl83G6EL8UajqU115wpZD9ZGai5sjk0+go6U0fy1GZ07woFHbXSLVJ9bLuCJJTpSFjpTi/IqqaR/t2GIQJjqEYd6ZItRZkgbWIuKvfEsxD0aJIze1LrHOKqM2U2Qru2SSQpPt1TpRToHQ6EzZ7warsAS/gef3NQmvujKJ8fz2qGKgKjtdafCtvt5ww5cidQ/mLgfQcTQMRty+jv3p/eUEx9KdI7ndUzOacRGp/O7uZrfvvh047JRMUERTkDnlDEoOXdAOjqXjfZxucC2b5PF0X+0R54LATsAyexDlunE/rWpaP4t0QlTVYV7uNAYDjd9tpMv5/PpdN7r9Z8nk+Y3RieTVJboxFIp97CKo5uEiSex9TCpvEXnTFIZnEEqKxcia8qFyJvIAC2JN7Ze93IylZXCq6mUkjbR6jGN1y4V9sT5XR8fzytKZYSmmEbOadjrnjpdd6lC6Gj1mMkBqtA5Ba8jck7zR2zi0TlRlCUZney8viSe9QedXxcdRp0p5/RAUsxhuZPeYxqvPSplSZyCVzTntKLTSlsbXYt+v70qdO5LOTkkN7lnFf2Ts86Wc5qQ+6WxESgrFKRpgzmnE/FitMFTTM1z5w2G0PmWuvIfdE4YC+1qF1X8xdEpxMwdMOriZKpj0dHjtUcVi05OXjvocLMicCHyC4PbF1V+sXPiGiK4rBBKE0tlJvPaooNTqPR47VKF0DmaV4TKMhSIqcZqKJ7l2t6yiXkpoiyGb4y+cxIjmje1Z52C13HRPsiOy96LCjPXoiv7IEkbzM7rCEuiKKrksTIzLRYnJmaJn/7MgU6V5yWJ4yeRVKZaOJUphqqG9+7oL2CjYtH2vh4dBZKDoN/qdXjalcY2FqAz6t3x1hMtfHG3fxFDtVzg3TuqNjazEbS/fu6of9kpPlZO0B3V58/dJqt6ZsmIUKSchVp/Ch0ql23RUPBL/SP+guTf4qnQ6KG2iw5mlY5Iozc+WyxUTypD6AIQCfLxRC7geuPWbNp/XHW7zSYbK0WHLblas9H5pxNFJ2+D9NtwZx1SC40rIkn1SgZkk8paLsRA3yny6hV7kRnA6wMDBwDour4/8L3BwPf5geuiPceUl7Kz8jdgD+6auFYrh8dlao0+N1W2nFPgdg38MCoCcbpcKUGimqk6AMprTwMBJjsrGonY5GqMve31thUtg4lCLCJ1FHwNOaddlh/b+fsFIrvo6tzvTrQvHzq2407NrSrwk7w3Vg/L+o+bVmvWe/oo8cDHl2dVKivUIo3+jYd0Iukijr5FB9gqZ1TK4OC1HaSW7r3jrBuExRdZq1D52/YAsh2HLmWHi72Xt2ds1K4FHf5J/Lp4G/m8bojMeXJjzqPvzB0wXvR5exAtfNHfv5BUT+98XEy1as5fwO6XwjJj3JtHU6uofiZ09oR3Ws7pNtrHx8o0tM5Trz4euC4rYi4lc7TSg70MR/vAvcxrEEVEMHtpibO1gSrALyJUKpsUT25cOyZcD3kljkGPstLaoLRzTrU8iKVgR494TqsVlqLJC8l0h4/96Vur3R4N2FbFf2jzBqPxEyPdek7xPvvq/p/iiN4nraKdVEae1daw/V7lpN5TIw7ExJzTaLQvTEW/ZyJM2uB4Nf/eqZJINKzQwxYt5VWHzgHJDpzBii+vw/rOGXJOD0RssBE+fM4XxamsUIxXnpOKjMLnlomf3yyehZcRSUzXERNwLA0GAKBqyfOGvKH1e6GD8doOlYwCCMEB1XT6T4uHuxnd3kGknhTokxNVlFXopLsQw9G+fO7I+GifJi/S/MtWshiwQvA/nl9ZTjSRdu+kN4Y2CKpJFdG/pIT1xpVOpZehEkInhco0EnnhMDo6PYZ5kVdfzQ3mWhov2POUIlRl0pn69jY1z5lhrDWuA6PPnHOa0/BVVmie7KamF1ghwPnPhlC1eZeKyv/a3A2qggIwI5kN8jgqvszOX+khb84pruHaX0j0TfVuf5FcCBg3WgE8RadnaY0rdfTXH+3DuBWIXOe+llat5mf5yd16eDfkgnaW/P5eLx4LnTtAVOJj9iyrVpPSI2kMAuec27ggOiLZ3r343Jmo0t1F+HD4iSXEHKtTLmBsXSrndCr6hOAmt1TOmXM6UFFY8KTTo0mC+vyoR04TLjP4PiY85bVwULAmg4ITZeGgdoGdZ4+lMlN47Uds0nsUvGrvU3UgEDxQKjO9RybCDXME5Fkn9/XwuNJGH7RDjkbsB0EJtx/zTICD7sh8Oaf4p1LxnGXKg2BCvLBhNtRYnZv9w+HnyDkt4LnaOAC0/WUzniqFV05L4obPWUg/pltLBBfIB5R1fNHk4LjSR6+JjkHXv6v0VduB7UWTWD/Pjk5XlYx12VOAdL8PMpVfJWqRy6CDJ1tVgjmaHHc8/YcKAhVdOg86/1NPU/g0ahnq0FgDqVwzs/BUVmjamsTGygVIfZV84tqs8vQjP6paYzSFAo8ai6P5240gCZ1DPbIq567sb3TgTGOEF508GzV5ZlbYTXqwx10qPc8pd1wO/WgldlE52fVHN/OHYeOVbmXSa1kKeS9L8iLVc5rU4wP3IUOIHnU/o3odC3iAn/GDO03/6WIFq7BGIOxnEgoi4DVgoe+N2rf1aa//9LxarSaT4cfHx2bz9PwwXxmHc05xXI9kLfQI8BebARmmAMbPonQvcJ4zTLo9qkzP7TPxs2cnBe1kOMLhcSZWp9txmP/ORjwmYYZiEhFrL7zktzEJ0WNDLCzX7h8uBhAdfc3wpXJfN3bF+RksCflJjD8HdKLE4yOXmyux4so/WxbReFa7+9Gh7WMiGrsYfnTZy+6QvzPs8gNvVHo8Ca2XblhpIjhu9Nj4W2iRYHDMIeyM6LCO/7uGThEm1pkuFrcn6fnFTqQYyPKCfHap4Ff0AtgL1qMlXW6ohbOj05DPXCx2z4ROIR4djDvTEdQupBOcuNaPoyPmJ6FzZyQ+YX/WNMa1M/p3eXYCLVJXVjovUy9DJeJorFik3Oi1fMgOEisMEku8U3REhoo+OsAv8R6lRQC6OY7oVWR9AXuKjzjuZygQszsa/2FPuWYLAqY+TRZNrULG7KYBYT125eLw8zhAsSyfCtbkAk813KcyiUV+NoZ39bFfFE+SjX9Awg46KRIH8dcI2G3+iKWV3M9HJNO4JNVKovOi8bimRF550WG10aidJTZmPNn0ZrftF893xWM3xH2y0u5gBx3gr0XNt/W6TVvkQlaDW7f/5nf0ILedVi50pIlW9C9ihR6gsnhKLcbNbnc43DzR9vy4oEphp9OwIpbE+l18PK24IC+6RteGVFlyoWMIuxC6ha9HR20ELJLOH7tryUSTgmVG7CyH2lnhUu84HG3nFyX2zACGzlKi828udJRHym2cPec0v1xTVDlOAiyRRMfM06M88AfdxjFSmUMVV4gmEjc6kipsZ2FNXspLg5b5xuVLdJr4iNGbcQtE3NGhZZSFatfOOszLko/hQG95eqwWpD/KrV3SkrhcxKYv5o5zkwudjtqzLmeFXhIdayN39HGe04TVofTwvBwx+itGx+woDSkPOpW+iMDR/k4a7TO1RHxWqrRoXzwvsyDd/LBby96jemoTmOYf/Tbn9CRlQVOoAs9pu6TLqzaSN/iZo8fSQNoxn5UjRm/Ef206ekUmqjw5pz+k71x9JEuPXWEWA7djnj3nNL+2qajyRGwe1NGV7D1ac1v4KD2dUtCJvK4ZnaZUWZwHcQI4Q49ERLQguiW/Kjp4LM8xjTJXv/1AAhywOcnc0XJHHkGVJ+cUfyIo4i6rA3kNu7zIWkbS/eNGH34Sr3Xw8Qv5qbZ7FtHn9So9jlQhzNbjhy2TVGbEOmb0l3rAR66cU3KrHIp9kqlH6a8HTvfI0ZuJUyxxmV5IV6ZtqErzsiRA3R5r+A4GJu9Ro79mS4LJj5aUy7Cl4R5WvLquKuM9/Gbo6Hsw+EUXQJne1COmZo/4RRw1hHbr/dugo1HZap8XflMppPCJGIdzThmvtUo1dBvVg+M6gM6FpTIYZ+TlSXCQ+6jTo/n+Q+HpTE+Vc3p2bbCmUh3dDk6giqbq8/OgRtnaILWtuxtyqEf6oRt1GoCqASc9n3WiqqPxVDLfCCJvIo9EilIpWD2ZjkVsQu+w1zXKi8yCnFzYIwd6xLV2cM4GLOKKcJ0l5/R4qjd1SgcAbzDgDzJkbTBIuBh4a5H2T8ZiNrBMs7ppFUr7FWaCHic+3B4kKT7oChmtuXNWdLrbg9JAr4m0KHObf8zK/m9IUo+FCn6LFE+H8E0zteXr0TFa0cd0HG4QrASvhiuT+1kFl9YE79XfYVSE9D0nchrbpcrVidApmDpr8ggqnLnGDF2CTcarYE18FNw2gjcTHjFl7xRE9LVMSKE/EE8nCH2eblt/sQoR+UcfPCGKP1heeh1DF+KN0vFU5eom46PFqG0+woJxwwOBPKGCa7AclihAvMdKpfJeXrRcB+1jT0WVP6kdMXr9nNMjqQoFq0/NnwzPQWLVaeriAVRmYwS26a5Uujhue/n5vFp9bPrT1gAiEDyvgfbguiA4QAvgIu2ARfrodZ9xHaOQZKYqVJ59lO0xUQjcMbcg43UbzQ4CANn8uQx0Qob/zoBbTfzgTxSsJTYL+UZ/MUuCU+Hmm+tAzS0L8PnAE475ubS+Gzl0zm+cPeIjuqAAajcxbo6CugewaN+QnKO/LDr0VfPh5sX3MrSBOk1IGjd8RsAwPnvY+H3+jAbccraEaNQgunNHG52C1n1npGKKsaBSyTqmMBswS/xhrSouCgHVltdqHCd7t9g4cNYQtiquzNjUU2/4HVLIMXpTPIm3LF2I4iLkQlRPqT0ZFatGI6j4PiGorJLYNAQVf13bUgW8SjX8PGZPN4uqBrz4Dl1lyKXYMF6sk2qlz6jUsUn3qWLlGL2hQDylQX4+KpN0/ucjtr1HJDGg02bUb+IIL3beNjhTRsX7RXNOv4jKrOHVcuQCCIJMVQS9Vr9BqrsnMruDQCwh1/5Ryd7jt0NHUOFJf3q7Ho/b69bb3arBEzHLO+jQq7UN1ZGyoj2mJuzvgQ6lkrVicRqGuO6ArY496CSUNziETmJxiZgjQtdBtd160sobkF5gmELhP8vUo2xfL2/PRGU9ubYSzVRI97M5Uy+V3fRVVNjoeoGO7UL7DevzOhzt0/PqXy8VFUu1cTB7ikWnZe3VbEzkdXFL4guoML4NHG8Q2szlc6121legY5B/t2Y8RP6H9QedMBU18Lf2KjUr3q8s2vfFVNbHthQDNcr6piYvYQBKF2Ip7EIMvVH+9lS111FQlI/OntdqWYeXoUBks+qcXvcvp8L3TmCU2otkgRLmpdBJXICm1pK/fioqm2eBw9Cem1q8fht02JM7ehCwausQOqs/6OxRkUef+RZde4D1eCl00l2IZ3WmXpCKdAYOAsifaPIy9p2WMa7Ncu0XoaqW5+v1slnT5HWNluMZqUQCTMLRiRh9x0ycYomL+beh+k0siT/o/EHnDzpXRGX+HzRQ+NOeLVC0AAAAAElFTkSuQmCC;" vertex="1" parent="1">
          <mxGeometry x="540" y="447.16" width="80" height="49.68" as="geometry" />
        </mxCell>
        <mxCell id="L4tckfG0INi3qkzBc33O-31" value="" style="shape=image;imageAspect=0;aspect=fixed;verticalLabelPosition=bottom;verticalAlign=top;rounded=0;fontFamily=Helvetica;fontSize=12;fontColor=default;fillColor=none;gradientColor=none;html=1;image=data:image/png,iVBORw0KGgoAAAANSUhEUgAAASUAAACsCAMAAAAKcUrhAAABX1BMVEX///85a6z4+Pj7+/tChfT29vb///4Bhvj/QTH/vQD7vAXqQzU0qFPy8vIAqkvw8PAAgPYlX6PJ7NhsyJAAoj18msLz+v9ZqPU1aKqNqc0oYaLi6vLq6uojXqP/NyUyZ6b1enPV4fDG1eeiudY1fvHf8uRSfbKRzqHh7P7g399Gda0lo0hCrF9Oi/D8z8z6OClli7mWufU6lK0AevMklPCqv9r/7+3/++3B4/77wLz5b2WSrc63yeDkMyPgNyr63pP4xDhtnvD+9ttflu/96KuOsDH//Or7pqH+5eP+3YaEwPij0/n4m5UAg+77y8f6saxxtPTui4TlWU/jSTvlZl7iQjh0cbi81vp5p+7nSS7pWCnkMizsbCbzjh/3oBX6rxL4tzeuyvfxfSL2yJP5yk3978ajwvaTws+23cJXsnEAkxhtyZFDnvX3YVb6h37+13H+5aKVyvb5VUr90V2n27c/wah8AAAUmklEQVR4nO2djX/aRprHZSmSU6ccKFsESGAMuF6brm1S/AIxid3E9QsYg5N2k+3e7V7v4txm105qd///z808z4w0IwmCbTDkg37rZo0kRjNfPc8zzzwSWFEiRYoUKVKkSJEiRZpoba3VO51OfW1r3B2ZWG2dnr36+Rnq9atDIGWMu1MTpqPDV8+fPXL1/Nnzn+qRRcna6rwWEHFQr061cXdskrT2U4ARcHp+djTurk2MjPrPoZCInr1ai2ITlaF1nvdgRPTzn9+Mu4OTof6QHjyIMBGd9oH0mkB6sLocOd3Ra4kSy5fYKwrpweJLa9opaQtSkvTqpH56Wu+cvX72HN2Nqvpk3L0ct+oipIVTnkdu1V8945CIlqfbmLZeuf72/OeOmENunf15kUNafDvdkQlN6S+//PLLX16v+fa9efAgMiYq46e/PvrP//rb3+fm5v7+38f729I+5VfPmKY6Mh09+x9KiGvvtwNhp6E8cTFN7zRHxv2/f5uTtbcvHuCsui7365RGJkMxdueC+k2k8d41pgfvp7Q8YByHQJqbOxYw1bz4vfhEm0ZzCrUkql2PhvVSwPTrOHs7FhEO+z0gze16JmO8XRQw1abPmA72epqSJ+OJSOmlNW2Y+vibeNTbqohp6mookim9O9799C4EkmLU3r8VjWlMnR2TDDEq7Z3TnHt73xeTuGovvRR8+f67Ok4JWcDeOdt2HgrJUJbd3HLx/f32ctwyPIfzsu39EEhUb7gxLf5g3VcHJ0IHXkziS1ySi4dCMhRr1Q1M00XphUvp0wCTu5s1rU4rpd0BcqAnU08psqXe8uLS3vZnDp3iuBQ6x/WSWz+ZtjnOny8ZgvzHevXv6rSVBcSKwP63fWKT9auwRJmu3NuQ1nE/fvijqP97IujtqrfcXfxh3P2+bwk1gR+//vo7Qd98X10U9EAwpdq4e33PMpTtPQ+SpO++F8mIkN6Ou9dj0Hk4pN6UVqcrKqHQ5wKQelOauhociGYDQUg9KU0nJGpNP343IKXF1amFpCiPPwQxhVBaXHw7jTHJlfqPD3T270OJJgM/vJnKO5aC1Md//PDhT4K+/v7BqqCXP7xfnq7VWw8Z6reinGVBjqVFn0aJFClSpEiRIkWKFClSpPsQ3lcLf4xkiPr2H4+J1BGfZUQyQn8dgT788xvyv8cjPcdoRLhYtWZqgyjVrI22fvavb/6D6EukpFjNjWo1kZidTSSq1XZ3lJ+7/cOXSklrbVRnBSXazdF9IulLpWR1qRVJSqRGVm38MikZBBJDA8Lfq6lBrYlMioZyg7kxnJIx6eXNJoJJzF50m83uxSx72ZX7bWhbavhHuYzt7YNtABXYZVmWuBl+C6OkbW1N+MfEalXmYzVwMquWwg1V4UkIbe1w4fL68vJjJ/BdLwf7n97t7e39fny+LWEyyKR5QefMKzJlLjepWkDCT8k46pC2r8PanhxZG2g7Lb7BsNC4EhcsNBnK6dP1+fn1h+vk34cfhbEYysHx3Fdce/sipVpqFufMRPvKqlFXrmKs81FaW3hI2l6HthcmllMLkbS8LZrSrcKo0JgM7YQMwNX8w7p36PneV6J+9z7E25r1JoRqqibMCDKlzrrY9npn5OO9nS4SGIREWTWQAy/Uj8I4iNbXO7iUoY/HfSVr74AFn5Y0aSYuelE6nOeNMk6HkxjEjWUYTrsmR2rxxQkOhNjT+jyOZZ1Z07kfErGmbTrXGctthqcKbod2FUKpDm2vzz+6vH6Ip1k/vZdx30xGqypkR4YSfJb0FMisPzyrr611nuKLa4gf2++QzLvd8/P9T4wYfg4shVja3VatdnXBE40Apa1r2t78df1IU48O8cXlJH61HETqRLNntqI+nQcua3DAFhrW/CF9sY9cjuHxb4OFKOpzSg0hbdQodbL66UWpA21fspi9hpjqIb0YtyCjrLLYXUvJWjaUNbQe97s6ThAaveBoSp94psT87zfaaBXdWGEBrNnD4y6hcbftOlBamMDMCXyDp0ZX1YQouhnC6/yZa2tbjzi1F0Bl7oXb1DFGJmI8F7KBGg5kGwFKR2CXC24DBlC7nkCXkynJy7kEMYYFoCR87QvMePNkxj7HoLTt+ipu2HuhYOxuCwWYZigliN3zH9dc+WxrciR5nGdLnJIKHX8kZHsQS+ZPFOU3jErengNuXECJJKVerHsTSqnDpjVX0gw6SWpW0TlArQ2uNqOEs5DoBGgAZ4ay64Yhpm2I33PnCsshhbPU+lHyaQIpGW+q3mJEmOfAxBLLSIkEa28Xo6T0pPTihpTI0kTWBFJy2iFZJYssG2S1gqFC8LhD7nGYCAjfccI9juWUG57HGa3elNYvF3yaxMVcig1AwtR0ly2B6L3gj97uHha9DwxnFcKaQD48ep/Ou7nXpAsLJ4krdwMZW23WHSaazkd37xEGDzcT+Orc3fWJ50+WvDY0jOWN0HxpCzKBpzw/ohUsVd1SJ3Elp+ECIiFUumttb5Rr8upKXUAvobfT3rkrN0NY+tKPGDarcjGm2yOrxLyexSFDO3tKdDmZZYFam60fWpZlaZa13MQJbgO+/05DLI/q9IobR1gfIA5nuCuUTwf0uG0GCT6uuoy22G4BlmVWMQ5SqrPVD/RD60xq8KYyWC6ZSGykut3URZullswS+Gp3oVOvn0FeQJwEMgO+2t073t/fZb8TU6LMuuyWzMVVq9Xd6L3aRWN6dLJ2dFT/iKWHSVyggJo85RbuDiRaPDE45JWT+XmsnKzzJPNFsHJyDM5n8AJookrUp3Jy9BCxr0NlRmx74mRYV215aTKbaLuQFM1XhZt/5JaAAgWmT6z2bdSkFhPddjglpf5wXcoo1ydweYIiwXc5VRVGlaimpJvgh1LV9VK42r6KrvetJ0ZNuA9avRIruvId8LVrse2JtSSQodRSbVYISLRT/i8qgwo+8Tfyc92RnhbZ3nU5zX16IabvVpM1mLioKVLd+5/fELl3B7ZOrnnS/ehkAssBosjonNpVs9vtXrFyt6yjztnC06cfD4N/9mT7fPf3d+9+P95/4c9zlltkLkg16Q0scYXy+N9U33rHbZ2ekLYXTr6EP4Ah3FsMpHWD3uUVf/dKw4ZM6WZtTp6G3XGvvVZCqDxEQi1fEG14d6/wSYTqVZ+3TJ8MCwJ3272F/ia08DD1wjtNbZa+I6TExXj7NHEyaiz1vmhetZoptz4cSRZbyAlF9Gr3y53WRiUrJT2CSCBdWJ9/17TJoKm3sOZJdCNIoap1+RKlOhtY80RiImvoVrObStFFz9T+DYIBZfnvYUWKFClSpEiRIkWKFClSpEiRIt1FE/oR1jt3yilQaYO04xSKjWLR6XtSckyxWAi7XT9iWfRpuJG1nsyZuVzu88PSipU8PTKXXyo5PThZjcoMPcacqTTuq1ZMe2IVSsnK0tJSslQMP61TotopDtyoVkDj4RuS5szMjP1ZSlbGNNMzoHSuHH46p5Jjx6TN3FJh0C7dSfT7OxpLds5OE5k5s1wKG8oONQUzVx740lllO5+2l9zjk/YglKxKbsaTnQ/D5JRN8Zjy/WBSihV++fD6lDf9RxhaGY+wBzYma4m8I31DSloyx0wEe5QOuSrWkgiJtLl0H06nlWxbOi3pZMZ/4iI7xEwO2uytKBUBgFnOlDJLcMZcKXBMiYHMz+QRZW5n0D7dWoayY+NlS5tUaDK5pIxJS7Lrly47A852LiV2/ECUKjZcCXqUBW9IBwzFAau2y5sFp9BAs8oPY6rT++7dNDFS5pOlRmMzU87h9cmEdA12ND5/QnjES7uFLVl5AKMK5zT9UadhwjHYkAMWlwtEiFtI74epAIadtndY/63NvB2k0ciBtdFxVoSUx9kp7Yjznve6uLNTps2U6ZYSReVSckoVokzYXFqkpzG5k2Uoj5w/EGI7fGsRuQ6C4TNS1VjvNAhsPE3nEj54B8w4LZlxxaTOBtZRFrY3csRHhdBRhNcZRaPZEfqxTbaABTFKVtKE2dQMm+Zpe7bLBazcb7tgYdzcDEWjPZvJDyF+q7rWExNcvbQ8czFTF2Kikydb7AzEVlMwb4jpZsn3mlLKiPNQ3rWlfMObxdNB5y1WkkT8MkCY9tsS2L7Qt81Qg7uFVE1X9R7fV1dhQKSQjK6f925cg8OZDQwbFe/CAZXcDSiRt7P/ghcnIPQ4X1yCvpke32KYwd1Gmk4xhQYnxw7OEQZOTzOmNwYaI6mrwUyX9/rdixJdj9iux9l51+PobjOft5k7LgWeIBAe7sVJ0j9/lcwZKWuDwGQG84UbS9VUolBMYCQkIPs275iSWYOV20mN2ZSPSiilQqNRhsShQVSk7TNKZqVRKBR38oDJ7GcDDcwK/F2DHnsXqkAt08wodxZAIj4XEpxKudArAaP14OFRDXemdi2gNyU5q6THIyUzg40WMPYle08raNCBiJPJScZvQBC1+7QzqOKIiUx1geCUDPVqo5AXcx3Lm9uSsr0PSglOZUuEG/LLoMCe7YpvqwbByk/JDHjDzbWiM2MKel0y9HopSImvoQqe6RdlV7wxJX6sYVhlf1ohq4Gm5+9aOKVgzLi5sivEmLRQTANRyrgGZFjSjptTEjJpmF3zvdbz0AO6QvPbWqjH9fPcQRXPrug8NulycMrYofNogcUfeCENF8fqZr43pSSsUDB/6kEJIdmVYLYYiN75IUXvWHwFMEHaJGPCxC1wxSApsdn0Ig6duRyfeO5EyexFyeCQwvwReixkAoVhZQLxeHwlq9KkiXicrosxvJgLvWTgY+zUWA7g5TCcebjFj4YSyYEQUtjOkWWVWcCkqdSeAJMbnAyY2gN9tcpCVsnKAUkmeMV7FVihmMOg1LA5pJAJsOC7MLBCCQT5WyhLMGUJJpZciphYnPGlbpDfpsusz7jWSHNhaoj7JGdU+ErmbpS0TYBk9qhnszmNN6vRZtPDWO1SSARTnGDSqdfF9FiM78MapN0QLxsafI47nK+QCWIuV/AVyjJ39zgrA6sXs9IrR5ACAJuNh1E50YkxZbOAScN0QI/FeQyv4MpWcGxMi3kq4+QlS+LGhIUBB2pIJJbi955B6YBRMm5HyYH+zOSSPkia47Aey1W4ytCqcNkY4ZQlE12MpU2EUizOYjiOLG0n2T0hp8SWWHC1DPT7dFkQUMOrp1UQaEEcoUhJwDAQJaw9zqQzlqJx0e3FSr7MwLGK7lLDcZzGUshq/baKZ2NZakwrNBVgoSkWZ8GpiIt3265kSqWdCqu4s2KKYWFppcAXOapqYREVh7eJlfp8plgolspsPZsRMKTLO5ubm3QdMgilQp65d0WQRbebM+kcs0t+d8DO2/YQ7w5kVZWFphWVhSbqc3EWnDBaUnuiwt9NfnfAzS+9P40OCyzWMzYBpm3TptWQtGBLnCDZIdYq+1Jq8JtxgoNTQ8FqFVsj4GXyFHY36hbSszE1m9WZNVFGJIITY8rGcX/Rzs3I583t8LC1kwtcLClkF+UbiKItWe4dBa8KNyglQfSmTVIqxTt56aQ9Vzk3U5yYkqaD1xFrYi5HfS6bZbEoaQrntYWbyqx8IfWDOyEbmMmvbDpXgZKYnWE19II7GqCU9lEKWceFU+JO5q5LnCV+B3zG7pUx3JwSSbyzcTVOs6aVLBQICCPEhDFcKybz1GlsO2fmxQcUivAIhG+i3aHPOuR4jlUgoYz6m10uWfzuAB8NbZVsMMHjfE9TJOnTEL56bcOWpgn8Pwfui9tCu/RpClrwtNP5yqY1pGd0VAKImJMaQ0zUlIATxbTCE0ynUaKp9U6jIK7zCiUSe0u+zNaBjQ3hIPLGTMMhC3Syp1QqkrWQxqy02Nhk0bsI7/LqSfhanp0sJ0S0JYucQl6FOIVGozHMJ3PicV0nP8SKwOey6HEQwGmy6R7Hp90bCnN6jS4TNSxaa36peAT/TXVfq8Jsj4LvxlL4MoHMNho/S+jJh/e3gFQavsnMT82JY6IOB5zo0kXq4kDyj1jVsISF2ZjuUfFD8LXB3oShkr1LOMSAQ+iO0X95FWFEzCmWpT9x15piIMB0s7+axEtVEiXBPkT76aMQdgwawyVsZ42NFJUap6lAXIuRaS4G1hTT4OKRlIkmUqLX9W2Hu6oumZAoTMZkXL2ELqWHMdPYWkoig+T1UbHSNRq+Y3ShQhiphBJdq/AQzrLyfnQwiKGT+jjpKh+yCCAYmSTJzbMGdBe8D4wuQYT4NwpShA9NBUhaST0vS0uXKzF0OQzhcQAXRgf2UjFArMuqZ1aeXQn25bOZoPh7Q4ix3QGPE7doI8CkUpcj/kYWKjHqdXEdMdGMCYTmtEJWxDgE2IASCAEkD80APtXTfLzhe7D9R6l+jpoaxnV4lMj54xDCCS5c0jFMLAfnmFy5iMDadF2Ac2sF+PqAuTYk7WFWJKBS9dGEpmyWhqEsNSQM1zDRrYDPoa0QGKoWywomRI0oxuZBiooFZXG8eoAedzW1v/1wP8R3aoHArfqNhpUPJasaulGRXIlw0qirxekPCcRgOTHWSX46HRws64UiBtAjETQnfHvPCOSzwJCR8cNgt0hL9SVKvmxA87/hriL914FTPEtmfzJ4akHUrwI99uDolKUuzmp+nxPJuDvYFg+d1wV2tNCG5u+lS0uY0TS8lO5rVTAqzPeHRCmbpSkgidskPJGMgOThdPIKw6TFOBygI0Zt1+XEfyVe8rwmQ/W7IB4kwPXDktH4UKnCK3KqIWGiyxONItCJuegUEk3FCaZgNkltLcbWwt5iA6rlAW+SzEewKSk6y87II5GMRfMWdd5WVZWjD6ZOXrPhDnwnEZej9wNicRKe4ppO5js9ttILE7EhFUHpHh0pfocvXTU+aglmIJBrboP+2d8lI8/+ui84ubuHmolTQ6JBJ6ZSe1KpOcVpxFkJzSU19DZVnLs5Hu6BQUCCgfl8y3snHu3t4StCOXK7bYlmI05xmtjO8II4NSQKiiKCf/S4BvE5HBOYkzepub9CVo3ptxs4xIDM+61ICxSpI6KdafIO1oqwSTYjTeahqTK2O4P6fyVMAbCvPG8EAAAAAElFTkSuQmCC;" vertex="1" parent="1">
          <mxGeometry x="620" y="326" width="110.73" height="65" as="geometry" />
        </mxCell>
        <mxCell id="L4tckfG0INi3qkzBc33O-34" value="O-auth authentication" style="text;strokeColor=none;align=center;fillColor=none;html=1;verticalAlign=middle;whiteSpace=wrap;rounded=0;" vertex="1" parent="1">
          <mxGeometry x="645.37" y="384" width="60" height="30" as="geometry" />
        </mxCell>
        <mxCell id="L4tckfG0INi3qkzBc33O-35" value="Model" style="text;strokeColor=none;align=center;fillColor=none;html=1;verticalAlign=middle;whiteSpace=wrap;rounded=0;" vertex="1" parent="1">
          <mxGeometry x="780" y="530" width="60" height="30" as="geometry" />
        </mxCell>
        <mxCell id="L4tckfG0INi3qkzBc33O-40" value="Database layer" style="text;strokeColor=none;align=center;fillColor=none;html=1;verticalAlign=middle;whiteSpace=wrap;rounded=0;movable=1;resizable=1;rotatable=1;deletable=1;editable=1;locked=0;connectable=1;" vertex="1" parent="1">
          <mxGeometry x="390" y="596" width="70" height="33" as="geometry" />
        </mxCell>
        <mxCell id="L4tckfG0INi3qkzBc33O-43" value="" style="shape=image;imageAspect=0;aspect=fixed;verticalLabelPosition=bottom;verticalAlign=top;rounded=0;fontFamily=Helvetica;fontSize=12;fontColor=default;fillColor=none;gradientColor=none;html=1;image=data:image/png,iVBORw0KGgoAAAANSUhEUgAAAVwAAAEFBAMAAABduUIgAAAAMFBMVEXu7u7///8AOlYNfswAJ0V6xe2Q1fVht+YkjtM6nNpNqeDI2OEkWXOluMJMdot7madZ24h/AAAMnklEQVR42uycT2gb2RnANSKHFCfNm8CeRiPZw1xKlASsHETJYXl9h4JlCXZx0kPpoZClW0oLC6mpKT1YpdjQ07YHO4QelrapTSmWcU/ZZGMzpyYOUfCt8W4c5pbEqYJu8Tr9vvdn/uifR3KckWE+jaR5o5k3P3363ve+980bpXQhJCVk2IsJboKb4Ca4CW6Cm+AmuAnuUBRTKU1uGfJigpvgJrgJboKb4Ca4CW6CGztuEp4nuAlugpvgJrgJboKb4Ca4SQYywU1wE9wEN8FNcBPcBDfBTTKQyWgiwU1wE9wEN8FNcNuLqnw8cE9v1/Rjg0v2GCvVyXHBfc0syy7VjkcGUn9MLRD73HCE57pG+NKtmGMWF6rFjTtyO4K4gtay12PG/VkhgoxTiWtV4sU9GYW2YCtabg3x4ZJC4W9TB8mVH3vKtexGnLgnC3//5GBRlpsXxhsbrvbx9yPQ3lXKfQbPD+PUbuEPEXD/LGkvbsDLZIy4RuHXB9P+Wyl3nwrXEBvuB4UIyv2pxJ1s4ms5VtwrkRuavU3jxz2Y9ldSuZU0PQ7a/Ujg2juONQS4B8kngtIq5ej7xO0YWQLutQPkU6ncsbTEJfGF56jdqZ60ni3UpJYrMeNemcKHWNTDX5QtVEzlzuLFlZRiUbTXrqnl51K562cl7kSsuIAmwy6+qFXcisuVX1AZN6owZzQVs3aFQiWovy42yHhh0qBqOJGKV7s95ZotnW5G4TaGGfeXklLfUuF5PVbc671xP5K2oHvDHy1m7V6/OnUdn7hwwVVZvuJKW8ipILJM4tVukE5oNMivVJpWuJMx44Zk+io+fJGmO6krN2aNDhMuaBVV68ln0nkpNwZmkYoXN6hMkOvBDVPSdGtZGnAM8Wp3OihQuuqXpmwZM65ZAccQXwbygwIiBo03ZLs/EmnHUd90K7FmILkxtGg3ICJ7YzdML4szGjPudA+5/lfZpfmmuzPMuI50Y57p2rUhxp1WKV1H4Zb0mHFv9aD9iTDduud1MeMUM24P+S0VGvVNdz123JmZmelboadapr9oM936MGvXlRp1w6YbK+7yzMzyDLyqd77K36ZtoVFihU03Xu0uIxs+WmiXfyNNN9diunHiLiPnsuQVgrz49jsqNJqmYdONF7er/JNjjunNFtMdTtxbn8srPd4wbWKocV2RDzHDAYMeawbyRndeR8S6GRqMdVPxhuc3lrrJsjSALS/WJUOAC6L4bohFyj8o912af/V6GHAXl5Yk3+KSeuHyLyriG78HHhLtAqJcEFaVhB/T/ISIPgS4iyg35LLEieXyBeWMp6g37hkG3CUklYyLAfhFrl2/pbHG0Gi3oyyFWhq7qA837n8c7NNkOEaf82PFTJxoc+TeL+7CD38PmDXe0mz6P36sTu5sr+jhOXuaTm7fXgnUbP73zm1cyJHgLvDHPCz8schXF8B0S59jUIN9ml2SodjpDcbYw0f6pl+VPrJnw0b6UpM1a2uMS+VIcOcW5wXf/AJ/LsjS/E12mVoVfZVPdtO/ug97m07p1Td7jO5WvKr0MzbLv91+67ByTVZN7qAVXVw5GmNARCRVokqz1kN0DBA9lh6d2WAY3jRLmGa4y9ikqkoD2pe88ETNOISa8RepHU1Tm5/jkHMLSmRp8ZKVFymG/LfPGMVQN8caXKGPqcLVTJvdlxU/YWVN1gwxXOmIPAOQAd2898QXXObBcjfshkGthw61bAx110qitRu2wtVdWvFiPZedlxM6DbSio8lAAtjcQuAhaRcW/oJtDBxD3paXp4ijwvOmaEaanqWs7s1CylJaFzUjLjma8Bxo55BSPvGVy5+KPJkng13Uq8nG5LEZhevwsbHSjCu03gFXe3e4QhTw3Nw8f8zd/J6DEcMJEYydA74skwNhPSdxsxQnwXnnyHBdd8DVDO0d47bJzR9cwlFw00/xZ6jCNSRuUww2Vc0G5fNlO2jXvUiOGHeWzuIUN8e7mJZKW8oYUgIXqCZD53At2hHXBLUfMe64/QDHD0K599DFpv2RMO9gtVNU5Em8mtMUR5/tuKD2nXeGW52bK1b9RbzPXbIAd0eMgimfwp3GaTjiWGULdj10jizFb9TBdl32rnCLxWK1GuIVC+8l6iJVOsmVCboLZXGIzX/7wDkAs9wR98xDTRZV4DMoLrIGMIXAplme2udTRPilP2xqYua5OjZHpbr9mm28GtChqYHjF0VSJofVLhDDUy5CYFMVQbU15XRBQNM0mN/N0LZkuotJn17dhFk+tHa7CB+oNcVsfhHHQl9c8Y/FrzLacsotyx7riZupHBK3UMQFXqrijQusFTfwmh+GgmV5sIaF+z5usz33v4YxnPBwnXGbhzYGNAePVhkDPBxsYkhbU3w4yKReNwb0bbhp7Fk64cp10zq0doVUPc0qBY/Db21Kc00p4+WhuizaKsfn13wWf5F2XBiG7PMLcq8hgNMJETuTr3df1chguB3uPQDl5ah9L+C5sIvzbIOIafMh3Aw6izZc/c4LmwGuiffhgI3VhddzccxU7zMD2VX+SHF6kwi55bHcC9vnZeBAeVgZClIBt0RgDX2Gf6ImY+DgwJjwriFgbPBRapNZsHmyz/C8UPCbmLdShcdlCLfSbCd4CxX8mJhxeNoL1yL8oyDu3lsXcVMjt09RaGojfOcce56C6mi/uEVJCoSctKhW4BRr5VBL0Q1H9MkKt95yDnTN7dqFiJMiLvbSFVVVE7oYQ11k7ku7XcSyteY9EqoFRpKeOfQwBqMV1+C4+LnCNdg64b5wcNwW3wA/lFNrqUX/Eu+s4lE4iWy7uKEVN8Pq3DXS/m23ihYgTKBY8DYUnZJ+sS21Ie5b45Gk1RG33Em77bhbJYxJtwZpar5UAyouOmVjvX2AarjAy3XiqNjH+xRCYugHImnXwf4CAsv6YE0tYAvqfbxi1ttxtZwtHa7LZ5uGPsVeLZJ2DTpBMANwXh9Mu8X2pnZp0uw0/NdXKQYyGM/wOXBB7fJNUbSbo3AoGFZtENxqscUWuAMenyQdsxXozdDk0nymdAi3ifYRRbsZOobZq6ekf1yfVQGLVjc70Tm5gvMhK6KPq7TguuiKo2j3LF039thzPaXr78rvzn7YJRdkimGEgV4r9CmEEaVUJO2mrbxdeqOnBsQtdjDf8bHwzqdVEZTI8wuuZYVvGzapuE2BHNhNnLDy32r6ACm9jrbAbXe2BXfLSzhvCdxV6Xi9mmE0t04iafeEJSsfQLvVYsjzesaw3g1XDuEhEuCuweuit3gk01m7Wth2ZSvtOwPZvRMeXw/trG15mZi0aGPQUYSnRDrytty20QQag3AIcjSRoWqeDCEDhOdVX6/SMxRBuy24Oz7uhMo81ALnyPEkTiTcLJUpFu3LlT5wRwptvbC3Mr7Tgjuqgr810Z1phh26KXuVlvQ23Ey9DVdLEVNu0GUUFfXWUDX+LSpr8COd2VbcsherikBXgw6u7FdFbJUyC+KuteMaeW9f/bvlfoxB+7iDauV7m3ZVzkm31TkMR+TwhHKZSuqgY1a4bi2Am8XRhL4K38UVrdVwRvvBTZ30AFvdbrVNuyogybJ76hxZVlJZCNOmaqSJY7qaODbHarxjEV81S2H3MxDqguHYmzDYdFmjn5FwilRbjbeoyNtxmeBxxZ9K8E8f47Vi9BIwsJXXgDR+LU5cKRxxKe4nGyG+b37NU/EmDCzzD2xWJn3hat/pPnJvxb3g4LVW8hoiE68qKF14BG9fOWxT7jyyjyMkdmF3d/eBTaGfHtl3mF161eD9BxPXszDMtwH5aZ+4+qfdcC+34jbIHtfIph6s6gmjDx5sMPpGNcQco8wXwDWtPOxhYcaiqf6fRCPP8NNwVZH+ToJ0+QeJu2G/m7qjafrpF1b+TUum6LTDGM1r3l9lpMTh6iIrBGqad9Xb3JeJG00n3+y+ejTon3UQIV69mqblWnC7Xr3hyaiG3y/oIWnZWSeHyJH1KppjEXfmE2YPe93v0LjGaMSdNZ6MqseMmxqNqjBUr7oQEB/uuai4Gs6GKr2HOZA9i5uRd8ZUqv30cNNDooTnPYuvou+MM5Jl+i823P3oOxu2r964cFf72FlYb6y4Z7XoOxOXYiIVNpG4cLONPnaG+NGyX0ILX4kL1+wHF2doQUy4uzERF26fRfMFXifBcPJY4EKku7298v/27dgGABAEAuAKsv+yzkCBj8mVdNfxfrDOJ9zWQecGbnZN4OIuGmc/6mTjOS4uLi4uLi4ubrqBFM9xcXFxcXFxcTWQ4jkuLi4uLi4uLq4GEhcXFxcXFxcXVwPpNYGL+2a8kX7CSEuvrJ8AAAAASUVORK5CYII=;" vertex="1" parent="1">
          <mxGeometry x="585" y="579.5" width="88" height="66" as="geometry" />
        </mxCell>
        <mxCell id="L4tckfG0INi3qkzBc33O-44" value="SQLITE" style="text;strokeColor=none;align=center;fillColor=none;html=1;verticalAlign=middle;whiteSpace=wrap;rounded=0;" vertex="1" parent="1">
          <mxGeometry x="600.73" y="645.5" width="60" height="30" as="geometry" />
        </mxCell>
        <mxCell id="L4tckfG0INi3qkzBc33O-47" value="" style="shape=image;imageAspect=0;aspect=fixed;verticalLabelPosition=bottom;verticalAlign=top;rounded=0;fontFamily=Helvetica;fontSize=12;fontColor=default;fillColor=none;gradientColor=none;html=1;image=data:image/png,iVBORw0KGgoAAAANSUhEUgAAAOEAAADhCAMAAAAJbSJIAAABLFBMVEX////o8/uQwuYAW5lAk8zpgwAAUJMAWZi1ydzo+P/pgQAAV5fo+f/o9v8AVJXpewAATZIAUpTy+/8AS5HpeQCPwufofQCXyOvz/P/tggCKxe7ufgC/0ODyhQDq074PX5uGuN3J2+qlv9fe5+9Tg7DV4euSrsplm8Z5rNM5hbzq2ckzk9H54czq8PVwlbpHe6x+nsA3cqZKfa2KqslZkL4jaKGgu80uebHq4dfqkjfqw6LqpWjqzLIAWKDqrnnp6ObqnlT88OTqu5Hqn1mpvsmew9vBq5vWoXDljzfalVXKoH24sKnDpY5TZH3bghl/cG7VhC2us7Wzj3LqtYiEgYaie2C8gk7GhEawf1XI0tp/aWInYJFka3zupF7qmUV7lKqbk5J2kq2klIn307IVNpi2AAAPm0lEQVR4nO2dC3faOBbHAw5WsMHYmJokJTVvyMOACW7eIU2n084rs53OzuzubDO72+//HVaW5AfGBkORnMzx//SctmlT+ce9V/fqSnK3tlKlSpUqVapUqVKlSpUqVapUqVKlSpUqVapUq6hstDqNmq1Go9NpGeWkH2hTMho7p4OhzqtQsswjybJs/5YbDk53GkbST/gV6jRHJgepFEkEXJiAqEBabjhqdpJ+1pVl7IxMVealcLIgqMTL6vC09nz8tnFq8THh/JiyYnafgS13dwaivJwu9C8AoKj6qJE0wkLV2jwvzj24KCp2vCkcpxNxomzHJwzQEFNyo6dqSeOUkwNTimhHmN6enDZ3YIbIZDLFMhT8GSaOxk73dNDWQ6JVUq3uE4zJzkBVZo3By3obZoMMgQoR+pNGczTUA5hAkQdPzJCNoep3OJFX9UGzk4lCC4JmOs2Brs44uKSaTygiO6afT5LBpNnZjQXnw9xtNSecf5ICT4ax1fb44EShD2qZFelcykxtpMuS5wrq+An4anng4+PFQS2eZ0ZClhsj3XNXUR0kPec0FfcjF2Wzua71Zi25M/QMKSk7SfK1TBk47qkOGhvAI5CNgReRajs5MzZlx50kftTaGB9ibI1c75DEWkKAAxW40bJZPszoRbg6SoLPsJwML483558zjA2TJ58hb+4yB2xx5AOWpCYVPsTY5ImrSjrrlXKHTDFAHWxi/oxEzLSdgZQWW0DiPiJPz4CE0ZnOAM8y+7fIByuZm59h5hAblsQc0SCLJL5NGw+rzRNEZrFoYb+RB9QNiFUeEESdEWAbe4082mUD6CFKbSaAXRkDnjKyoB9R7jIA7Kg4BgfMLIgQieOoDGYbHITSmKEFkfC4okUdsIvcBQDGfJlMC6AJnKftp4aCxpFrzAkzNZVJyhihclsZsfZRqLIzNl1CtGACOns+WzoaXKG6zGiiKJSbyRDi0fkmTUITfYpWAj5qq4yNaFIENFCwK92kCLsoElWKcw1x0mT4oFpoJqfppgO7sBCZJ3tX5aGd9qUBPUIUB4k5qeOmgF5ds4tqbj6BbO+oxqPeLLUGagsTdpIjzKh0p5qOjErSYnKAZfQZy9T2pGp4kcZ02RQg1HGc0CLc4ZPM94gQlRw8tc2aneRtaDEgBCBJG+LKlLINlVZyhHgupU2YxOrXUY2NDbuJAZLSmzah2E6uamuLLAg5PilAsrZgQJjQEt9Z5NMnFM2E3HTXAmwIOXknGcIdvJ/AgFBMqHAzRVaEHJ/EIrjcdYenTwiSWCOSLSE2hHCBwRwQLyuYEbLfeyoPvAO6TAg5nt0OMAIk+7IMCTmZ5WxT7qocc0KW29zlpswlQAgRGTnq7owFGRJyMpttxPJA5pgTOsXFkAXhmJ8ZlAmhNBGdQekcvPRUrgFyrk2aSMwIgVntk0PKQD6lClgcOeespX7Vyfn0CaV6NlvXyXCKXqN3vrRhOR8qsMdUGBGCYTULRY4MQjNSOAON+FoD5yC5aNXhmNUho/Wh1LcBs9WxU0dJyunmj9GWM6fOAWFOGaIRs32JDaFexeNVe86NAaCI3c0yljNdTnFvOvScEXUmhOKYjJet1i335ocibvA+AuTT3cwkIQ/FA7LptbmfqD3kxLuKJcmTjaSOsn2fxLGfnSR8w/UkJoT1rKdq3fRWNaJsdr/WkOVW1/Rd7lLMetU3XJ0FIQDZGVV7umdHUVHHzda6l7vK5U5zqLrmg/bTe9XZwVj0vAFXDSBWe8D70DmRV8bdxuqQ0DlPTd7Dg87C9arBsZjYUA+MastvR/tFArI46TZiXiFFl0gb3Yko+/Hm7YcILRZxGEYIfdVU/NecbUrOHDUXXQNGbOgi8BjIM9/NiZIVwmcTstghDXqpM3i/DQK3su3bzrI1HnSbtUYHoXoqZjr2be62yc9d5gaSNO5HDKInEYfe8NX+UJx72wAQJfs6vgIzmWWa43a7PR6aFrAvsttvzAjeyId4Zi8bOQST/cOZbBF8gmxvKM2/RwA9OoA/gGgLoF+H/R1JMXv14PTiU53J/iEpSyMhobta0qqvxUB0+hhaLxov6xSm1Ku2ycKHQJD13ljno17aMm9d6Mj6cKHxyD88YVK1AWvZgyDIarY/MS1JgU4b6pEETVJEazjpo29Y/q9abHZIlQWBGOR8Ue/1xmPotSGCaONer77EMf2qM1o9LXfTAKatet9WD6qPVcdfX+lfIu0h+mt8sPxhop/yK743S4pDBjukqxlxU3JMyKKbGD8SN6k6u26i3U5kD+g2E5n0vKXQupguYM9dojHZt1AWFzYUAPveGpQJIVhUnVKRr2pgs/cEdLaAOnNCWLxRIXnhaPbLlr/wY7V/uGnEFy/29/fhz++++eb1u2wW/sbDtGYWZMx2SDeJCOneffz2/V3uJVHuw3ff//AaUVZnXJQlIVzuRzQbVsd7/eOHvZd7e4KQIxIEAX4h9/5jdr8fXJuwI4RJYwN58cX+ux8vXu65bH7ZlO9/uhETIHQiXxl+XS0N+V6/j8BzKA8efhZFGBMsCcHZthP7ov41ngrtB/lmeBz5vwgZb6ztM4ZVm769vX3muE5ga2EV7We/9/EJglYq5S4+PN49frgQKiXNR3nwt8Hxts6MUDyEhNuH3vZQey1XfbH/MefyQbrc7fW5kckXCvYPY/rq/rFU8iAPfjk+ZLZ6sk1oI7qTuChO1gDMvn/pAGiVi8tpIV/0X4sr5gvGqyvNhdz70AOMdrlhFBK5iRhIXHQbN1z77x72HPNpn6b5fFjXv5g3ri8cRuHg1xtGNtx2dei9L1cCk1Xicf+jM4Fq2r2Rj77TWCwcuYwHf79hQQisbZ8sNx0DURr24xpy/wfioULlygg1n9+Q14JGEH+ze7DUCQ/9hL5otE8s6PEMCQGJAR/OC4v5bOWN2wr+QA5+vwH0e96zhDBv+F/tLEoQclkL1AWs3Bbj3bktvCK5Y+93kX4cbs/pDPhLR5G06CMp9z++JB56HcOAxIzTC+ypB/+4SYAQMuoztSOQFG7Y64fb8sVrAiicL4lAv4r5uxKZbtQkCGE8WrMbMQDYffvxpN/HvW0fbA45nJCbrnYrPH9LEH+ivY8fTogNGVzooL0XxTKHE9TOr9v6bg9bcEVAGIxXGFH4Jy3CxiIbepDcnADaZUJS5H8d4DS/MiC04h2KReGOFiF+p8JCQuitZ1bkdpoN+weuZCpHK8Sgq+IFcvDKF6qEYDEhojTn/ZXo5ndEWLqPPYvOEE5R0hAESoRb6J2ec/kw2pZ4x94PKP4b++jjOhaEyl9XUKFwS4kQVdpe4R2D8szSdQSKMya4ecBBaKxkOd+vC1coFCtv6BCOUGfdWo4WBLVRbem/IhOWLlcwYd44n/pc2sCTzWc6hPg6vLgqoafjD+jxHlbx0atKqfLoTbz5yxJFI+I3Ya3gpkHAP5EJK6/iJwqcILSc59ZFVDAIlCJxLC7O+csIf7MnUuEi/jxauMdJvnTpM6JGcTqNWF3E1QRH4XVsExaPKmSVdeVzbNSIK1HKiTL4CiMe/weZMBffR42c0wi49Qjz9xrFwoa83HO9SDz+zn5e7VPseabwlqztYQnkfSzFaYVmwsCLpDX9FM8z53FtSKZN+1P57A/dPKrdNEpu6tx1XMeEf+6tlCqK5yQIoasGyDWKs+kWufa/Rige/7IXiKglcoIwaHaMLuQoEZL3sYOVKxsShqW4ybDw2QnCuRKogP6kRCkQnbddr454jENqGg+Q1Nj2d9wFrZ7/jD6rE0qEW21lPcTeAcrU8dJ98dyZZQRhrkzH+UK7pEXovHV+RcTj/yLCx5iED24QHs25dfGa6lQDy1OwDiLO9yETTVhcFm7dIAxZK2MDC2+pEW6RtxnBxe0KefH4f4jwPkCYz5xP59rCXhCG2xzlfOGCHuFWi/wPHkCMX90QwstigEWrVB4CTRvSrEBBGDoxTZENHygSQiu691djE+J0OFt2Fy/tDQmh8moGkTSc0EIrNHsadvFNLSFiGe414LhFKiGcTYd5YqySn8QLQu02Yl6yiwF6/Sgi50UAnKjHisYwG3qFmc9Y+VduEF5E1D9ozUHZhlCnqrt1GMdVQ+Nw6sB4ViwabhBGdo1Rs4ZuHCLVvHuHkrXUjqFzacFNe64V849uEF5HlbD051Ki3Yns7QAvYwzNhzCzCbNWLHxyl0xXUcUByYd39AltM7rXgJcxkpomUGTmjyoOIppR3b4FdMIIPremuWJBuLU1kr2dQ8CdLYAMr0vzRyWfoxYMb8kUvXWDF4gU69JZ+f+XTmhIPRIyYm3hQxRKR17fYkHXOH9Fd20xp87YzwiLVjMUMmp96Leie9IrOgihCrjbRmt9GMrYVv03DgEAIaYkCXG+EeWLRUeBvsWsKK/xI2SMeD6wyy1y1gwm6dOEZHG/Fcm8uqhdVbxkOdH4GJvmzH1zB1O3zs7ODg8PyVQTOoMEERdv3RQeafbaFqrVtVRl7u6y7bToAjDeHZ1bP80jancLl8lTmnszS9XpmvL8/69OCtifo9uJfkQht3B7kTQTGVQ0UTJ2BpyqhJxYAH/gfYv5tsQsYkjfYuZvopTJLBtGqNVs6zwfxMRuKnwI9cH8kbOSCnNjT8Vr5KRMc0WEjFp3YKkqj14sgPbzyS5+RF+fWFFbssePe/psitJYatWa3UHbtHRJVlUVb+NHMOTPc5VS5W7xHn8em7DCrqCJrbJhGC3iYRE7iMXM0aulZ91QPSM8Jo0TKexiQtTjF5edxiQdjqdoQqKTytKqc5HI4irJVLFUd/jcVuTyfbEMfNXkKUykkXqDc0JpjYN70Efx56N9Sppiob6UcN2yBiI5EMV6VbGysB2EB2Pl86XkCC3Dpe+aImeEL1ZELHzCLRxqZy83JxKKKzqqc0JYY74uXEM4ZdhH2WMnjWLmLTkC/ZQThacvBLES9yAtLOi05wS4tXVJuqKlt9MYibFYuCRLK+25ANpWJPeeSpfLCrVi4fyC9MGfESBEdBqHpYfrBVfXbL7Pztq49BwmGU9vHkjzVyjlrjMRkHnI57QaYdQm/cyrynv2knZ1lCnMUhaL+fz0/sHtbWi5J5/o5/VFc3r4AjTk28tzo1DIYxWM8+vbi4rbAxcqlE5209aV1+1GV7mFx6vb29urq7ucVtK8y9zCszQg1snFTEdfCLuPL2jas4tAv07uKlpw28Iv6L/Pms/Wm0+5khAOKWiVx6dfaMfRCZpV/JiCHZfa3eVTXs2vqDdfbh/h/EKkaRdX9892dlmkNycnJ19OTt78hUyXKlWqVKlSpUqVKlWqVKlSpUqVKtVfRf8HRyzznoqKLqoAAAAASUVORK5CYII=;" vertex="1" parent="1">
          <mxGeometry x="627.5" y="440.75" width="62.5" height="62.5" as="geometry" />
        </mxCell>
      </root>
    </mxGraphModel>
  </diagram>
</mxfile>
